<?xml version="1.0" standalone="no"?>
<!DOCTYPE svg PUBLIC "-//W3C//DTD SVG 20010904//EN"
 "http://www.w3.org/TR/2001/REC-SVG-20010904/DTD/svg10.dtd">
<svg version="1.0" xmlns="http://www.w3.org/2000/svg"
 width="1021.000000pt" height="1021.000000pt" viewBox="0 0 1021.000000 1021.000000"
 preserveAspectRatio="xMidYMid meet">
<metadata>
Created by potrace 1.11, written by Peter Selinger 2001-2013
</metadata>
<g transform="translate(0.000000,1021.000000) scale(0.100000,-0.100000)"
fill="#000000" stroke="none">
<path d="M0 5105 l0 -5105 5105 0 5105 0 0 5105 0 5105 -5105 0 -5105 0 0
-5105z m5808 3409 c403 -47 807 -198 859 -321 13 -33 13 -38 -5 -62 -31 -42
-101 -60 -238 -61 -140 0 -275 21 -475 74 -384 101 -767 277 -743 340 20 52
297 66 602 30z m-1110 -455 c337 -36 665 -149 917 -316 120 -80 299 -255 368
-359 98 -149 161 -305 193 -479 20 -111 14 -369 -11 -485 -110 -501 -461 -961
-951 -1246 -416 -241 -904 -323 -1369 -229 -600 121 -984 496 -1096 1069 -85
433 28 936 302 1347 149 223 413 463 603 548 81 37 257 94 356 115 196 43 482
58 688 35z m2366 -493 c283 -78 571 -311 708 -573 70 -133 93 -218 92 -338 -1
-136 -25 -198 -108 -281 -89 -89 -144 -108 -306 -108 -147 -1 -229 19 -378 89
-161 77 -281 170 -400 311 -93 110 -155 216 -195 332 -26 74 -30 103 -31 192
-1 132 18 191 88 267 93 103 183 135 361 129 61 -2 136 -11 169 -20z m-4934
-910 c0 -134 -68 -836 -106 -1096 -70 -480 -176 -837 -267 -904 l-29 -21 -19
23 c-32 40 -41 91 -46 272 -9 307 31 676 102 935 94 348 302 835 356 835 5 0
9 -20 9 -44z m6370 -848 c166 -84 255 -479 159 -698 -73 -165 -205 -138 -299
62 -53 114 -73 208 -73 353 -1 167 23 236 101 287 36 24 59 23 112 -4z m-1140
-117 c213 -72 380 -221 490 -436 193 -379 152 -894 -103 -1263 -62 -90 -193
-215 -278 -265 -85 -50 -205 -87 -304 -94 -356 -25 -767 273 -925 670 -169
425 -82 873 229 1170 195 186 384 259 656 254 127 -3 148 -6 235 -36z m-4655
-711 c61 -31 168 -137 213 -213 170 -284 167 -645 -5 -797 -115 -101 -292 -73
-433 69 -128 130 -199 300 -207 501 -4 87 -2 131 11 180 32 126 98 224 180
266 67 33 165 31 241 -6z m2140 -615 c395 -64 754 -297 972 -632 143 -219 216
-452 216 -688 0 -229 -58 -380 -198 -520 -91 -92 -192 -148 -330 -185 -115
-31 -350 -38 -505 -16 -307 46 -589 149 -806 295 -472 318 -667 792 -495 1201
68 162 244 355 388 425 127 62 260 102 423 128 62 10 253 6 335 -8z m-2311
-1004 c150 -52 324 -179 527 -380 440 -438 574 -858 248 -777 -258 64 -668
401 -888 731 -109 163 -155 313 -121 396 26 62 112 73 234 30z m4399 -274
c161 -74 261 -249 259 -457 -1 -200 -72 -362 -170 -390 -159 -44 -454 75 -583
235 -17 22 -46 69 -63 105 -27 57 -31 75 -31 150 0 110 29 177 113 259 94 92
203 133 337 128 61 -2 94 -10 138 -30z m-2410 -1022 c217 -38 462 -147 496
-222 47 -104 -261 -111 -534 -12 -92 34 -197 96 -214 128 -19 34 -13 69 14 87
54 35 117 40 238 19z"/>
</g>
</svg>
