<?xml version="1.0" encoding="utf-8"?>
<!-- Generator: Adobe Illustrator 15.1.0, SVG Export Plug-In . SVG Version: 6.00 Build 0)  -->
<!DOCTYPE svg PUBLIC "-//W3C//DTD SVG 1.1//EN" "http://www.w3.org/Graphics/SVG/1.1/DTD/svg11.dtd">
<svg version="1.1" id="Layer_1" xmlns="http://www.w3.org/2000/svg" xmlns:xlink="http://www.w3.org/1999/xlink" x="0px" y="0px"
	 width="413.547px" height="121.12px" viewBox="0 0 413.547 121.12" enable-background="new 0 0 413.547 121.12"
	 xml:space="preserve">
<g>
	<g>
		<g>
			<path fill="#FFFFFF" d="M146.096,111.719c0,2.729-0.566,4.703-1.697,5.913c-1.132,1.214-2.897,1.819-5.296,1.819
				c-1.791,0-3.116-0.464-3.968-1.385c-0.853-0.921-1.281-2.395-1.281-4.423v-13.053h-1.817v13.167c0,4.906,2.293,7.361,6.88,7.361
				c3.35,0,5.682-1.05,6.992-3.153h0.11l0.335,2.781h1.559v-20.156h-1.817V111.719z M91.019,120.748h1.835V91.895h-1.835V120.748z
				 M117,93.525l-10.904,27.223h2.097l3.782-9.566h11.016l3.765,9.566h2.131l-10.681-27.223H117z M122.358,109.474h-9.699
				l3.802-9.736c0.396-0.965,0.761-2.041,1.093-3.226c0.435,1.358,0.804,2.424,1.113,3.189L122.358,109.474z M371.447,100.201
				c-2.683,0-4.817,0.968-6.4,2.902s-2.372,4.512-2.372,7.724c0,3.252,0.817,5.781,2.458,7.585c1.635,1.806,3.921,2.708,6.85,2.708
				c1.161,0,2.227-0.091,3.189-0.27c0.965-0.178,2.018-0.517,3.155-1.008v-1.672c-1.337,0.53-2.438,0.88-3.311,1.038
				c-0.872,0.162-1.884,0.243-3.034,0.243c-2.359,0-4.173-0.729-5.442-2.188c-1.268-1.459-1.912-3.575-1.938-6.343h14.521v-1.482
				c0-2.846-0.688-5.096-2.062-6.751C375.694,101.029,373.818,100.201,371.447,100.201z M364.713,109.288
				c0.196-2.41,0.884-4.255,2.059-5.535c1.175-1.277,2.731-1.919,4.675-1.919c1.792,0,3.194,0.659,4.208,1.974
				c1.014,1.318,1.519,3.146,1.519,5.48H364.713z M77.889,100.237c-2.164,0-4.351,0.521-6.564,1.561l0.686,1.593
				c2.003-1.037,3.938-1.557,5.806-1.557c1.729,0,2.985,0.486,3.764,1.466c0.78,0.976,1.169,2.424,1.169,4.338v1.335l-3.839,0.111
				c-3.104,0.062-5.475,0.637-7.112,1.726c-1.64,1.086-2.458,2.612-2.458,4.581c0,1.793,0.55,3.194,1.65,4.208
				c1.099,1.015,2.638,1.521,4.617,1.521c1.458,0,2.723-0.27,3.792-0.807c1.07-0.538,2.112-1.457,3.125-2.755h0.148l0.463,3.189
				h1.353V107.34c0-2.435-0.546-4.227-1.64-5.378C81.756,100.814,80.102,100.237,77.889,100.237z M82.674,112.477
				c0,2.187-0.622,3.898-1.864,5.127c-1.243,1.231-2.939,1.848-5.09,1.848c-1.41,0-2.501-0.353-3.272-1.048
				c-0.773-0.701-1.16-1.679-1.16-2.941c0-1.58,0.604-2.747,1.808-3.494c1.207-0.748,3.225-1.19,6.056-1.327l3.523-0.147V112.477z
				 M389.209,101.101c-0.939,0.601-1.821,1.64-2.649,3.125h-0.132l-0.184-3.635h-1.56v20.156h1.837v-11.126
				c0-2.227,0.551-4.068,1.65-5.525c1.099-1.459,2.511-2.188,4.229-2.188c0.903,0,1.774,0.104,2.615,0.316l0.353-1.765
				c-0.979-0.171-1.892-0.259-2.745-0.259C391.289,100.201,390.151,100.5,389.209,101.101z M29.803,100.201
				c-2.782,0-4.969,0.919-6.563,2.755c-1.595,1.834-2.393,4.397-2.393,7.686c0,2.093,0.358,3.932,1.076,5.527
				c0.717,1.594,1.749,2.819,3.096,3.674c1.348,0.851,2.906,1.277,4.674,1.277c2.805,0,5.005-0.924,6.6-2.773
				c1.596-1.849,2.394-4.415,2.394-7.705c0-3.239-0.789-5.789-2.364-7.649C34.746,101.132,32.573,100.201,29.803,100.201z
				 M34.931,117.124c-1.217,1.549-2.94,2.328-5.165,2.328c-2.226,0-3.947-0.779-5.166-2.328c-1.217-1.553-1.825-3.712-1.825-6.482
				c0-2.794,0.603-4.954,1.807-6.48c1.205-1.525,2.921-2.291,5.146-2.291s3.954,0.768,5.184,2.299
				c1.23,1.534,1.845,3.691,1.845,6.473C36.758,113.412,36.148,115.571,34.931,117.124z M411.341,113.145
				c-0.411-0.668-1.035-1.266-1.862-1.79c-0.828-0.525-2.149-1.115-3.966-1.77c-2.178-0.781-3.64-1.484-4.387-2.116
				c-0.748-0.628-1.123-1.469-1.123-2.521c0-0.963,0.481-1.718,1.446-2.261c0.965-0.546,2.269-0.817,3.913-0.817
				c1.694,0,3.528,0.408,5.508,1.226l0.686-1.668c-1.953-0.817-4.018-1.227-6.193-1.227c-2.275,0-4.045,0.44-5.312,1.316
				c-1.268,0.88-1.901,2.072-1.901,3.58c0,0.952,0.207,1.76,0.621,2.419c0.413,0.662,1.029,1.257,1.844,1.779
				c0.817,0.528,2.232,1.154,4.248,1.886c1.88,0.665,3.23,1.348,4.053,2.039c0.823,0.692,1.231,1.544,1.231,2.558
				c0,1.1-0.515,1.981-1.547,2.644c-1.032,0.66-2.545,0.991-4.534,0.991c-2.251,0-4.39-0.507-6.415-1.521v1.987
				c1.583,0.827,3.72,1.241,6.415,1.241c2.521,0,4.47-0.486,5.841-1.456c1.373-0.971,2.059-2.356,2.059-4.165
				C411.964,114.598,411.757,113.812,411.341,113.145z M13.689,108.258c-1.064-0.688-2.653-1.395-4.766-2.123
				c-2.015-0.717-3.438-1.33-4.266-1.845c-0.828-0.515-1.425-1.089-1.79-1.733c-0.365-0.644-0.547-1.467-0.547-2.468
				c0-1.596,0.594-2.855,1.781-3.781c1.186-0.929,2.781-1.392,4.784-1.392c2.053,0,4.204,0.471,6.454,1.407l0.686-1.63
				c-2.238-0.965-4.63-1.448-7.177-1.448c-2.497,0-4.541,0.642-6.127,1.922c-1.59,1.277-2.384,2.931-2.384,4.958
				c0,1.842,0.529,3.319,1.585,4.424c1.057,1.107,2.971,2.137,5.739,3.088c1.892,0.642,3.326,1.242,4.303,1.801
				c0.977,0.554,1.682,1.169,2.115,1.842c0.431,0.675,0.648,1.523,0.648,2.551c0,1.658-0.652,2.995-1.956,4.015
				c-1.305,1.021-3.069,1.531-5.295,1.531c-3.029,0-5.52-0.414-7.473-1.244v1.894c1.768,0.727,4.309,1.094,7.622,1.094
				c2.756,0,4.966-0.659,6.629-1.984c1.664-1.321,2.494-3.116,2.494-5.377c0-1.234-0.244-2.292-0.732-3.164
				C15.527,109.722,14.752,108.944,13.689,108.258z M52.557,101.87c1.285,0,2.801,0.292,4.543,0.871l0.5-1.632
				c-1.595-0.605-3.263-0.908-5.008-0.908c-2.941,0-5.259,0.932-6.953,2.791c-1.694,1.86-2.54,4.46-2.54,7.799
				c0,3.252,0.816,5.787,2.448,7.603c1.631,1.818,3.886,2.727,6.768,2.727c2.089,0,3.776-0.315,5.063-0.946v-1.705
				c-1.572,0.654-3.272,0.983-5.1,0.983c-2.288,0-4.069-0.771-5.343-2.311c-1.272-1.539-1.909-3.668-1.909-6.389
				c0-2.866,0.636-5.065,1.909-6.592C48.211,102.635,50.084,101.87,52.557,101.87z M324.973,93.209
				c-0.778,0-1.169,0.595-1.169,1.781c0,1.198,0.391,1.798,1.169,1.798c0.383,0,0.683-0.16,0.9-0.48
				c0.215-0.323,0.326-0.761,0.326-1.317c0-0.568-0.111-1.006-0.326-1.316C325.656,93.367,325.356,93.209,324.973,93.209z
				 M63.221,93.209c-0.78,0-1.169,0.595-1.169,1.781c0,1.198,0.39,1.798,1.169,1.798c0.381,0,0.683-0.16,0.899-0.48
				c0.216-0.323,0.324-0.761,0.324-1.317c0-0.568-0.108-1.006-0.324-1.316C63.903,93.367,63.602,93.209,63.221,93.209z
				 M62.312,120.748h1.835v-20.156h-1.835V120.748z M289.851,106.541v-0.108c1.842-0.297,3.241-0.967,4.201-2.013
				c0.957-1.045,1.438-2.351,1.438-3.921c0-2.3-0.786-4.018-2.356-5.155c-1.57-1.136-4.03-1.707-7.38-1.707h-7.436v27.111h8.306
				c3.041,0,5.393-0.673,7.048-2.021s2.486-3.27,2.486-5.766c0-1.868-0.513-3.324-1.531-4.369
				C293.607,107.547,292.016,106.864,289.851,106.541z M280.208,95.304h5.47c2.585,0,4.527,0.409,5.831,1.227
				c1.306,0.814,1.958,2.126,1.958,3.929c0,1.809-0.577,3.133-1.735,3.979c-1.154,0.849-3.006,1.27-5.554,1.27h-5.97V95.304z
				 M286.587,119.079h-6.379v-11.699h5.97c5.292,0,7.938,1.859,7.938,5.582C294.117,117.038,291.607,119.079,286.587,119.079z
				 M332.651,120.748h1.837V91.895h-1.837V120.748z M254.748,100.201c-2.683,0-4.815,0.968-6.398,2.902s-2.373,4.512-2.373,7.724
				c0,3.252,0.817,5.781,2.456,7.585c1.636,1.806,3.924,2.708,6.852,2.708c1.162,0,2.227-0.091,3.189-0.27
				c0.964-0.178,2.016-0.517,3.153-1.008v-1.672c-1.335,0.53-2.438,0.88-3.311,1.038c-0.871,0.162-1.882,0.243-3.032,0.243
				c-2.361,0-4.176-0.729-5.443-2.188c-1.267-1.459-1.911-3.575-1.938-6.343h14.521v-1.482c0-2.846-0.687-5.096-2.059-6.751
				C258.995,101.029,257.121,100.201,254.748,100.201z M248.014,109.288c0.198-2.41,0.886-4.255,2.059-5.535
				c1.175-1.277,2.731-1.919,4.675-1.919c1.792,0,3.195,0.659,4.21,1.974c1.011,1.318,1.519,3.146,1.519,5.48H248.014z
				 M324.066,120.748h1.836v-20.156h-1.836V120.748z M168.682,99.145c0,1.496,0.038,3.021,0.111,4.579h-0.111
				c-0.841-1.283-1.794-2.193-2.855-2.727c-1.063-0.53-2.324-0.797-3.785-0.797c-2.781,0-4.9,0.921-6.361,2.763
				c-1.458,1.845-2.187,4.506-2.187,7.993c0,3.313,0.736,5.836,2.207,7.566c1.472,1.73,3.597,2.597,6.379,2.597
				c2.869,0,5.069-1.148,6.603-3.451h0.147l0.464,3.079h1.206V91.895h-1.817V99.145z M168.682,110.957
				c0,3.042-0.531,5.223-1.596,6.547c-1.062,1.324-2.732,1.984-5.007,1.984c-4.439,0-6.657-2.856-6.657-8.567
				c0-2.943,0.553-5.187,1.659-6.73c1.107-1.547,2.76-2.32,4.96-2.32c2.337,0,4.029,0.686,5.074,2.049
				c1.044,1.368,1.566,3.608,1.566,6.723V110.957z M315.499,111.719c0,2.729-0.566,4.703-1.697,5.913
				c-1.133,1.214-2.897,1.819-5.295,1.819c-1.793,0-3.114-0.464-3.968-1.385s-1.28-2.395-1.28-4.423v-13.053h-1.819v13.167
				c0,4.906,2.295,7.361,6.881,7.361c3.353,0,5.684-1.05,6.992-3.153h0.111l0.334,2.781h1.557v-20.156h-1.815V111.719z
				 M355.258,99.145c0,1.496,0.036,3.021,0.109,4.579h-0.109c-0.841-1.283-1.795-2.193-2.858-2.727
				c-1.062-0.53-2.325-0.797-3.781-0.797c-2.783,0-4.902,0.921-6.363,2.763c-1.459,1.845-2.188,4.506-2.188,7.993
				c0,3.313,0.737,5.836,2.209,7.566s3.599,2.597,6.379,2.597c2.866,0,5.07-1.148,6.604-3.451h0.146l0.465,3.079h1.206V91.895
				h-1.816V99.145z M355.258,110.957c0,3.042-0.532,5.223-1.596,6.547s-2.734,1.984-5.008,1.984c-4.438,0-6.658-2.856-6.658-8.567
				c0-2.943,0.554-5.187,1.658-6.73c1.109-1.547,2.763-2.32,4.964-2.32c2.336,0,4.024,0.686,5.07,2.049
				c1.045,1.368,1.569,3.608,1.569,6.723V110.957z M177.269,120.748h1.836v-20.156h-1.836V120.748z M178.178,93.209
				c-0.78,0-1.169,0.595-1.169,1.781c0,1.198,0.389,1.798,1.169,1.798c0.381,0,0.682-0.16,0.898-0.48
				c0.216-0.323,0.324-0.761,0.324-1.317c0-0.568-0.107-1.006-0.324-1.316C178.86,93.367,178.56,93.209,178.178,93.209z
				 M193.457,100.201c-2.683,0-4.814,0.968-6.397,2.902s-2.374,4.512-2.374,7.724c0,3.252,0.819,5.781,2.458,7.585
				c1.637,1.806,3.921,2.708,6.852,2.708c1.162,0,2.225-0.091,3.189-0.27c0.964-0.178,2.014-0.517,3.152-1.008v-1.672
				c-1.334,0.53-2.438,0.88-3.31,1.038c-0.872,0.162-1.882,0.243-3.032,0.243c-2.361,0-4.176-0.729-5.443-2.188
				c-1.268-1.459-1.913-3.575-1.938-6.343h14.521v-1.482c0-2.846-0.687-5.096-2.059-6.751
				C197.705,101.029,195.831,100.201,193.457,100.201z M186.726,109.288c0.198-2.41,0.884-4.255,2.059-5.535
				c1.173-1.277,2.732-1.919,4.672-1.919c1.794,0,3.196,0.659,4.211,1.974c1.014,1.318,1.521,3.146,1.521,5.48H186.726z
				 M237.388,101.87c1.287,0,2.803,0.292,4.543,0.871l0.502-1.632c-1.595-0.605-3.263-0.908-5.008-0.908
				c-2.942,0-5.259,0.932-6.953,2.791c-1.694,1.86-2.541,4.46-2.541,7.799c0,3.252,0.815,5.787,2.448,7.603
				c1.632,1.818,3.888,2.727,6.77,2.727c2.089,0,3.776-0.315,5.063-0.946v-1.705c-1.57,0.654-3.273,0.983-5.1,0.983
				c-2.29,0-4.069-0.771-5.344-2.311s-1.91-3.668-1.91-6.389c0-2.866,0.636-5.065,1.91-6.592
				C233.043,102.635,234.917,101.87,237.388,101.87z M215.71,100.201c-3.351,0-5.682,1.053-6.991,3.15h-0.111l-0.353-2.76h-1.556
				v20.156h1.834v-11.126c0-2.731,0.56-4.705,1.677-5.924c1.12-1.218,2.886-1.828,5.296-1.828c1.79,0,3.115,0.463,3.968,1.384
				c0.854,0.918,1.279,2.393,1.279,4.421v13.073h1.816v-13.185C222.571,102.656,220.284,100.201,215.71,100.201z"/>
		</g>
	</g>
	<g>
		<g>
			<path fill="#FFFFFF" d="M50.927,61.434c-5.43-1.263-7.09-4.548-7.021-15.427V0.003L35.164,0l0.004,45.983
				c0,13.346,2.282,22.652,15.76,24.167C50.984,67.404,50.807,63.555,50.927,61.434z M139.271,61.952
				c-9.463,0-17.163-7.697-17.163-17.152c0-9.458,7.699-17.154,17.163-17.154c6.794,0,12.664,3.979,15.435,9.728
				c8.73-0.177,0,0,8.73-0.177c-3.233-10.271-12.843-17.744-24.166-17.744c-13.982,0-25.354,11.369-25.354,25.341
				c0,13.981,11.372,25.357,25.354,25.357c11.757,0,21.672-8.067,24.511-18.955c-3.852-0.215-6.296-0.2-8.465-0.4
				C152.872,57.299,146.616,61.952,139.271,61.952z M80.843,19.453c-13.974,0-25.363,11.371-25.363,25.352
				c0,13.977,11.389,25.347,25.363,25.347c13.976,0,25.324-11.37,25.324-25.347C106.167,30.823,94.819,19.453,80.843,19.453z
				 M80.843,61.965c-9.474,0-17.162-7.706-17.162-17.142c0-9.471,7.688-17.169,17.162-17.169c9.464,0,17.141,7.698,17.141,17.169
				C97.983,54.26,90.307,61.965,80.843,61.965z M209.62,19.45h-12.652l-15.872,15.643l-0.169-0.396V0.562h-8.946v69.588h8.946
				V47.689l0.185,0.044l22.098,22.417h12.65l-28.442-28.497L209.62,19.45z M335.977,26.533c7.646,0.344,12.918,2.999,13.604,9.741
				c5.492,0,6.762,0.149,8.958-0.088c0-9.847-7.703-18.157-23.205-18.157c-13.148,0-21.558,6.348-21.558,14.934
				c0,3.901,1.021,7.654,4.658,10.386c4.92,3.31,8.549,3.462,23.239,4.88c4.25,1.075,8.055,2.579,7.907,6.755
				c-1.34,4.953-6.979,6.382-14.86,6.443c-6.984,0.058-12.858-4.323-13.602-11.32c-8.409-0.12-2.449-0.098-9.304-0.062
				c0,9.604,9.511,19.83,22.91,20.099c13.146,0.259,23.813-6.953,23.813-15.542c0-3.907-1.875-8.184-5.525-10.918
				c-6.564-4.765-19.289-3.323-25.957-5.201c-3.175-1.002-4.739-2.736-4.597-4.835C322.767,29.085,328.106,26.182,335.977,26.533z
				 M294.624,47.056c0,8.146-6.594,14.761-14.762,14.761c-8.129,0-14.759-6.615-14.759-14.761V19.018h-8.336v28.016
				c0,12.764,10.34,23.117,23.095,23.117c12.785,0,23.119-10.354,23.119-23.117V19.018h-8.357V47.056z M390.394,19.018
				c-5.533,0-10.646,1.95-14.623,5.197V0.562h-8.944v69.588h8.944V39.988c1.037-7.138,7.419-12.636,14.824-12.636
				c8.169,0,15.001,6.615,15.001,14.761v28.038h7.951V42.134C413.547,29.371,403.177,19.018,390.394,19.018z M245.314,17.844
				c-13.047,0-23.629,10.595-23.629,23.648v28.659h8.527V41.472c0-8.335,6.782-15.098,15.102-15.098
				c0.257,0,4.849-7.988,4.449-8.084C248.597,18.007,247.126,17.844,245.314,17.844z M0,24.165v45.986h8.733V59.572h16.67
				l0.001-8.729H8.735V24.143c0-8.524,6.901-15.427,15.423-15.427c0.449,0,0.886,0.044,1.324,0.085V0.038
				C25.044,0.019,24.605,0,24.159,0C10.816,0.002,0,10.819,0,24.165z"/>
		</g>
	</g>
</g>
</svg>
