<svg xmlns="http://www.w3.org/2000/svg" width="413.547" height="121.12"><path fill="#fff" d="M146.1 111.72c0 2.73-.57 4.7-1.7 5.9-1.13 1.23-2.9 1.83-5.3 1.83-1.8 0-3.1-.46-3.96-1.38-.86-.93-1.3-2.4-1.3-4.43V100.6h-1.8v13.16c0 4.9 2.3 7.36 6.88 7.36 3.35 0 5.68-1.05 7-3.16h.1l.33 2.8h1.56v-20.17h-1.8v11.12zm-55.08 9.03h1.83V91.9h-1.83v28.85zM117 93.53l-10.9 27.22h2.1l3.77-9.57H123l3.76 9.57h2.13l-10.7-27.22H117zm5.36 15.94h-9.7l3.8-9.73c.4-.97.76-2.04 1.1-3.23.43 1.37.8 2.44 1.1 3.2l3.7 9.77zm249.1-9.27c-2.7 0-4.83.97-6.4 2.9s-2.38 4.5-2.38 7.73c0 3.25.8 5.78 2.45 7.58 1.64 1.82 3.92 2.72 6.85 2.72 1.16 0 2.23-.1 3.2-.27.96-.18 2-.52 3.15-1v-1.68c-1.34.53-2.44.88-3.3 1.04-.9.17-1.9.25-3.05.25-2.36 0-4.17-.73-5.44-2.2-1.27-1.45-1.9-3.56-1.94-6.33h14.52v-1.48c0-2.85-.68-5.1-2.06-6.75-1.37-1.67-3.24-2.5-5.6-2.5zm-6.75 9.1c.2-2.42.9-4.27 2.07-5.55 1.18-1.27 2.73-1.92 4.68-1.92 1.8 0 3.2.66 4.2 1.98 1.02 1.33 1.52 3.15 1.52 5.5H364.7zm-286.8-9.06c-2.17 0-4.36.52-6.57 1.56l.68 1.6c2-1.05 3.95-1.57 5.82-1.57 1.73 0 2.98.5 3.76 1.47.78.98 1.17 2.42 1.17 4.34v1.33l-3.84.1c-3.1.08-5.46.65-7.1 1.74-1.64 1.1-2.46 2.62-2.46 4.6 0 1.78.55 3.18 1.65 4.2 1.1 1 2.63 1.52 4.6 1.52 1.47 0 2.73-.27 3.8-.8 1.07-.55 2.1-1.46 3.13-2.76h.14l.47 3.2h1.35v-13.42c0-2.44-.56-4.23-1.65-5.38-1.1-1.15-2.75-1.72-4.96-1.72zm4.77 12.24c0 2.18-.62 3.9-1.86 5.12-1.23 1.24-2.93 1.85-5.08 1.85-1.4 0-2.5-.35-3.27-1.05-.78-.7-1.16-1.68-1.16-2.94 0-1.58.6-2.74 1.8-3.5 1.2-.74 3.22-1.18 6.05-1.32l3.52-.15v1.98zM389.2 101.1c-.93.6-1.8 1.64-2.64 3.13h-.13l-.2-3.64h-1.55v20.15h1.84v-11.13c0-2.23.55-4.07 1.65-5.52 1.1-1.46 2.5-2.2 4.23-2.2.9 0 1.77.1 2.6.32l.37-1.76c-.98-.17-1.9-.26-2.75-.26-1.33 0-2.47.3-3.4.9zm-359.4-.9c-2.78 0-4.97.92-6.56 2.76-1.6 1.83-2.4 4.4-2.4 7.68 0 2.1.36 3.93 1.08 5.53.72 1.6 1.75 2.82 3.1 3.67 1.35.85 2.9 1.28 4.67 1.28 2.8 0 5-.92 6.6-2.77 1.6-1.85 2.4-4.42 2.4-7.7 0-3.25-.8-5.8-2.38-7.66-1.57-1.87-3.75-2.8-6.52-2.8zm5.13 16.92c-1.22 1.55-2.94 2.33-5.16 2.33-2.23 0-3.95-.78-5.17-2.33-1.22-1.55-1.83-3.7-1.83-6.48 0-2.8.6-4.95 1.8-6.48 1.22-1.52 2.93-2.3 5.16-2.3s3.95.78 5.18 2.3c1.24 1.54 1.86 3.7 1.86 6.48 0 2.77-.6 4.93-1.83 6.48zm376.4-3.98c-.4-.66-1.02-1.26-1.85-1.8-.83-.5-2.15-1.1-3.97-1.76-2.17-.78-3.63-1.48-4.37-2.1-.75-.64-1.13-1.48-1.13-2.53 0-.97.48-1.72 1.45-2.26.96-.56 2.27-.83 3.9-.83 1.7 0 3.54.4 5.52 1.23l.7-1.67c-1.97-.82-4.03-1.23-6.2-1.23-2.28 0-4.05.44-5.32 1.32-1.27.88-1.9 2.07-1.9 3.58 0 .95.2 1.76.62 2.42.4.66 1.03 1.25 1.84 1.77.83.52 2.25 1.15 4.26 1.88 1.88.67 3.23 1.35 4.06 2.04.82.7 1.23 1.54 1.23 2.56 0 1.1-.52 1.98-1.55 2.64-1.03.66-2.55 1-4.53 1-2.26 0-4.4-.5-6.42-1.53v1.98c1.58.83 3.72 1.24 6.42 1.24 2.52 0 4.47-.5 5.84-1.46 1.38-.97 2.07-2.35 2.07-4.16 0-.9-.2-1.7-.63-2.36zM13.7 108.27c-1.07-.7-2.66-1.4-4.78-2.13-2-.7-3.43-1.33-4.26-1.84-.83-.53-1.43-1.1-1.8-1.74-.36-.65-.54-1.47-.54-2.47 0-1.6.6-2.87 1.78-3.8 1.2-.92 2.78-1.38 4.8-1.38 2.04 0 4.2.47 6.44 1.4l.7-1.63c-2.25-.97-4.64-1.46-7.2-1.46-2.5 0-4.53.65-6.12 1.93-1.6 1.27-2.38 2.93-2.38 4.95 0 1.85.53 3.32 1.58 4.43 1.06 1.1 2.97 2.14 5.74 3.1 1.9.63 3.33 1.23 4.3 1.8.98.54 1.7 1.16 2.12 1.83.43.67.65 1.52.65 2.55 0 1.66-.65 3-1.96 4.02-1.3 1.02-3.07 1.53-5.3 1.53-3.02 0-5.5-.42-7.47-1.25v1.9c1.77.72 4.3 1.1 7.63 1.1 2.75 0 4.96-.67 6.62-2 1.67-1.3 2.5-3.1 2.5-5.37 0-1.23-.25-2.3-.73-3.16-.5-.88-1.27-1.66-2.33-2.34zm38.86-6.4c1.28 0 2.8.3 4.54.88l.5-1.63c-1.6-.6-3.26-.9-5-.9-2.95 0-5.27.93-6.96 2.8-1.7 1.85-2.54 4.45-2.54 7.8 0 3.24.8 5.78 2.45 7.6 1.63 1.8 3.88 2.72 6.76 2.72 2.1 0 3.8-.3 5.08-.95v-1.7c-1.57.65-3.27.98-5.1.98-2.3 0-4.07-.77-5.35-2.3-1.27-1.55-1.9-3.68-1.9-6.4 0-2.86.63-5.06 1.9-6.6 1.28-1.52 3.15-2.28 5.63-2.28zm272.4-8.65c-.76 0-1.16.6-1.16 1.8 0 1.2.4 1.8 1.17 1.8.4 0 .7-.17.9-.5.22-.3.33-.75.33-1.3 0-.58-.1-1-.33-1.32-.2-.3-.5-.47-.9-.47zm-261.74 0c-.78 0-1.17.6-1.17 1.8 0 1.2.4 1.8 1.17 1.8.38 0 .68-.17.9-.5.22-.3.32-.75.32-1.3 0-.58-.1-1-.32-1.32-.22-.3-.52-.47-.9-.47zm-.9 27.55h1.83V100.6H62.3v20.15zm227.53-14.2v-.12c1.84-.3 3.24-.96 4.2-2 .96-1.06 1.44-2.36 1.44-3.93 0-2.3-.8-4.02-2.37-5.16-1.57-1.13-4.03-1.7-7.38-1.7h-7.43v27.1h8.3c3.05 0 5.4-.67 7.05-2s2.5-3.28 2.5-5.78c0-1.87-.53-3.32-1.54-4.37-1.02-1.05-2.6-1.74-4.78-2.06zM280.2 95.3h5.48c2.58 0 4.53.4 5.83 1.23 1.32.82 1.97 2.13 1.97 3.93 0 1.8-.58 3.13-1.74 3.98-1.15.85-3 1.27-5.55 1.27h-5.97V95.3zm6.4 23.78h-6.4v-11.7h5.98c5.3 0 7.94 1.86 7.94 5.58 0 4.08-2.5 6.12-7.53 6.12zm46.05 1.67h1.84V91.9h-1.85v28.85zm-77.9-20.55c-2.7 0-4.82.97-6.4 2.9s-2.37 4.5-2.37 7.73c0 3.25.8 5.78 2.45 7.58 1.64 1.82 3.93 2.72 6.85 2.72 1.17 0 2.23-.1 3.2-.27.96-.18 2-.52 3.15-1v-1.68c-1.34.53-2.44.88-3.3 1.04-.88.17-1.9.25-3.05.25-2.36 0-4.17-.73-5.44-2.2-1.27-1.45-1.9-3.56-1.94-6.33h14.52v-1.48c0-2.85-.68-5.1-2.05-6.75-1.38-1.67-3.25-2.5-5.62-2.5zm-6.74 9.1c.2-2.42.9-4.27 2.07-5.55 1.18-1.27 2.73-1.92 4.68-1.92 1.8 0 3.2.66 4.2 1.98 1.02 1.33 1.53 3.15 1.53 5.5H248zm76.07 11.45h1.83V100.6h-1.83v20.15zm-155.4-21.6c0 1.5.05 3.02.12 4.57h-.12c-.84-1.28-1.8-2.2-2.85-2.72-1.07-.53-2.33-.8-3.8-.8-2.77 0-4.9.92-6.35 2.76-1.46 1.85-2.2 4.5-2.2 8 0 3.3.75 5.83 2.22 7.56 1.47 1.73 3.6 2.6 6.38 2.6 2.87 0 5.07-1.15 6.6-3.45h.15l.46 3.08h1.2V91.9h-1.82v7.24zm0 11.8c0 3.05-.52 5.23-1.58 6.55-1.08 1.33-2.75 2-5.02 2-4.44 0-6.66-2.87-6.66-8.58 0-2.94.55-5.2 1.66-6.73 1.1-1.56 2.76-2.33 4.96-2.33 2.34 0 4.03.7 5.07 2.05 1.06 1.37 1.58 3.6 1.58 6.72v.32zm146.83.77c0 2.73-.57 4.7-1.7 5.9-1.13 1.23-2.9 1.83-5.3 1.83-1.8 0-3.1-.46-3.96-1.38s-1.28-2.4-1.28-4.43V100.6h-1.82v13.16c0 4.9 2.3 7.36 6.88 7.36 3.35 0 5.7-1.05 7-3.16h.1l.34 2.8h1.56v-20.17h-1.82v11.12zm39.76-12.58c0 1.5.03 3.03.1 4.58h-.1c-.84-1.28-1.8-2.2-2.86-2.72-1.06-.53-2.33-.8-3.78-.8-2.78 0-4.9.92-6.36 2.76-1.46 1.85-2.2 4.5-2.2 8 0 3.3.74 5.83 2.22 7.56s3.6 2.6 6.38 2.6c2.86 0 5.07-1.15 6.6-3.45h.15l.47 3.08h1.2V91.9h-1.8v7.24zm0 11.82c0 3.04-.53 5.22-1.6 6.54s-2.73 2-5 2c-4.44 0-6.66-2.87-6.66-8.58 0-2.94.55-5.2 1.65-6.73 1.1-1.56 2.77-2.33 4.97-2.33 2.33 0 4.02.7 5.07 2.05 1.03 1.37 1.56 3.6 1.56 6.72v.32zm-178 9.8h1.85v-20.17h-1.83v20.15zm.92-27.55c-.78 0-1.17.6-1.17 1.8 0 1.2.4 1.8 1.18 1.8.38 0 .68-.17.9-.5.2-.3.32-.75.32-1.3 0-.58-.1-1-.32-1.32-.22-.3-.52-.47-.9-.47zm15.28 7c-2.7 0-4.82.97-6.4 2.9s-2.37 4.5-2.37 7.73c0 3.25.8 5.78 2.44 7.58 1.64 1.82 3.93 2.72 6.86 2.72 1.16 0 2.22-.1 3.2-.27.95-.18 2-.52 3.14-1v-1.68c-1.34.53-2.44.88-3.3 1.04-.9.17-1.9.25-3.05.25-2.37 0-4.18-.73-5.45-2.2-1.27-1.45-1.9-3.56-1.94-6.33h14.53v-1.48c0-2.85-.68-5.1-2.05-6.75-1.38-1.67-3.25-2.5-5.62-2.5zm-6.73 9.1c.2-2.42.88-4.27 2.06-5.55 1.16-1.27 2.72-1.92 4.66-1.92 1.8 0 3.2.66 4.2 1.98 1.02 1.33 1.53 3.15 1.53 5.5h-12.47zm50.66-7.43c1.27 0 2.8.3 4.53.87l.5-1.63c-1.6-.6-3.26-.9-5-.9-2.95 0-5.26.93-6.96 2.8-1.7 1.85-2.54 4.45-2.54 7.8 0 3.24.82 5.78 2.45 7.6 1.63 1.8 3.9 2.72 6.77 2.72 2.1 0 3.78-.3 5.06-.95v-1.7c-1.56.65-3.26.98-5.1.98-2.28 0-4.06-.77-5.33-2.3s-1.9-3.68-1.9-6.4c0-2.86.62-5.06 1.9-6.6 1.27-1.52 3.15-2.28 5.62-2.28zm-21.7-1.67c-3.34 0-5.67 1.05-6.98 3.15h-.1l-.37-2.76h-1.55v20.15h1.83v-11.13c0-2.73.56-4.7 1.68-5.92 1.13-1.22 2.9-1.83 5.3-1.83 1.8 0 3.12.46 3.97 1.38.86.92 1.28 2.4 1.28 4.42v13.08h1.82v-13.2c0-4.9-2.3-7.35-6.86-7.35zM50.93 61.43C45.5 60.17 43.83 56.9 43.9 46V0h-8.74v45.98c0 13.35 2.3 22.66 15.77 24.17.05-2.75-.12-6.6 0-8.72zm88.34.52c-9.46 0-17.16-7.7-17.16-17.15 0-9.46 7.7-17.15 17.17-17.15 6.8 0 12.66 3.97 15.44 9.72 8.74-.17 0 0 8.74-.17-3.24-10.27-12.85-17.75-24.17-17.75-13.98 0-25.35 11.37-25.35 25.34s11.37 25.35 25.35 25.35c11.76 0 21.67-8.07 24.5-18.95-3.84-.22-6.3-.2-8.45-.4-2.45 6.5-8.7 11.15-16.05 11.15zm-58.43-42.5c-13.97 0-25.36 11.37-25.36 25.36 0 13.98 11.4 25.35 25.36 25.35 13.98 0 25.33-11.37 25.33-25.34 0-13.98-11.35-25.35-25.33-25.35zm0 42.52c-9.47 0-17.16-7.7-17.16-17.15 0-9.47 7.7-17.17 17.16-17.17 9.47 0 17.14 7.7 17.14 17.17 0 9.44-7.67 17.15-17.14 17.15zm128.78-42.52h-12.65L181.1 35.1l-.17-.4V.56h-8.95v69.6h8.95V47.68l.18.03 22.1 22.42h12.66l-28.44-28.5 22.2-22.2zm126.36 7.08c7.64.35 12.9 3 13.6 9.74 5.5 0 6.76.15 8.96-.08 0-9.86-7.7-18.17-23.2-18.17-13.15 0-21.56 6.35-21.56 14.93 0 3.9 1.02 7.66 4.65 10.4 4.92 3.3 8.55 3.45 23.24 4.87 4.25 1.07 8.06 2.58 7.9 6.75-1.33 4.96-6.97 6.4-14.85 6.45-6.98.06-12.86-4.33-13.6-11.32-8.4-.1-2.45-.1-9.3-.05 0 9.6 9.5 19.83 22.9 20.1 13.15.25 23.82-6.96 23.82-15.55 0-3.9-1.88-8.18-5.53-10.92-6.55-4.76-19.28-3.32-25.94-5.2-3.18-1-4.74-2.73-4.6-4.83.3-4.56 5.65-7.47 13.52-7.12zm-41.36 20.53c0 8.14-6.6 14.76-14.76 14.76-8.13 0-14.76-6.62-14.76-14.76V19.02h-8.33v28c0 12.78 10.34 23.13 23.1 23.13 12.78 0 23.1-10.35 23.1-23.12v-28h-8.35v28.03zm95.77-28.04c-5.54 0-10.65 1.95-14.63 5.2V.55h-8.94v69.6h8.94V39.98c1.04-7.15 7.42-12.65 14.83-12.65 8.16 0 15 6.62 15 14.76v28.05h7.95V42.13c0-12.76-10.37-23.1-23.16-23.1zm-145.1-1.18c-13.03 0-23.62 10.6-23.62 23.65v28.65h8.53V41.47c0-8.33 6.8-15.1 15.1-15.1.27 0 4.86-7.98 4.46-8.08-1.16-.3-2.63-.46-4.45-.46zM0 24.16v46h8.73v-10.6H25.4v-8.72H8.74v-26.7c0-8.52 6.9-15.42 15.42-15.42.45 0 .88.04 1.32.08V.04C25.04.02 24.6 0 24.16 0 10.82 0 0 10.82 0 24.16z"/></svg>