<?xml version="1.0" encoding="utf-8"?>
<!-- Generator: Adobe Illustrator 15.1.0, SVG Export Plug-In . SVG Version: 6.00 Build 0)  -->
<!DOCTYPE svg PUBLIC "-//W3C//DTD SVG 1.1//EN" "http://www.w3.org/Graphics/SVG/1.1/DTD/svg11.dtd">
<svg version="1.1" id="Layer_1" xmlns="http://www.w3.org/2000/svg" xmlns:xlink="http://www.w3.org/1999/xlink" x="0px" y="0px"
	 width="414.721px" height="129.82px" viewBox="0 0 414.721 129.82" enable-background="new 0 0 414.721 129.82"
	 xml:space="preserve">
<g>
	<g>
		<g>
			<path fill="#FFFFFF" d="M51.754,61.434c-5.43-1.263-7.09-4.548-7.021-15.427V0.003L35.991,0l0.004,45.983
				c0,13.346,2.282,22.651,15.76,24.167C51.811,67.404,51.634,63.555,51.754,61.434z M140.098,61.953
				c-9.463,0-17.163-7.698-17.163-17.153c0-9.458,7.699-17.154,17.163-17.154c6.794,0,12.664,3.979,15.435,9.728
				c8.73-0.177,0,0,8.73-0.177c-3.233-10.271-12.843-17.744-24.166-17.744c-13.982,0-25.354,11.369-25.354,25.341
				c0,13.981,11.372,25.357,25.354,25.357c11.757,0,21.672-8.067,24.511-18.955c-3.853-0.215-6.296-0.2-8.465-0.4
				C153.699,57.299,147.443,61.953,140.098,61.953z M81.67,19.453c-13.974,0-25.363,11.371-25.363,25.352
				c0,13.977,11.389,25.347,25.363,25.347c13.976,0,25.324-11.37,25.324-25.347C106.994,30.823,95.646,19.453,81.67,19.453z
				 M81.67,61.964c-9.474,0-17.162-7.706-17.162-17.141c0-9.471,7.688-17.169,17.162-17.169c9.464,0,17.141,7.698,17.141,17.169
				C98.81,54.26,91.134,61.964,81.67,61.964z M210.447,19.45h-12.652l-15.872,15.643l-0.169-0.396V0.562h-8.946V70.15h8.946V47.689
				l0.185,0.044l22.098,22.417h12.649l-28.441-28.497L210.447,19.45z M336.804,26.533c7.646,0.344,12.918,2.999,13.604,9.741
				c5.492,0,6.762,0.149,8.958-0.088c0-9.847-7.703-18.157-23.205-18.157c-13.148,0-21.559,6.348-21.559,14.934
				c0,3.901,1.021,7.654,4.658,10.386c4.92,3.31,8.549,3.462,23.239,4.88c4.25,1.075,8.056,2.579,7.907,6.755
				c-1.34,4.953-6.979,6.383-14.859,6.443c-6.984,0.058-12.858-4.323-13.603-11.32c-8.409-0.12-2.449-0.098-9.304-0.062
				c0,9.604,9.511,19.83,22.91,20.099c13.146,0.259,23.812-6.953,23.812-15.542c0-3.907-1.875-8.184-5.525-10.918
				c-6.563-4.765-19.289-3.323-25.957-5.201c-3.175-1.002-4.738-2.736-4.597-4.835C323.595,29.085,328.933,26.182,336.804,26.533z
				 M295.451,47.056c0,8.146-6.594,14.761-14.763,14.761c-8.129,0-14.758-6.615-14.758-14.761V19.018h-8.336v28.016
				c0,12.764,10.34,23.117,23.094,23.117c12.785,0,23.119-10.354,23.119-23.117V19.018h-8.356V47.056z M391.222,19.018
				c-5.533,0-10.646,1.95-14.623,5.197V0.562h-8.944V70.15h8.944V39.988c1.037-7.138,7.418-12.636,14.824-12.636
				c8.168,0,15,6.615,15,14.761v28.038h7.951V42.134C414.374,29.371,404.004,19.018,391.222,19.018z M246.142,17.844
				c-13.047,0-23.629,10.595-23.629,23.648v28.659h8.526V41.472c0-8.335,6.782-15.098,15.103-15.098
				c0.257,0,4.849-7.988,4.449-8.084C249.425,18.007,247.953,17.844,246.142,17.844z M0.827,24.165v45.986H9.56V59.572h16.67
				l0.001-8.729H9.562v-26.7c0-8.524,6.901-15.427,15.423-15.427c0.449,0,0.886,0.044,1.324,0.085V0.038
				C25.871,0.019,25.432,0,24.986,0C11.643,0.002,0.827,10.819,0.827,24.165z"/>
		</g>
	</g>
	<g>
		<g>
			<path fill="#FFFFFF" d="M119.488,100.357c-2.662,0-4.778,0.961-6.349,2.881s-2.356,4.475-2.356,7.665
				c0,3.229,0.813,5.736,2.438,7.528c1.626,1.791,3.893,2.687,6.8,2.687c1.154,0,2.209-0.09,3.166-0.267
				c0.958-0.178,2-0.512,3.129-1.003v-1.657c-1.325,0.528-2.42,0.872-3.285,1.031c-0.865,0.159-1.868,0.239-3.01,0.239
				c-2.343,0-4.144-0.724-5.401-2.173c-1.258-1.446-1.899-3.544-1.923-6.293h14.411v-1.473c0-2.822-0.682-5.055-2.043-6.699
				C123.703,101.18,121.845,100.357,119.488,100.357z M112.808,109.375c0.196-2.393,0.877-4.224,2.042-5.493
				s2.712-1.905,4.638-1.905c1.779,0,3.172,0.653,4.178,1.961c1.006,1.306,1.509,3.119,1.509,5.438H112.808z M139.567,100.394
				c-2.147,0-4.318,0.516-6.515,1.546l0.682,1.583c1.987-1.031,3.908-1.546,5.76-1.546c1.718,0,2.963,0.485,3.736,1.454
				s1.159,2.405,1.159,4.307v1.325l-3.809,0.11c-3.08,0.062-5.432,0.632-7.058,1.712c-1.626,1.079-2.439,2.595-2.439,4.545
				c0,1.78,0.546,3.173,1.638,4.179c1.092,1.007,2.62,1.509,4.583,1.509c1.448,0,2.702-0.267,3.764-0.801
				c1.061-0.533,2.095-1.444,3.101-2.732h0.147l0.46,3.165h1.344v-13.306c0-2.418-0.543-4.197-1.629-5.338
				C143.405,100.964,141.764,100.394,139.567,100.394z M144.316,112.542c0,2.172-0.617,3.868-1.85,5.088
				c-1.233,1.222-2.917,1.832-5.052,1.832c-1.399,0-2.482-0.347-3.249-1.04c-0.767-0.692-1.15-1.666-1.15-2.917
				c0-1.57,0.598-2.728,1.794-3.47s3.199-1.181,6.009-1.315l3.497-0.147V112.542z M100.219,106.652v-0.11
				c1.828-0.294,3.218-0.96,4.168-1.997c0.951-1.036,1.427-2.334,1.427-3.893c0-2.282-0.779-3.987-2.337-5.116
				c-1.559-1.129-4-1.694-7.325-1.694h-7.38v26.908h8.245c3.019,0,5.35-0.668,6.993-2.006c1.645-1.337,2.467-3.246,2.467-5.724
				c0-1.854-0.506-3.298-1.519-4.334C103.946,107.648,102.366,106.971,100.219,106.652z M90.648,95.499h5.429
				c2.565,0,4.494,0.405,5.789,1.215c1.294,0.811,1.942,2.11,1.942,3.902c0,1.791-0.574,3.107-1.721,3.947
				c-1.147,0.841-2.984,1.261-5.513,1.261h-5.926V95.499z M96.979,119.093h-6.331V107.48h5.926c5.252,0,7.877,1.847,7.877,5.54
				C104.452,117.069,101.961,119.093,96.979,119.093z M166.328,111.787c0,2.712-0.562,4.668-1.684,5.871s-2.875,1.804-5.254,1.804
				c-1.779,0-3.092-0.457-3.938-1.37c-0.847-0.915-1.27-2.378-1.27-4.392v-12.956h-1.804v13.067c0,4.871,2.276,7.307,6.828,7.307
				c3.325,0,5.638-1.042,6.938-3.129h0.111l0.331,2.761h1.545v-20.006h-1.803V111.787z M13.755,106.652v-0.11
				c1.828-0.294,3.217-0.96,4.168-1.997c0.951-1.036,1.427-2.334,1.427-3.893c0-2.282-0.78-3.987-2.337-5.116
				c-1.559-1.129-4-1.694-7.325-1.694h-7.38v26.908h8.246c3.018,0,5.349-0.668,6.994-2.006c1.644-1.337,2.466-3.246,2.466-5.724
				c0-1.854-0.507-3.298-1.519-4.334C17.482,107.648,15.902,106.971,13.755,106.652z M4.185,95.499h5.429
				c2.564,0,4.494,0.405,5.788,1.215c1.294,0.811,1.942,2.11,1.942,3.902c0,1.791-0.574,3.107-1.721,3.947
				c-1.147,0.841-2.985,1.261-5.512,1.261H4.185V95.499z M10.516,119.093H4.185V107.48h5.926c5.251,0,7.877,1.847,7.877,5.54
				C17.988,117.069,15.497,119.093,10.516,119.093z M33.208,100.357c-2.76,0-4.932,0.912-6.515,2.733
				c-1.583,1.822-2.374,4.365-2.374,7.629c0,2.074,0.355,3.901,1.067,5.484c0.711,1.582,1.736,2.798,3.073,3.645
				c1.337,0.847,2.884,1.27,4.638,1.27c2.785,0,4.97-0.917,6.552-2.751c1.583-1.834,2.375-4.384,2.375-7.647
				c0-3.215-0.782-5.746-2.347-7.592C38.113,101.281,35.957,100.357,33.208,100.357z M38.297,117.152
				c-1.208,1.539-2.917,2.31-5.125,2.31c-2.208,0-3.917-0.771-5.125-2.31c-1.209-1.539-1.813-3.684-1.813-6.433
				c0-2.772,0.598-4.917,1.794-6.433c1.197-1.516,2.899-2.272,5.107-2.272c2.208,0,3.923,0.76,5.145,2.281
				c1.22,1.522,1.831,3.663,1.831,6.424C40.11,113.468,39.505,115.613,38.297,117.152z M47.563,120.75h1.823V92.113h-1.823V120.75z
				 M70,99.308c0,1.485,0.037,3,0.11,4.547H70c-0.835-1.277-1.78-2.178-2.834-2.706c-1.056-0.526-2.307-0.792-3.755-0.792
				c-2.761,0-4.865,0.915-6.312,2.742c-1.448,1.829-2.172,4.473-2.172,7.933c0,3.288,0.73,5.792,2.19,7.51
				c1.459,1.718,3.57,2.576,6.331,2.576c2.847,0,5.03-1.141,6.553-3.424h0.147l0.46,3.056h1.196V92.113H70V99.308z M70,111.032
				c0,3.019-0.529,5.185-1.583,6.497c-1.055,1.312-2.712,1.969-4.97,1.969c-4.405,0-6.607-2.833-6.607-8.502
				c0-2.92,0.549-5.147,1.647-6.682c1.098-1.533,2.739-2.3,4.923-2.3c2.319,0,3.997,0.678,5.033,2.033
				c1.037,1.356,1.556,3.579,1.556,6.672V111.032z M177.573,118.394c-0.54-0.736-0.81-1.872-0.81-3.404v-12.663h5.871v-1.583h-5.871
				v-4.84h-0.939l-0.92,4.527l-2.963,0.828v1.067h2.963v12.92c0,2.024,0.42,3.509,1.261,4.454c0.84,0.944,2.145,1.417,3.911,1.417
				c1.153,0,2.172-0.147,3.055-0.441v-1.472c-0.859,0.195-1.865,0.293-3.019,0.293C178.959,119.498,178.113,119.13,177.573,118.394z
				 M366.533,120.75h1.82v-20.006h-1.82V120.75z M304.804,101.25c-0.933,0.595-1.81,1.629-2.631,3.102h-0.129l-0.186-3.608h-1.546
				v20.006h1.823v-11.043c0-2.209,0.545-4.036,1.637-5.484s2.491-2.172,4.197-2.172c0.895,0,1.76,0.104,2.596,0.312l0.349-1.747
				c-0.97-0.173-1.878-0.259-2.725-0.259C306.864,100.357,305.736,100.655,304.804,101.25z M329.188,100.744h-2.207l-10.214,11.227
				h-0.092l0.128-5.502V92.113h-1.823v28.637h1.823v-7.123l3.275-2.981l7.602,10.104h2.189l-8.559-11.465L329.188,100.744z
				 M356.647,118.394c-0.539-0.736-0.809-1.872-0.809-3.404v-12.663h5.871v-1.583h-5.871v-4.84h-0.939l-0.92,4.527l-2.962,0.828
				v1.067h2.962v12.92c0,2.024,0.42,3.509,1.262,4.454c0.839,0.944,2.143,1.417,3.911,1.417c1.153,0,2.172-0.147,3.054-0.441v-1.472
				c-0.858,0.195-1.865,0.293-3.018,0.293S357.188,119.13,356.647,118.394z M367.435,93.419c-0.773,0-1.159,0.589-1.159,1.766
				c0,1.19,0.386,1.786,1.159,1.786c0.379,0,0.678-0.158,0.892-0.479c0.215-0.318,0.323-0.754,0.323-1.307
				c0-0.564-0.108-0.999-0.323-1.306C368.112,93.573,367.813,93.419,367.435,93.419z M412.894,100.744h-6.405
				c-0.724-0.258-1.743-0.387-3.056-0.387c-2.159,0-3.875,0.605-5.144,1.813c-1.271,1.209-1.905,2.813-1.905,4.812
				c0,1.325,0.325,2.5,0.975,3.524c0.649,1.025,1.561,1.776,2.725,2.254c-1.705,1.02-2.559,2.197-2.559,3.534
				c0,0.614,0.182,1.157,0.542,1.629c0.363,0.473,0.846,0.837,1.447,1.096c-1.462,0.332-2.617,0.95-3.47,1.858
				c-0.854,0.907-1.279,2.049-1.279,3.423c0,1.729,0.689,3.08,2.071,4.05c1.38,0.969,3.327,1.454,5.843,1.454
				c3.166,0,5.603-0.574,7.314-1.721c1.712-1.148,2.568-2.777,2.568-4.888c0-1.717-0.577-3.015-1.73-3.893
				c-1.154-0.876-2.814-1.315-4.986-1.315h-3.498c-1.142,0-1.953-0.147-2.438-0.441c-0.484-0.295-0.727-0.761-0.727-1.398
				c0-0.577,0.189-1.124,0.569-1.639c0.381-0.515,0.933-0.963,1.657-1.344c0.369,0.074,1.005,0.11,1.915,0.11
				c2.158,0,3.879-0.597,5.161-1.793c1.283-1.196,1.923-2.758,1.923-4.686c0-1.643-0.551-3.152-1.655-4.526l4.142-0.258V100.744z
				 M402.2,119.811h3.275c1.841,0,3.172,0.271,3.994,0.811c0.822,0.538,1.232,1.41,1.232,2.612c0,3.35-2.625,5.024-7.877,5.024
				c-4.085,0-6.128-1.373-6.128-4.122C396.697,121.252,398.531,119.811,402.2,119.811z M407.234,110.59
				c-0.891,0.846-2.171,1.27-3.84,1.27c-1.568,0-2.823-0.427-3.762-1.279c-0.939-0.852-1.407-2.052-1.407-3.598
				c0-1.631,0.456-2.904,1.369-3.819c0.914-0.913,2.169-1.371,3.765-1.371c1.644,0,2.922,0.427,3.837,1.279
				c0.914,0.854,1.37,2.133,1.37,3.838C408.566,108.517,408.122,109.744,407.234,110.59z M383.998,100.357
				c-3.326,0-5.638,1.044-6.938,3.129h-0.11l-0.351-2.742h-1.545v20.006h1.82v-11.043c0-2.711,0.557-4.672,1.667-5.881
				c1.11-1.207,2.861-1.812,5.254-1.812c1.78,0,3.092,0.457,3.938,1.371c0.848,0.914,1.271,2.377,1.271,4.389v12.976h1.803v-13.085
				C390.807,102.793,388.537,100.357,383.998,100.357z M340.767,100.357c-2.662,0-4.78,0.961-6.349,2.881
				c-1.572,1.92-2.358,4.475-2.358,7.665c0,3.229,0.814,5.736,2.44,7.528c1.625,1.791,3.893,2.687,6.801,2.687
				c1.151,0,2.206-0.09,3.165-0.267c0.957-0.178,1.998-0.512,3.129-1.003v-1.657c-1.325,0.528-2.42,0.872-3.287,1.031
				c-0.863,0.159-1.867,0.239-3.007,0.239c-2.344,0-4.146-0.724-5.402-2.173c-1.259-1.446-1.898-3.544-1.925-6.293h14.411v-1.473
				c0-2.822-0.681-5.055-2.043-6.699C344.981,101.18,343.121,100.357,340.767,100.357z M334.086,109.375
				c0.195-2.393,0.876-4.224,2.043-5.493c1.165-1.27,2.71-1.905,4.638-1.905c1.779,0,3.171,0.653,4.178,1.961
				c1.005,1.306,1.508,3.119,1.508,5.438H334.086z M188.358,93.419c-0.773,0-1.16,0.589-1.16,1.766c0,1.19,0.387,1.786,1.16,1.786
				c0.38,0,0.678-0.158,0.893-0.479c0.214-0.318,0.322-0.754,0.322-1.307c0-0.564-0.107-0.999-0.322-1.306
				C189.036,93.573,188.738,93.419,188.358,93.419z M187.457,120.75h1.822v-20.006h-1.822V120.75z M198.232,93.63
				c-0.902,1.147-1.353,2.948-1.353,5.401v1.547l-3.717,0.681v1.067h3.717v18.423h1.822v-18.423h4.712v-1.583h-4.712v-1.858
				c0-1.89,0.298-3.255,0.894-4.095c0.594-0.84,1.604-1.261,3.027-1.261c0.969,0,1.945,0.153,2.926,0.459l0.424-1.582
				c-1.105-0.331-2.209-0.497-3.313-0.497C200.609,91.91,199.134,92.484,198.232,93.63z M260.835,117.509h-0.11l-9.533-23.668
				h-2.908v26.908h1.806v-20.171c0-1.596-0.052-3.154-0.148-4.675h0.148l10.028,24.846h1.196l10.068-24.809h0.146
				c-0.146,1.521-0.221,2.994-0.221,4.416v20.393h1.896V93.841h-2.834L260.835,117.509z M287.282,100.394
				c-2.146,0-4.318,0.516-6.514,1.546l0.68,1.583c1.986-1.031,3.908-1.546,5.762-1.546c1.717,0,2.962,0.485,3.735,1.454
				c0.772,0.969,1.158,2.405,1.158,4.307v1.325l-3.809,0.11c-3.079,0.062-5.434,0.632-7.06,1.712
				c-1.625,1.079-2.437,2.595-2.437,4.545c0,1.78,0.546,3.173,1.637,4.179c1.093,1.007,2.619,1.509,4.583,1.509
				c1.447,0,2.702-0.267,3.764-0.801c1.062-0.533,2.095-1.444,3.102-2.732h0.146l0.461,3.165h1.344v-13.306
				c0-2.418-0.544-4.197-1.629-5.338C291.121,100.964,289.479,100.394,287.282,100.394z M292.03,112.542
				c0,2.172-0.616,3.868-1.849,5.088c-1.232,1.222-2.917,1.832-5.052,1.832c-1.399,0-2.483-0.347-3.248-1.04
				c-0.768-0.692-1.151-1.666-1.151-2.917c0-1.57,0.6-2.728,1.795-3.47c1.197-0.742,3.199-1.181,6.01-1.315l3.495-0.147V112.542z
				 M229.511,120.75h1.823V92.113h-1.823V120.75z M221.008,111.787c0,2.712-0.561,4.668-1.685,5.871
				c-1.122,1.203-2.873,1.804-5.254,1.804c-1.78,0-3.092-0.457-3.938-1.37c-0.847-0.915-1.271-2.378-1.271-4.392v-12.956h-1.803
				v13.067c0,4.871,2.275,7.307,6.828,7.307c3.324,0,5.637-1.042,6.938-3.129h0.11l0.331,2.761h1.546v-20.006h-1.803V111.787z"/>
		</g>
	</g>
</g>
</svg>
