<?xml version="1.0" encoding="utf-8"?>
<!-- Generator: Adobe Illustrator 15.1.0, SVG Export Plug-In . SVG Version: 6.00 Build 0)  -->
<!DOCTYPE svg PUBLIC "-//W3C//DTD SVG 1.1//EN" "http://www.w3.org/Graphics/SVG/1.1/DTD/svg11.dtd">
<svg version="1.1" id="Layer_1" xmlns="http://www.w3.org/2000/svg" xmlns:xlink="http://www.w3.org/1999/xlink" x="0px" y="0px"
	 width="300px" height="300px" viewBox="0 0 300 300" enable-background="new 0 0 300 300" xml:space="preserve">
<rect fill="#0C6897" width="300" height="300"/>
<g>
	<g>
		<g>
			<path fill="#FFFFFF" d="M60.188,126.725c-2.724,26.886-8.175,39.931-10.587,36.712c-0.713-0.982-1.208-3.568-1.341-7.146
				c0-4.551,0.227-10.629,0.628-15.188c1.694-10.271,1.694-10.536,3.304-15.897c3.129-9.741,3.305-10.1,5.764-15.462l1.293-2.672
				c1.075-1.973,1.387-2.416,1.921-3.219l0.358-0.358h0.401C62.421,105.014,60.231,126.453,60.188,126.725z"/>
			<path fill="#FFFFFF" d="M233.729,156.744c3.039,23.674-17.062,48.463-39.888,31.217c-17.332-13.084-18.984-41.403,3.035-53.552
				C216.798,126.187,231.495,139.583,233.729,156.744z"/>
			<path fill="#FFFFFF" d="M91.59,214.941c9.25,10.006,14.386,21.445,7.014,21.088c-10.941-0.445-36.046-25.195-31.18-34.041
				C71.445,198.146,83.061,205.746,91.59,214.941z"/>
			<path fill="#FFFFFF" d="M210.903,220.123c0.85,5.182-0.671,12.242-3.932,14.207c-3.305,1.783-10.63-0.445-14.963-3.664
				c-6.971-5.182-8.892-14.385,0.18-20.098C201.968,205.746,209.52,211.816,210.903,220.123z"/>
			<path fill="#FFFFFF" d="M86.992,163.797c5.225,12.506-0.315,24.656-9.784,21.172c-9.963-3.568-15.5-22.42-6.434-30.377
				C77.878,149.861,84.533,157.725,86.992,163.797z"/>
			<path fill="#FFFFFF" d="M255.26,141.103c0.939,8.4-2.638,14.479-6.659,11.526c-5.045-3.569-8.35-20.636-1.562-23.403
				C251.239,128.416,254.633,134.853,255.26,141.103z"/>
			<path fill="#FFFFFF" d="M183.698,52.84c9.83,3.039,14.787,7.231,10.766,9.289c-9.289,4.738-43.106-8.042-41.766-11.253
				c0.136-0.358,0.717-0.537,1.207-0.717C159.579,48.726,172.89,49.443,183.698,52.84z"/>
			<path fill="#FFFFFF" d="M226.535,92.062c9.336,13.934,3.129,26.707-11.611,23.939c-20.234-3.756-34.219-29.48-20.28-37.258
				c0.447-0.265,0.981-0.443,1.43-0.623C208.09,74.279,221.042,83.926,226.535,92.062z"/>
			<path fill="#FFFFFF" d="M140.369,242.1c4.153,1.699,9.204,4.652,5.853,6.078c-6.344,2.588-23.675-3.219-21.263-7.24l0.222-0.264
				C128.31,238.172,136.484,240.588,140.369,242.1z"/>
			<path fill="#FFFFFF" d="M172.577,79.64c26.578,30.104-9.383,80.766-54.23,76.293c-48.464-4.73-47.841-60.302-18.313-83.705
				c1.473-1.169,3.44-2.415,4.913-3.397C126.346,58.023,157.97,63.026,172.577,79.64z"/>
			<path fill="#FFFFFF" d="M171.95,192.965c12.242,21.977,2.992,47.887-34.438,37.258c-27.875-7.777-42.931-36.275-19.567-53.561
				C139.029,164.871,162.349,175.945,171.95,192.965z"/>
		</g>
	</g>
</g>
</svg>
