<svg xmlns="http://www.w3.org/2000/svg" width="207.15" height="199.359"><g fill="#0C6897"><path d="M11.93 77.26c-2.73 26.9-8.18 39.93-10.6 36.72-.7-1-1.2-3.57-1.33-7.15 0-4.55.23-10.63.63-15.2 1.7-10.26 1.7-10.52 3.3-15.9C7.06 66 7.23 65.64 9.7 60.3L11 57.6c1.06-1.96 1.38-2.4 1.9-3.2l.37-.37h.4c.5 1.52-1.7 22.96-1.74 23.23zM185.47 107.28c3.04 23.68-17.06 48.47-39.9 31.22-17.32-13.08-18.97-41.4 3.04-53.55 19.94-8.22 34.63 5.17 36.87 22.33zM43.33 165.48c9.25 10 14.4 21.45 7 21.1-10.93-.46-36.03-25.2-31.17-34.05 4.02-3.84 15.64 3.75 24.17 12.95zM162.64 170.66c.85 5.18-.67 12.24-3.93 14.2-3.3 1.8-10.62-.44-14.95-3.66-6.97-5.18-8.9-14.38.18-20.1 9.78-4.8 17.33 1.25 18.7 9.56zM38.73 114.33c5.23 12.5-.3 24.66-9.78 21.18-9.97-3.56-15.5-22.4-6.44-30.37 7.12-4.73 13.77 3.13 16.23 9.2zM207 91.64c.94 8.4-2.64 14.48-6.66 11.53-5.04-3.57-8.35-20.64-1.56-23.4 4.2-.82 7.6 5.62 8.22 11.87zM135.44 3.38c9.83 3.04 14.78 7.23 10.76 9.3-9.3 4.73-43.1-8.05-41.76-11.27.13-.34.7-.52 1.2-.7 5.68-1.44 19-.72 29.8 2.68zM178.27 42.6c9.34 13.93 3.13 26.7-11.6 23.94-20.24-3.76-34.23-29.48-20.3-37.26.46-.26 1-.44 1.44-.62 12.03-3.84 24.98 5.8 30.47 13.94zM92.1 192.64c4.16 1.7 9.2 4.65 5.86 6.08-6.34 2.58-23.67-3.22-21.26-7.24l.22-.27c3.13-2.5 11.3-.07 15.2 1.44zM124.32 30.18c26.57 30.1-9.4 80.77-54.23 76.3-48.48-4.74-47.85-60.3-18.33-83.7 1.48-1.18 3.44-2.43 4.92-3.4 21.38-10.82 53-5.82 67.62 10.8zM123.7 143.5c12.23 21.98 2.98 47.9-34.45 37.26-27.87-7.78-42.93-36.27-19.57-53.56 21.1-11.8 44.4-.72 54 16.3z"/></g></svg>