<?xml version="1.0" encoding="utf-8"?>
<!-- Generator: Adobe Illustrator 15.1.0, SVG Export Plug-In . SVG Version: 6.00 Build 0)  -->
<!DOCTYPE svg PUBLIC "-//W3C//DTD SVG 1.1//EN" "http://www.w3.org/Graphics/SVG/1.1/DTD/svg11.dtd">
<svg version="1.1" id="Layer_1" xmlns="http://www.w3.org/2000/svg" xmlns:xlink="http://www.w3.org/1999/xlink" x="0px" y="0px"
	 width="483.913px" height="483.912px" viewBox="0 0 483.913 483.912" enable-background="new 0 0 483.913 483.912"
	 xml:space="preserve">
<polyline fill="none" stroke="#F2F2F2" stroke-miterlimit="10" points="303.957,213.456 349.8,185.731 394.957,185.731 "/>
<polyline fill="none" stroke="#F2F2F2" stroke-miterlimit="10" points="304.957,269.456 347.792,282.999 403.652,282.999 "/>
<polyline fill="none" stroke="#F2F2F2" stroke-miterlimit="10" points="178.28,216.121 137.41,192.724 77.913,192.724 "/>
<polyline fill="none" stroke="#F2F2F2" stroke-miterlimit="10" points="173.29,252.123 122.95,272.948 71.264,272.948 "/>
<path fill="#FFFFFF" d="M41.213,272.967c0-7.451,6.031-13.518,13.481-13.518c7.451,0,13.481,6.066,13.481,13.518
	c0,7.449-6.03,13.48-13.481,13.48C47.244,286.448,41.213,280.417,41.213,272.967z M51.202,273.426h1.994v6.068h2.499v-6.068h2.495
	v-2.494h-2.495v-1.27c0-0.42,0.264-0.77,0.496-0.77h1.999v-2.459h-1.999c-1.65,0-2.995,1.463-2.995,3.268v1.23h-1.994V273.426z"/>
<g>
	<path fill="#FFFFFF" d="M397.58,186.449c0-7.443,6.027-13.469,13.471-13.469c7.444,0,13.506,6.025,13.506,13.469
		c0,7.444-6.062,13.508-13.506,13.508C403.607,199.957,397.58,193.894,397.58,186.449z M405.792,180.312
		c0,0.806,0.654,1.456,1.456,1.456c0.809,0,1.463-0.65,1.463-1.456c0-0.808-0.654-1.497-1.463-1.497
		C406.447,178.814,405.792,179.504,405.792,180.312z M408.443,182.65h-2.378v8.25h2.378V182.65z M409.593,190.9h2.379v-5.293
		c0,0,0.995-0.962,1.918-0.424c0.194,0.076,0.422,0.461,0.422,0.69v5.026h2.344v-5.026c0-1.072-0.654-2.226-1.615-2.763
		c-0.883-0.461-2.146-0.537-3.068-0.077v-0.384h-2.379V190.9z"/>
</g>
<g>
	<path fill="#FFFFFF" d="M72.893,192.725c0,3.957-3.204,7.16-7.162,7.16c-3.959,0-7.182-3.203-7.182-7.16
		c0-3.959,3.223-7.163,7.182-7.163C69.689,185.562,72.893,188.766,72.893,192.725z M68.771,190.887
		c0.308-0.184,0.511-0.47,0.652-0.797c-0.284,0.145-0.61,0.289-0.958,0.348c-0.243-0.285-0.613-0.469-1.042-0.469
		c-0.792,0-1.445,0.653-1.445,1.469c0,0.103,0.019,0.225,0.04,0.326c-1.224-0.061-2.266-0.631-3-1.529
		c-0.124,0.225-0.184,0.469-0.184,0.733c0,0.511,0.224,0.96,0.632,1.205c-0.245,0-0.469-0.062-0.653-0.163c0,0.02,0,0.02,0,0.02
		c0,0.695,0.487,1.287,1.14,1.429c-0.098,0.021-0.221,0.041-0.384,0.041c-0.082,0-0.163-0.021-0.245-0.041
		c0.163,0.572,0.695,0.999,1.347,1.021c-0.489,0.389-1.124,0.613-1.797,0.613c-0.142,0-0.245,0-0.347,0
		c0.634,0.408,1.408,0.652,2.226,0.652c2.671,0,4.12-2.205,4.12-4.144c0-0.061,0-0.142,0-0.183c0.287-0.204,0.55-0.49,0.734-0.754
		C69.342,190.764,69.078,190.846,68.771,190.887z"/>
</g>
<path fill="#FFFFFF" d="M405.41,283.719c0-3.953,3.197-7.152,7.149-7.152c3.953,0,7.153,3.199,7.153,7.152
	c0,3.973-3.2,7.172-7.153,7.172C408.607,290.891,405.41,287.692,405.41,283.719z M411.459,284.592
	c-0.45,0.266-0.734,0.674-0.734,1.143c0,0.797,0.815,1.426,1.834,1.426s1.835-0.629,1.835-1.426c0-0.795-0.816-1.426-1.835-1.426
	c-0.039,0-0.103,0-0.142,0c-0.042-0.08-0.061-0.182-0.061-0.305c0-0.104,0.019-0.307,0.061-0.307c0,0,0.021,0,0.039,0
	c0.837,0,1.529-0.67,1.529-1.529c0-0.205-0.101-0.447-0.203-0.568l0.529-0.285v-1.02l-1.1,0.611
	c-0.245-0.164-0.49-0.264-0.795-0.264c-0.835,0-1.508,0.691-1.508,1.525c0,0.49,0.224,0.898,0.57,1.186
	c-0.103,0.201-0.142,0.426-0.142,0.65C411.338,284.206,411.377,284.411,411.459,284.592z M411.744,282.168
	c0-0.387,0.326-0.713,0.713-0.713c0.39,0,0.713,0.326,0.713,0.713c0,0.41-0.323,0.715-0.713,0.715
	C412.07,282.883,411.744,282.579,411.744,282.168z M411.744,285.735c0-0.305,0.366-0.549,0.815-0.549
	c0.448,0,0.815,0.244,0.815,0.549s-0.367,0.551-0.815,0.551C412.11,286.286,411.744,286.04,411.744,285.735z"/>
<circle fill="#336699" cx="241.957" cy="241.956" r="44.5"/>
<circle fill="#35D9DC" cx="241.957" cy="241.955" r="42.381"/>
<g>
	
		<circle fill="none" stroke="#666666" stroke-width="0.8753" stroke-miterlimit="10" stroke-dasharray="0.4383,3.5067" cx="241.957" cy="241.955" r="74.713"/>
</g>
<g>
	
		<circle fill="none" stroke="#F2F2F2" stroke-width="1.5236" stroke-miterlimit="10" stroke-dasharray="0.763,6.1038" cx="241.957" cy="241.956" r="130.047"/>
</g>
<g>
	<path fill="none" stroke="#57ADDD" stroke-width="2.8182" stroke-miterlimit="10" stroke-dasharray="1.4113,11.2901" d="
		M241.957,1.409C109.106,1.409,1.409,109.102,1.409,241.956c0,132.849,107.697,240.547,240.547,240.547
		s240.547-107.698,240.547-240.547C482.503,109.102,374.807,1.409,241.957,1.409z"/>
</g>
<g>
	
		<circle fill="none" stroke="#F2F2F2" stroke-width="0.9577" stroke-miterlimit="10" stroke-dasharray="0.2393,1.9143" cx="241.957" cy="241.955" r="37.714"/>
</g>
<g>
	<circle fill="#57ADDD" cx="302.905" cy="216.557" r="1.917"/>
	<circle fill="#57ADDD" cx="307.401" cy="233.198" r="1.918"/>
	<circle fill="#57ADDD" cx="307.438" cy="250.435" r="1.917"/>
	<circle fill="#57ADDD" cx="303.012" cy="267.094" r="1.917"/>
	<circle fill="#57ADDD" cx="294.425" cy="282.04" r="1.917"/>
	<circle fill="#57ADDD" cx="282.262" cy="294.255" r="1.918"/>
	<path fill="#57ADDD" d="M267.475,304.818c1.057-0.067,1.858-0.979,1.79-2.034c-0.067-1.058-0.979-1.86-2.035-1.792
		c-1.058,0.07-1.859,0.979-1.793,2.038C265.506,304.085,266.417,304.886,267.475,304.818z"/>
	<path fill="#57ADDD" d="M250.335,309.281c1.037,0.208,2.049-0.465,2.256-1.501c0.209-1.039-0.465-2.051-1.501-2.259
		c-1.041-0.206-2.049,0.466-2.259,1.505C248.624,308.064,249.296,309.074,250.335,309.281z"/>
	<path fill="#57ADDD" d="M232.625,309.155c0.947,0.474,2.099,0.083,2.567-0.866c0.47-0.949,0.081-2.098-0.867-2.568
		c-0.95-0.47-2.1-0.082-2.57,0.867C231.286,307.538,231.675,308.687,232.625,309.155z"/>
	<path fill="#57ADDD" d="M215.55,304.45c0.793,0.701,2.005,0.623,2.705-0.173c0.699-0.792,0.622-2.005-0.173-2.705
		c-0.797-0.7-2.007-0.62-2.709,0.173C214.676,302.542,214.752,303.751,215.55,304.45z"/>
	<circle fill="#57ADDD" cx="201.87" cy="294.425" r="1.917"/>
	<path fill="#57ADDD" d="M187.839,282.875c0.337,1.004,1.426,1.543,2.429,1.203c1.003-0.338,1.542-1.427,1.204-2.428
		c-0.34-1.007-1.427-1.543-2.432-1.206C188.037,280.785,187.5,281.872,187.839,282.875z"/>
	<path fill="#57ADDD" d="M179.092,267.475c0.066,1.057,0.979,1.859,2.036,1.791c1.057-0.068,1.857-0.979,1.791-2.035
		c-0.068-1.061-0.979-1.86-2.038-1.793C179.824,265.505,179.023,266.416,179.092,267.475z"/>
	<circle fill="#57ADDD" cx="176.508" cy="250.713" r="1.917"/>
	<path fill="#57ADDD" d="M174.754,232.625c-0.471,0.948-0.083,2.1,0.867,2.57c0.951,0.468,2.1,0.079,2.568-0.867
		c0.471-0.953,0.082-2.101-0.867-2.572C176.372,231.286,175.224,231.675,174.754,232.625z"/>
	<path fill="#57ADDD" d="M179.458,215.549c-0.7,0.795-0.623,2.008,0.173,2.707c0.795,0.698,2.007,0.621,2.706-0.172
		c0.7-0.798,0.622-2.008-0.173-2.71C181.368,214.675,180.158,214.755,179.458,215.549z"/>
</g>
<g>
	<path fill="#FFFFFF" d="M267.661,242.084c0,9.125-2.282,16.343-6.844,21.652c-4.562,5.311-10.856,7.967-18.88,7.967
		c-7.999,0-14.278-2.656-18.84-7.967c-4.563-5.31-6.844-12.553-6.844-21.731c0-9.151,2.301-16.355,6.903-21.613
		c4.603-5.257,10.889-7.886,18.86-7.886c8.024,0,14.304,2.642,18.84,7.925S267.661,232.934,267.661,242.084z"/>
</g>
<polygon fill="#35D9DC" points="259.941,229.87 243.252,249.339 239.256,243.405 223.972,254.088 240.706,234.587 244.52,240.253 
	"/>
<polygon fill="#FFFFFF" points="237.011,270.766 246.902,270.766 241.957,276.018 "/>
<line fill="none" stroke="#336699" stroke-width="0.2301" stroke-miterlimit="10" x1="290.587" y1="290.558" x2="326.601" y2="326.571"/>
<line fill="none" stroke="#336699" stroke-width="0.2301" stroke-miterlimit="10" x1="157.32" y1="157.292" x2="193.333" y2="193.305"/>
<line fill="none" stroke="#336699" stroke-width="0.2301" stroke-miterlimit="10" x1="290.586" y1="193.342" x2="326.6" y2="157.328"/>
<line fill="none" stroke="#336699" stroke-width="0.2301" stroke-miterlimit="10" x1="157.322" y1="326.606" x2="193.335" y2="290.593"/>
<path fill="none" d="M193.258,241.956c0,26.895,21.803,48.698,48.698,48.698v-48.698H193.258z"/>
<path fill="#336699" d="M193.258,241.956h-9.388c0,32.08,26.006,58.086,58.086,58.086v-9.388
	C215.062,290.654,193.258,268.85,193.258,241.956z"/>
<path fill="#428EC1" d="M300.042,241.956h-9.388c0,26.895-21.803,48.698-48.698,48.698v9.388
	C274.037,300.042,300.042,274.036,300.042,241.956z"/>
<path fill="#224D6B" d="M241.957,193.257v-9.388c-32.08,0-58.086,26.006-58.086,58.086h9.388
	C193.258,215.06,215.062,193.257,241.957,193.257z"/>
<path fill="#57ADDD" d="M290.655,241.956h9.388c0-32.08-26.006-58.086-58.086-58.086v9.388
	C268.852,193.257,290.655,215.06,290.655,241.956z"/>
<line fill="none" stroke="#57ADDD" stroke-width="2" stroke-miterlimit="10" x1="201.89" y1="347.995" x2="290.034" y2="347.995"/>
<line fill="none" stroke="#428EC1" stroke-width="2" stroke-miterlimit="10" x1="215.561" y1="352.37" x2="276.362" y2="352.37"/>
<text transform="matrix(1 0 0 1 191.5728 342.981)"><tspan x="0" y="0" fill="#224D6B" font-family="'OpenSans-Extrabold'" font-size="20.5698" letter-spacing="-1">PO</tspan><tspan x="26.92" y="0" fill="#224D6B" font-family="'OpenSans-Extrabold'" font-size="20.5698">WER</tspan><tspan x="71.035" y="0" fill="#224D6B" font-family="'OpenSans-Extrabold'" font-size="20.5698" letter-spacing="-1">F</tspan><tspan x="80.889" y="0" fill="#224D6B" font-family="'OpenSans-Extrabold'" font-size="20.5698" letter-spacing="-1">U</tspan><tspan x="94.812" y="0" fill="#224D6B" font-family="'OpenSans-Extrabold'" font-size="20.5698">L</tspan></text>
<circle fill="#336699" cx="290.586" cy="193.342" r="0.836"/>
<circle fill="#336699" cx="326.6" cy="157.292" r="0.836"/>
<circle fill="#336699" cx="157.32" cy="157.328" r="0.836"/>
<circle fill="#336699" cx="193.335" cy="193.305" r="0.836"/>
<circle fill="#336699" cx="157.329" cy="326.592" r="0.836"/>
<circle fill="#336699" cx="193.306" cy="290.577" r="0.836"/>
<circle fill="#336699" cx="326.593" cy="326.583" r="0.836"/>
<circle fill="#336699" cx="290.578" cy="290.606" r="0.836"/>
</svg>
