<svg xmlns="http://www.w3.org/2000/svg" width="207.15" height="199.359"><path fill="#0C6897" d="M11.93 77.26c-2.73 26.9-8.18 39.93-10.6 36.72-.7-1-1.2-3.57-1.33-7.15 0-4.55.23-10.63.63-15.2 1.7-10.26 1.7-10.52 3.3-15.9C7.06 66 7.23 65.63 9.7 60.3l1.3-2.7c1.06-1.96 1.38-2.4 1.9-3.2l.37-.37h.4c.5 1.52-1.7 22.96-1.74 23.23zm173.54 30.02c3.04 23.68-17.06 48.47-39.9 31.22-17.32-13.08-18.97-41.4 3.04-53.55 19.95-8.22 34.64 5.17 36.88 22.33zm-142.14 58.2c9.25 10 14.4 21.45 7 21.1-10.93-.46-36.03-25.2-31.17-34.05 4.02-3.84 15.64 3.75 24.17 12.95zm119.3 5.18c.86 5.18-.66 12.24-3.92 14.2-3.3 1.8-10.6-.44-14.94-3.66-6.97-5.18-8.9-14.38.18-20.1 9.78-4.8 17.33 1.25 18.7 9.56zm-123.9-56.33c5.23 12.5-.3 24.66-9.78 21.18-9.97-3.55-15.5-22.4-6.44-30.36 7.13-4.73 13.78 3.13 16.24 9.2zM207 91.63c.94 8.4-2.64 14.5-6.66 11.54-5.04-3.57-8.35-20.64-1.56-23.4 4.2-.82 7.6 5.62 8.22 11.87zM135.44 3.4c9.83 3.04 14.78 7.23 10.76 9.3-9.3 4.73-43.1-8.05-41.76-11.27.13-.33.7-.5 1.2-.7 5.68-1.43 19-.7 29.8 2.7zm42.83 39.22c9.34 13.93 3.13 26.7-11.6 23.94-20.24-3.76-34.23-29.48-20.3-37.26.46-.26 1-.44 1.44-.62 12.04-3.84 25 5.8 30.48 13.94zM92.1 192.64c4.16 1.7 9.2 4.65 5.86 6.08-6.34 2.58-23.67-3.22-21.26-7.24l.22-.27c3.13-2.5 11.3-.06 15.2 1.45zm32.22-162.46c26.57 30.1-9.4 80.77-54.23 76.3-48.5-4.74-47.86-60.3-18.34-83.7 1.48-1.18 3.44-2.43 4.92-3.4 21.38-10.82 53-5.82 67.62 10.8zm-.62 113.32c12.23 21.98 2.98 47.9-34.45 37.26-27.87-7.78-42.93-36.27-19.57-53.56 21.1-11.8 44.4-.72 54 16.3z"/></svg>