<svg xmlns="http://www.w3.org/2000/svg" width="392" height="391.999"><path fill="none" stroke="#57ADDD" stroke-miterlimit="10" d="M196 .5C88.03.5.5 88.03.5 196S88.03 391.5 196 391.5 391.5 303.97 391.5 196 303.97.5 196 .5z" stroke-dasharray="1.147,9.1758"/><path fill="none" stroke="#57ADDD" stroke-width="1.804" stroke-miterlimit="10" d="M151.27 172.7h71.67"/><path fill="none" stroke="#428EC1" stroke-width="1.804" stroke-miterlimit="10" d="M162.4 177.08h49.43"/><text fill="#6DA4C0" transform="translate(140.024 167.696)" font-family="'OpenSans-Extrabold'" font-size="20.57">MASSIVE</text><path fill="#6DA4C0" d="M140.7 248.74c0 4.97-4.04 9-9 9H77c-4.97 0-9-4.03-9-9v-16.7c0-4.96 4.03-9 9-9h54.67c4.96 0 9 4.04 9 9v16.7zm82.65 0c0 4.97-4.02 9-9 9H159.7c-4.98 0-9-4.03-9-9v-16.7c0-4.96 4.02-9 9-9h54.65c4.98 0 9 4.04 9 9v16.7zm82.85.03c0 4.97-4.04 9-9 9h-54.7c-4.97 0-9-4.03-9-9V232.1c0-4.98 4.03-9 9-9h54.67c4.96 0 9 4.02 9 9v16.67z"/><text fill="#fff" transform="translate(161.217 243.299)" font-family="'OpenSans-Extrabold'" font-size="7.431">ENGAGEMENT</text><text fill="#fff" transform="translate(83.092 243.299)" font-family="'OpenSans-Extrabold'" font-size="7.431">AUDIENCES</text><text fill="#fff" transform="translate(253.846 243.332)" font-family="'OpenSans-Extrabold'" font-size="7.431">RESULTS</text></svg>