<?xml version="1.0" encoding="utf-8"?>
<!-- Generator: Adobe Illustrator 15.1.0, SVG Export Plug-In . SVG Version: 6.00 Build 0)  -->
<!DOCTYPE svg PUBLIC "-//W3C//DTD SVG 1.1//EN" "http://www.w3.org/Graphics/SVG/1.1/DTD/svg11.dtd">
<svg version="1.1" id="Layer_1" xmlns="http://www.w3.org/2000/svg" xmlns:xlink="http://www.w3.org/1999/xlink" x="0px" y="0px"
	 width="392px" height="391.999px" viewBox="0 0 392 391.999" enable-background="new 0 0 392 391.999" xml:space="preserve">
<g>
	
		<circle fill="none" stroke="#32F99E" stroke-width="1.352" stroke-miterlimit="10" stroke-dasharray="0.3378,2.7027" cx="196" cy="195.999" r="53.243"/>
</g>
<circle fill="#224D6B" cx="195.81" cy="196.019" r="1.512"/>
<path fill="#336699" d="M143.88,196h-2.423c0,30.124,24.419,54.543,54.543,54.543v-2.423C167.215,248.12,143.88,224.785,143.88,196z
	"/>
<path fill="#57ADDD" d="M248.121,196h2.423c0-30.124-24.419-54.543-54.543-54.543v2.423C224.786,143.88,248.121,167.214,248.121,196
	z"/>
<g>
	
		<circle fill="none" stroke="#129AE0" stroke-width="0.8753" stroke-miterlimit="10" stroke-dasharray="0.4383,3.5067" cx="196" cy="196" r="74.713"/>
</g>
<g>
	<path fill="none" stroke="#129AE0" stroke-miterlimit="10" stroke-dasharray="1.147,9.1758" d="M196,0.5
		C88.027,0.5,0.5,88.026,0.5,196.001c0,107.97,87.527,195.498,195.5,195.498s195.5-87.528,195.5-195.498
		C391.5,88.026,303.974,0.5,196,0.5z"/>
</g>
<path fill="none" stroke="#F2F2F2" stroke-width="1.5236" stroke-miterlimit="10" stroke-dasharray="0.7618,6.0943" d="
	M89.545,270.716c23.53,33.464,62.438,55.331,106.455,55.331c44.016,0,82.924-21.867,106.454-55.331"/>
<path fill="none" stroke="#F2F2F2" stroke-width="1.5236" stroke-miterlimit="10" stroke-dasharray="0.7618,6.0943" d="
	M89.545,121.284C113.076,87.82,151.984,65.953,196,65.953c44.016,0,82.924,21.867,106.454,55.331"/>
<line fill="none" stroke="#E6E6E6" stroke-width="1.8035" stroke-miterlimit="10" x1="164.169" y1="309.759" x2="235.842" y2="309.759"/>
<line fill="none" stroke="#CCCCCC" stroke-width="1.8035" stroke-miterlimit="10" x1="175.286" y1="314.134" x2="224.725" y2="314.134"/>
<g>
	
		<line fill="#3E3E3E" stroke="#336699" stroke-width="0.35" stroke-miterlimit="10" x1="302.963" y1="302.92" x2="382.178" y2="382.133"/>
	
		<line fill="#3E3E3E" stroke="#336699" stroke-width="0.35" stroke-miterlimit="10" x1="9.831" y1="9.791" x2="89.045" y2="89.004"/>
	
		<line fill="#3E3E3E" stroke="#336699" stroke-width="0.35" stroke-miterlimit="10" x1="302.959" y1="89.086" x2="382.176" y2="9.869"/>
	
		<line fill="#3E3E3E" stroke="#336699" stroke-width="0.35" stroke-miterlimit="10" x1="9.834" y1="382.211" x2="89.049" y2="302.998"/>
	<circle fill="#3E3E3E" cx="302.958" cy="89.086" r="1.839"/>
	<circle fill="#3E3E3E" cx="382.176" cy="9.791" r="1.838"/>
	<circle fill="#3E3E3E" cx="9.83" cy="9.869" r="1.839"/>
	<circle fill="#3E3E3E" cx="89.05" cy="89.004" r="1.839"/>
	<circle fill="#3E3E3E" cx="9.85" cy="382.181" r="1.839"/>
	<circle fill="#3E3E3E" cx="88.985" cy="302.961" r="1.838"/>
	<circle fill="#3E3E3E" cx="382.162" cy="382.16" r="1.839"/>
	<circle fill="#3E3E3E" cx="302.942" cy="303.025" r="1.838"/>
</g>
<path fill="#224D6B" d="M200.005,212.768c0-1.656,1.34-2.996,2.997-2.996c1.656,0,3.005,1.34,3.005,2.996
	c0,1.665-1.349,3.005-3.005,3.005C201.345,215.772,200.005,214.433,200.005,212.768z M201.619,212.768
	c0,0.769,0.615,1.392,1.384,1.392c0.767,0,1.391-0.623,1.391-1.392c0-0.76-0.624-1.383-1.391-1.383
	C202.234,211.385,201.619,212.008,201.619,212.768z M202.157,213.553c-0.188-0.195-0.299-0.452-0.308-0.726
	c0.06,0,0.111,0.009,0.162,0.009c0.35,0,0.7-0.068,1.042-0.188c0.017,0.051,0.042,0.111,0.068,0.162
	C202.729,212.947,202.387,213.203,202.157,213.553z M202.011,212.598c-0.061,0-0.103,0-0.153,0c0.06-0.368,0.29-0.684,0.614-0.854
	c0.188,0.222,0.351,0.452,0.478,0.691C202.643,212.546,202.327,212.598,202.011,212.598z M203.199,213.032
	c0.085,0.265,0.144,0.546,0.17,0.837c-0.119,0.043-0.239,0.06-0.366,0.06c-0.24,0-0.471-0.077-0.676-0.214
	C202.541,213.391,202.84,213.152,203.199,213.032z M203.164,212.35c-0.127-0.239-0.281-0.47-0.461-0.691
	c0.103-0.025,0.196-0.043,0.3-0.043c0.307,0,0.589,0.119,0.802,0.324C203.608,212.11,203.394,212.246,203.164,212.35z
	 M203.267,212.562c0.238-0.111,0.478-0.264,0.691-0.443c0.128,0.196,0.204,0.418,0.204,0.648c-0.153-0.033-0.299-0.06-0.444-0.06
	c-0.119,0-0.247,0.017-0.376,0.043C203.318,212.69,203.292,212.623,203.267,212.562z M203.718,212.947
	c0.138,0,0.273,0.018,0.419,0.051c-0.067,0.324-0.265,0.606-0.546,0.769c-0.035-0.273-0.086-0.538-0.171-0.794
	C203.522,212.955,203.625,212.947,203.718,212.947z"/>
<path fill="#32F99E" d="M184.396,205.338c0-1.656,1.341-3.006,2.997-3.006s2.997,1.35,2.997,3.006s-1.341,2.996-2.997,2.996
	S184.396,206.994,184.396,205.338z M186.617,205.44h0.443v1.349h0.556v-1.349h0.555v-0.556h-0.555v-0.281
	c0-0.094,0.059-0.171,0.11-0.171h0.444v-0.546h-0.444c-0.367,0-0.666,0.324-0.666,0.726v0.272h-0.443V205.44z"/>
<path fill="#32F99E" d="M210.705,222.36c0-1.656,1.34-2.997,2.996-2.997s2.997,1.341,2.997,2.997c0,1.665-1.341,3.005-2.997,3.005
	S210.705,224.025,210.705,222.36z M213.24,222.727c-0.188,0.111-0.308,0.282-0.308,0.479c0,0.334,0.342,0.598,0.769,0.598
	s0.769-0.264,0.769-0.598c0-0.333-0.342-0.598-0.769-0.598c-0.017,0-0.043,0-0.06,0c-0.018-0.033-0.025-0.076-0.025-0.128
	c0-0.043,0.008-0.128,0.025-0.128c0,0,0.009,0,0.017,0c0.351,0,0.641-0.281,0.641-0.641c0-0.086-0.042-0.188-0.085-0.238l0.222-0.12
	v-0.427l-0.461,0.256c-0.103-0.068-0.205-0.11-0.333-0.11c-0.35,0-0.632,0.29-0.632,0.64c0,0.205,0.094,0.376,0.239,0.496
	c-0.043,0.085-0.06,0.179-0.06,0.272C213.189,222.564,213.206,222.65,213.24,222.727z M213.359,221.711
	c0-0.162,0.137-0.299,0.299-0.299c0.163,0,0.299,0.137,0.299,0.299c0,0.172-0.136,0.299-0.299,0.299
	C213.496,222.01,213.359,221.883,213.359,221.711z M213.359,223.205c0-0.128,0.153-0.23,0.342-0.23c0.188,0,0.342,0.103,0.342,0.23
	s-0.154,0.23-0.342,0.23C213.512,223.436,213.359,223.333,213.359,223.205z"/>
<g>
	<path fill="#129AE0" d="M176.066,169.063c0,2.733-2.2,4.931-4.918,4.931c-2.731,0-4.931-2.198-4.931-4.931
		c0-2.717,2.199-4.917,4.931-4.917C173.866,164.146,176.066,166.346,176.066,169.063z M171.218,166.625
		c-1.219,0-2.254,0.995-2.298,2.2c-0.041,1.218,0.924,2.199,2.143,2.199c0.212,0,0.435-0.029,0.632-0.099
		c0.07,0.112,0.14,0.211,0.237,0.323c0.393,0.462,0.953,0.153,0.953,0.153v-0.377c0,0-0.266,0.055-0.588-0.365
		c0.617-0.392,1.035-1.064,1.063-1.834C173.403,167.621,172.436,166.625,171.218,166.625z M172.325,168.784
		c-0.015,0.476-0.182,0.909-0.42,1.203c-0.407-0.616-1.008-0.35-1.008-0.35v0.379c0,0,0.236-0.07,0.406,0.154
		c0.027,0.056,0.069,0.126,0.097,0.182c-0.097,0.042-0.182,0.056-0.279,0.056c-0.633,0-1.121-0.729-1.094-1.624
		c0.043-0.883,0.575-1.612,1.206-1.612C171.877,167.172,172.353,167.901,172.325,168.784z"/>
	<path fill="#129AE0" d="M184.329,161.467c0-1.656,1.34-2.997,2.997-2.997c1.665,0,3.006,1.341,3.006,2.997
		c0,1.657-1.341,2.997-3.006,2.997C185.668,164.464,184.329,163.124,184.329,161.467z M185.882,161.467
		c0,0.572,0.333,1.067,0.819,1.298l-0.69-1.887C185.934,161.058,185.882,161.254,185.882,161.467z M186.122,160.674
		c0.034,0,0.068,0,0.094,0c0.153,0,0.385-0.017,0.385-0.017c0.076,0,0.085,0.11,0.008,0.119c0,0-0.076,0.009-0.161,0.018
		l0.521,1.562l0.315-0.947l-0.222-0.615c-0.077-0.009-0.153-0.018-0.153-0.018c-0.078-0.009-0.068-0.119,0.008-0.119
		c0,0,0.239,0.017,0.385,0.017c0.153,0,0.383-0.017,0.383-0.017c0.078,0,0.086,0.11,0.01,0.119c0,0-0.077,0.009-0.162,0.018
		l0.521,1.545l0.145-0.478c0.069-0.188,0.111-0.342,0.111-0.469c0-0.179-0.068-0.299-0.12-0.393
		c-0.076-0.12-0.145-0.222-0.145-0.341c0-0.128,0.102-0.256,0.239-0.256c0.009,0,0.017,0,0.025,0
		c-0.256-0.23-0.606-0.375-0.981-0.375C186.822,160.025,186.377,160.281,186.122,160.674z M187.812,162.825
		c-0.009,0-0.009-0.008-0.018-0.017l-0.443-1.212l-0.427,1.256c0.128,0.042,0.265,0.06,0.401,0.06
		C187.497,162.911,187.659,162.885,187.812,162.825z M188.606,160.921c0,0.146-0.025,0.316-0.11,0.521l-0.444,1.272
		c0.436-0.248,0.726-0.717,0.726-1.247c0-0.255-0.068-0.486-0.18-0.691C188.606,160.819,188.606,160.87,188.606,160.921z"/>
	<path fill="#129AE0" d="M185.123,187.825c0,2.341-1.895,4.248-4.235,4.248s-4.247-1.907-4.247-4.248
		c0-2.316,1.883-4.211,4.198-4.235h0.084C183.251,183.614,185.123,185.509,185.123,187.825z M178.509,189.31h1.329
		c0.155,0,0.288-0.012,0.422-0.037c0.12-0.036,0.24-0.084,0.324-0.156c0.086-0.06,0.157-0.133,0.217-0.229
		c0.086-0.144,0.134-0.301,0.134-0.47c0-0.169-0.048-0.314-0.12-0.434c-0.073-0.121-0.193-0.206-0.338-0.266
		c0.097-0.048,0.168-0.096,0.218-0.169c0.096-0.108,0.144-0.253,0.144-0.434c0-0.169-0.048-0.326-0.134-0.447
		c-0.157-0.204-0.41-0.313-0.771-0.313h-1.424V189.31z M179.813,187.512h-0.628v-0.652h0.555c0.146,0,0.254,0.024,0.351,0.048
		c0.109,0.048,0.156,0.133,0.156,0.277c0,0.122-0.036,0.206-0.12,0.254C180.043,187.487,179.946,187.512,179.813,187.512z
		 M180.116,188.743c-0.072,0.036-0.17,0.048-0.303,0.048h-0.628v-0.784h0.641c0.12,0,0.228,0.012,0.29,0.048
		c0.131,0.061,0.191,0.169,0.191,0.314C180.307,188.55,180.247,188.682,180.116,188.743z M181.165,188.176
		c0,0.397,0.097,0.676,0.314,0.856c0.217,0.168,0.469,0.253,0.746,0.253c0.339,0,0.616-0.097,0.797-0.302
		c0.121-0.132,0.193-0.265,0.206-0.386h-0.567c-0.025,0.061-0.061,0.108-0.108,0.146c-0.085,0.06-0.182,0.096-0.314,0.096
		c-0.107,0-0.217-0.024-0.301-0.084c-0.133-0.085-0.217-0.23-0.217-0.446h1.545c0-0.182-0.014-0.314-0.025-0.41
		c-0.024-0.17-0.085-0.314-0.17-0.447c-0.097-0.144-0.216-0.241-0.359-0.313c-0.146-0.061-0.315-0.097-0.496-0.097
		c-0.313,0-0.567,0.097-0.761,0.29C181.261,187.536,181.165,187.813,181.165,188.176z M181.61,186.776h1.183v-0.302h-1.183V186.776z
		 M182.685,187.946h-0.955c0.025-0.133,0.074-0.241,0.146-0.326c0.084-0.085,0.191-0.121,0.338-0.121
		c0.12,0,0.228,0.036,0.324,0.109C182.625,187.693,182.672,187.801,182.685,187.946z"/>
	<path fill="#129AE0" d="M212.088,161.415c0,2.506-2.029,4.535-4.534,4.535s-4.548-2.029-4.548-4.535
		c0-2.493,2.016-4.509,4.495-4.535h0.091C210.086,156.906,212.088,158.922,212.088,161.415z M205.526,160.007
		c1.95,0,3.539,1.588,3.539,3.54h0.841c0-2.416-1.964-4.379-4.38-4.379V160.007z M205.526,161.493c0.542,0,1.06,0.219,1.445,0.607
		c0.389,0.387,0.596,0.904,0.596,1.446h0.854c0-1.588-1.307-2.894-2.895-2.894V161.493z M205.526,162.965
		c0,0.323,0.259,0.581,0.581,0.581c0.324,0,0.581-0.258,0.581-0.581c0-0.323-0.257-0.581-0.581-0.581
		C205.785,162.384,205.526,162.642,205.526,162.965z"/>
	<path fill="#129AE0" d="M154.174,206.786c0-2.964,2.4-5.379,5.379-5.379c2.967,0,5.365,2.415,5.365,5.379
		c0,2.965-2.398,5.364-5.365,5.364C156.575,212.15,154.174,209.751,154.174,206.786z M155.994,205.09h0.932
		c0.367,0.291,1.773,2.033,1.82,2.201c0.029,0.168,0.045,1.131-0.018,1.191c-0.135,0.152-0.764,0.107-0.916,0.122l-0.045,0.307
		c0.275,0,1.16-0.031,1.452-0.031c0.533,0,1.498,0,1.635,0.016l0.016-0.321c-0.138-0.016-0.887,0-0.995-0.016
		c-0.029-0.152-0.045-1.176-0.029-1.268c0.106-0.305,1.695-1.544,1.879-1.59c0.03,0,0.093-0.016,0.168-0.031h0.505l0.077-0.121
		h0.014l0.199-0.291h-0.014l0.014-0.029h-2.782l0.108,0.441h0.764l-1.268,1.146c-0.26-0.351-0.872-1.1-1.299-1.727h0.946v-0.336
		l0.016-0.061c0-0.016-0.016-0.016-0.016-0.016v-0.03h-3.163V205.09z M162.626,208.452l-0.245-0.015l-0.276-0.031v0.459l0.217,0.03
		l0.243,0.016L162.626,208.452z M163.1,206.206c-0.075,0-0.825-0.062-0.932-0.092l0.014,1.987l0.429,0.029L163.1,206.206z"/>
	<path fill="#129AE0" d="M221.346,171.597c0-1.656,1.34-2.997,2.996-2.997s3.005,1.341,3.005,2.997s-1.349,2.997-3.005,2.997
		S221.346,173.253,221.346,171.597z M222.994,172.066c0,0.487,0.393,0.888,0.878,0.888h1.026c0.485,0,0.887-0.401,0.887-0.888
		v-0.717v-0.034l-0.026-0.051l-0.041-0.034c-0.051-0.034-0.316,0.008-0.385-0.06c-0.052-0.043-0.052-0.128-0.068-0.239
		c-0.034-0.213-0.052-0.23-0.085-0.299c-0.12-0.265-0.453-0.461-0.684-0.487h-0.624c-0.485,0-0.878,0.401-0.878,0.888V172.066z
		 M223.719,171.042c0-0.094,0.077-0.17,0.171-0.17h0.486c0.094,0,0.17,0.077,0.17,0.17c0,0.094-0.076,0.171-0.17,0.171h-0.486
		C223.796,171.212,223.719,171.136,223.719,171.042z M223.719,172.058c0-0.094,0.077-0.171,0.171-0.171h0.998
		c0.095,0,0.171,0.077,0.171,0.171s-0.076,0.171-0.171,0.171h-0.998C223.796,172.229,223.719,172.151,223.719,172.058z"/>
	<path fill="#129AE0" d="M197.004,176.129c0-1.656,1.35-2.997,3.006-2.997c1.655,0,2.996,1.34,2.996,2.997s-1.341,3.005-2.996,3.005
		C198.354,179.134,197.004,177.785,197.004,176.129z M198.43,176.897c0.419,0.384,0.965,0.606,1.58,0.606
		c0.376,0,0.819-0.103,1.151-0.307c0.052-0.026,0.095-0.06,0.137-0.094c0.061-0.034,0.009-0.102-0.051-0.077
		c-0.025,0.008-0.06,0.025-0.086,0.034c-0.366,0.145-0.759,0.213-1.118,0.213c-0.58,0-1.135-0.163-1.579-0.418
		C198.421,176.829,198.396,176.872,198.43,176.897z M200.3,175.3v0.052c-0.077,0-0.162,0.009-0.257,0.017
		c-0.136,0.017-0.272,0.042-0.384,0.102c-0.222,0.086-0.367,0.273-0.367,0.555c0,0.35,0.222,0.529,0.512,0.529
		c0.095,0,0.172-0.017,0.239-0.034c0.111-0.034,0.205-0.094,0.325-0.213c0.06,0.085,0.076,0.128,0.196,0.222
		c0.024,0.009,0.06,0.009,0.076-0.008c0.077-0.06,0.196-0.162,0.265-0.222c0.026-0.025,0.026-0.06,0.01-0.085
		c-0.068-0.085-0.137-0.163-0.137-0.316v-0.538c0-0.222,0.017-0.436-0.146-0.589c-0.136-0.12-0.35-0.171-0.521-0.171
		c-0.017,0-0.043,0-0.068,0c-0.298,0.017-0.622,0.146-0.69,0.521c-0.018,0.051,0.017,0.068,0.042,0.077l0.334,0.034
		c0.033,0,0.05-0.034,0.059-0.06c0.034-0.137,0.138-0.197,0.256-0.213c0.009,0,0.009,0,0.025,0c0.069,0,0.146,0.034,0.188,0.093
		C200.308,175.122,200.3,175.215,200.3,175.3z M200.3,175.693c0,0.137,0.008,0.248-0.068,0.358c-0.043,0.086-0.11,0.137-0.188,0.163
		c-0.009,0-0.025,0-0.043,0c-0.136,0-0.213-0.103-0.213-0.248c0-0.188,0.111-0.282,0.256-0.325c0.078-0.017,0.171-0.017,0.257-0.017
		V175.693z M201.034,176.931c0.034-0.008,0.077-0.008,0.128-0.017c0.12-0.008,0.248-0.017,0.281,0.025
		c0.044,0.061-0.05,0.299-0.092,0.401c-0.018,0.026,0.017,0.043,0.042,0.018c0.145-0.12,0.205-0.342,0.213-0.461v-0.017
		c0-0.025-0.008-0.042-0.017-0.051c-0.025-0.042-0.238-0.068-0.428-0.017c-0.051,0.017-0.094,0.042-0.136,0.068
		C200.992,176.906,201,176.931,201.034,176.931z"/>
	<path fill="#129AE0" d="M226.74,190.8c0-2.227,1.803-4.03,4.03-4.03c2.237,0,4.04,1.803,4.04,4.03c0,2.238-1.803,4.041-4.04,4.041
		C228.542,194.84,226.74,193.038,226.74,190.8z M231.366,190.443l0.472-0.149v-0.287c0-0.562-0.461-1.033-1.021-1.033
		c-0.574,0-1.034,0.471-1.034,1.033c0,0.483,0,0.965,0,1.436c0,0.138-0.104,0.252-0.241,0.252s-0.24-0.115-0.24-0.252v-0.632h-0.793
		v0.632c0,0.574,0.459,1.033,1.033,1.033c0.562,0,1.033-0.425,1.033-0.999c0-0.482,0-0.987,0-1.47c0-0.126,0.104-0.241,0.242-0.241
		c0.124,0,0.229,0.114,0.229,0.241v0.287L231.366,190.443z M233.111,190.845h-0.792v0.632c0,0.138-0.104,0.241-0.241,0.241
		s-0.24-0.103-0.24-0.241v-0.654l-0.472,0.149l-0.321-0.149v0.654c0,0.574,0.471,1.033,1.033,1.033c0.573,0,1.033-0.459,1.033-1.033
		V190.845z"/>
	<path fill="#129AE0" d="M225.043,209.775c0-1.656,1.349-2.996,3.005-2.996s2.997,1.34,2.997,2.996s-1.341,2.996-2.997,2.996
		S225.043,211.432,225.043,209.775z M226.615,209.144c0,0.153,0.042,0.308,0.128,0.427c-0.017,0.068-0.017,0.137-0.017,0.205
		c0,0.726,0.588,1.314,1.314,1.314c0.085,0,0.162-0.008,0.238-0.025c0.12,0.076,0.265,0.119,0.419,0.119
		c0.435,0,0.785-0.35,0.785-0.785c0-0.162-0.051-0.316-0.137-0.443c0.009-0.061,0.009-0.12,0.009-0.18
		c0-0.717-0.589-1.307-1.314-1.307c-0.068,0-0.146,0-0.214,0.018c-0.12-0.086-0.273-0.128-0.427-0.128
		C226.964,208.358,226.615,208.708,226.615,209.144z M228.356,210.305c0.188-0.213-0.128-0.324-0.358-0.359
		c-0.333-0.051-0.752-0.23-0.718-0.58c0.026-0.357,0.3-0.537,0.581-0.562c0.359-0.035,0.59,0.051,0.776,0.213
		c0.214,0.18,0.095,0.385-0.042,0.401c-0.128,0.017-0.282-0.3-0.581-0.308c-0.315,0-0.521,0.324-0.136,0.418
		c0.375,0.094,0.785,0.129,0.931,0.479c0.153,0.35-0.223,0.717-0.649,0.734c-0.418,0.025-0.615-0.068-0.793-0.239
		c-0.196-0.188-0.121-0.401,0.051-0.409c0.162-0.01,0.255,0.188,0.342,0.238C227.852,210.381,228.177,210.51,228.356,210.305z"/>
	<path fill="#129AE0" d="M199.661,229.871c0,2.237-1.812,4.06-4.049,4.06s-4.047-1.822-4.047-4.06c0-2.215,1.786-4.026,4.002-4.05
		h0.092C197.874,225.845,199.661,227.656,199.661,229.871z M193.409,231.29l2.435-0.704l-0.669-1.35
		c1.2-0.345,2.203,0.358,2.203,0.358l-0.83,0.218l-0.231-0.438c-0.23-0.045-0.484-0.059-0.761-0.011l0.564,1.141l2.435-0.692
		c0,0-0.876-1.383-3.506-0.946c-0.024,0.012-0.036,0.012-0.047,0.012l-0.254-0.519l-0.762,0.093l0.312,0.623
		C192.694,229.732,193.409,231.29,193.409,231.29z M194.068,230.482c0,0-0.243-0.52,0.448-0.959l0.357,0.739L194.068,230.482z"/>
	<path fill="#129AE0" d="M177.88,228.039c0,1.656-1.351,2.997-3.006,2.997c-1.656,0-2.996-1.341-2.996-2.997
		c0-1.647,1.322-2.979,2.971-2.996h0.06C176.556,225.061,177.88,226.392,177.88,228.039z M173.312,228.312
		c0.026,0.615,0.769,1.109,1.674,1.109c0.921,0,1.673-0.512,1.673-1.144c0-0.624-0.752-1.136-1.673-1.136
		c-0.401,0-0.777,0.094-1.067,0.256v-0.861h-0.606V228.312z M173.918,228.278c0-0.419,0.478-0.76,1.067-0.76
		c0.589,0,1.066,0.341,1.066,0.76c0,0.427-0.478,0.76-1.066,0.76C174.396,229.038,173.918,228.705,173.918,228.278z
		 M174.286,228.278c0,0.282,0.307,0.504,0.7,0.504c0.384,0,0.7-0.222,0.7-0.504c0-0.272-0.316-0.495-0.7-0.495
		C174.592,227.783,174.286,228.006,174.286,228.278z"/>
</g>
<circle fill="none" stroke="#336699" stroke-width="0.2301" stroke-miterlimit="10" cx="187.33" cy="205.334" r="4.441"/>
<circle fill="none" stroke="#336699" stroke-width="0.2301" stroke-miterlimit="10" cx="213.701" cy="222.364" r="4.441"/>
<circle fill="none" stroke="#336699" stroke-width="0.2301" stroke-miterlimit="10" cx="206.581" cy="193.741" r="4.441"/>
<circle fill="none" stroke="#336699" stroke-width="0.2301" stroke-miterlimit="10" cx="163.454" cy="190.119" r="4.441"/>
<g>
	<path fill="#32F99E" d="M203.58,193.736c0-1.656,1.341-2.997,2.997-2.997s3.005,1.34,3.005,2.997s-1.349,3.006-3.005,3.006
		S203.58,195.393,203.58,193.736z M205.407,192.371c0,0.179,0.146,0.324,0.324,0.324c0.18,0,0.325-0.145,0.325-0.324
		c0-0.18-0.146-0.333-0.325-0.333C205.552,192.038,205.407,192.191,205.407,192.371z M205.997,192.891h-0.529v1.835h0.529V192.891z
		 M206.252,194.727h0.529v-1.178c0,0,0.222-0.214,0.427-0.094c0.043,0.017,0.094,0.103,0.094,0.154v1.118h0.521v-1.118
		c0-0.239-0.146-0.495-0.359-0.615c-0.196-0.103-0.478-0.12-0.683-0.017v-0.085h-0.529V194.727z"/>
</g>
<g>
	<path fill="#32F99E" d="M166.458,190.119c0,1.659-1.343,3.001-3.001,3.001c-1.659,0-3.01-1.342-3.01-3.001s1.351-3.001,3.01-3.001
		C165.116,187.118,166.458,188.46,166.458,190.119z M164.731,189.349c0.129-0.077,0.214-0.197,0.273-0.333
		c-0.119,0.06-0.256,0.121-0.401,0.146c-0.102-0.12-0.257-0.197-0.437-0.197c-0.332,0-0.605,0.274-0.605,0.616
		c0,0.043,0.008,0.094,0.017,0.137c-0.513-0.025-0.949-0.265-1.257-0.641c-0.052,0.094-0.077,0.197-0.077,0.308
		c0,0.214,0.094,0.402,0.265,0.505c-0.103,0-0.196-0.026-0.273-0.068c0,0.008,0,0.008,0,0.008c0,0.291,0.204,0.539,0.478,0.599
		c-0.041,0.009-0.093,0.017-0.161,0.017c-0.034,0-0.068-0.008-0.103-0.017c0.068,0.24,0.291,0.419,0.564,0.428
		c-0.205,0.163-0.471,0.257-0.753,0.257c-0.06,0-0.103,0-0.146,0c0.266,0.171,0.59,0.273,0.933,0.273
		c1.119,0,1.727-0.924,1.727-1.736c0-0.025,0-0.06,0-0.077c0.12-0.085,0.23-0.206,0.308-0.316
		C164.97,189.298,164.86,189.332,164.731,189.349z"/>
</g>
<g>
	<path fill="#3FBCB8" d="M139.774,232.364l-3.274,1.89c5.475,8.509,12.716,15.758,21.212,21.234l1.893-3.277
		C151.677,247.072,144.912,240.301,139.774,232.364z"/>
	<path fill="#35D9DC" d="M136.396,165.523l-3.275-1.891c-4.513,8.755-7.267,18.568-7.761,28.98h3.775
		C129.623,182.887,132.198,173.719,136.396,165.523z"/>
	<path fill="#35D9DC" d="M129.134,199.395h-3.774c0.488,10.414,3.237,20.229,7.749,28.986l3.275-1.891
		C132.188,218.291,129.617,209.121,129.134,199.395z"/>
	<path fill="#35D9DC" d="M192.581,129.203v-3.783c-10.41,0.47-20.226,3.211-28.984,7.726l1.893,3.279
		C173.687,132.228,182.857,129.667,192.581,129.203z"/>
	<path fill="#3FBCB8" d="M262.485,192.613h3.775c-0.491-10.355-3.217-20.117-7.688-28.836l-3.274,1.891
		C259.453,173.827,262.001,182.944,262.485,192.613z"/>
	<path fill="#35D9DC" d="M251.917,159.787l3.275-1.891c-5.435-8.482-12.624-15.721-21.062-21.205l-1.893,3.278
		C240.106,145.115,246.82,151.876,251.917,159.787z"/>
	<path fill="#3FBCB8" d="M226.379,136.553l1.894-3.279c-8.731-4.545-18.52-7.33-28.91-7.846v3.789
		C209.064,129.727,218.208,132.327,226.379,136.553z"/>
	<path fill="#30F9E5" d="M159.618,139.818l-1.894-3.277c-8.493,5.473-15.734,12.717-21.209,21.219l3.274,1.89
		C144.927,151.72,151.694,144.953,159.618,139.818z"/>
	<path fill="#30F9E5" d="M165.475,255.605l-1.893,3.279c8.761,4.519,18.581,7.263,28.997,7.733v-3.783
		C182.851,262.37,173.676,259.807,165.475,255.605z"/>
	<path fill="#30F9E5" d="M262.486,199.395c-0.479,9.67-3.023,18.791-7.177,26.953l3.276,1.89c4.466-8.722,7.188-18.485,7.675-28.843
		H262.486z"/>
	<path fill="#35D9DC" d="M232.251,252.061l1.893,3.277c8.439-5.488,15.63-12.73,21.062-21.22l-3.274-1.891
		C246.835,240.145,240.122,246.911,232.251,252.061z"/>
	<path fill="#35D9DC" d="M199.363,262.82v3.79c10.396-0.518,20.189-3.304,28.924-7.854l-1.894-3.278
		C218.219,259.709,209.07,262.311,199.363,262.82z"/>
</g>
<g>
	<g>
		<path fill="#336699" d="M196.359,122.418v-17.864h-0.717v17.854c0.113-0.058,0.227-0.098,0.341-0.098
			C196.11,122.31,196.235,122.347,196.359,122.418z"/>
	</g>
	<g>
		<path fill="#336699" d="M159.52,132.097l-8.933-15.471l-0.62,0.358l8.928,15.462c0.068-0.107,0.146-0.198,0.246-0.256
			C159.25,132.128,159.377,132.098,159.52,132.097z"/>
	</g>
	<g>
		<path fill="#336699" d="M132.455,158.899l-15.47-8.933l-0.358,0.621l15.463,8.927c0.006-0.127,0.028-0.246,0.085-0.344
			C132.236,159.062,132.333,158.971,132.455,158.899z"/>
	</g>
	<g>
		<path fill="#336699" d="M122.418,195.642h-17.864v0.717h17.854c-0.059-0.114-0.098-0.227-0.098-0.341
			C122.31,195.892,122.348,195.766,122.418,195.642z"/>
	</g>
	<g>
		<path fill="#336699" d="M132.097,232.48l-15.47,8.933l0.358,0.62l15.462-8.927c-0.107-0.069-0.198-0.146-0.256-0.247
			C132.127,232.751,132.098,232.624,132.097,232.48z"/>
	</g>
	<g>
		<path fill="#336699" d="M158.899,259.546l-8.932,15.469l0.62,0.359l8.927-15.463c-0.126-0.006-0.244-0.027-0.344-0.085
			C159.061,259.765,158.97,259.668,158.899,259.546z"/>
	</g>
	<g>
		<path fill="#336699" d="M195.642,269.582v17.864h0.717v-17.854c-0.113,0.058-0.227,0.098-0.341,0.098
			C195.892,269.69,195.766,269.652,195.642,269.582z"/>
	</g>
	<g>
		<path fill="#336699" d="M232.481,259.904l8.933,15.469l0.62-0.358l-8.928-15.462c-0.069,0.107-0.146,0.198-0.245,0.256
			C232.751,259.873,232.624,259.903,232.481,259.904z"/>
	</g>
	<g>
		<path fill="#336699" d="M259.546,233.104l15.469,8.93l0.358-0.62l-15.462-8.927c-0.006,0.127-0.027,0.244-0.085,0.344
			C259.765,232.939,259.668,233.03,259.546,233.104z"/>
	</g>
	<g>
		<path fill="#336699" d="M269.584,196.359h17.862l-0.001-0.717l-17.853,0c0.057,0.114,0.098,0.226,0.098,0.34
			C269.691,196.109,269.653,196.235,269.584,196.359z"/>
	</g>
	<g>
		<path fill="#336699" d="M259.905,159.52l15.47-8.932l-0.359-0.621l-15.462,8.926c0.107,0.07,0.198,0.148,0.256,0.246
			C259.874,159.249,259.904,159.376,259.905,159.52z"/>
	</g>
	<g>
		<path fill="#336699" d="M233.103,132.455l8.931-15.471l-0.62-0.358l-8.927,15.461c0.127,0.008,0.244,0.029,0.344,0.085
			C232.94,132.237,233.031,132.332,233.103,132.455z"/>
	</g>
</g>
<polyline fill="none" stroke="#F2F2F2" stroke-miterlimit="10" points="210.548,191.523 270.082,157.442 328.722,157.442 "/>
<polyline fill="none" stroke="#F2F2F2" stroke-miterlimit="10" points="217.625,224.745 270.051,254.709 338.418,254.709 "/>
<polyline fill="none" stroke="#F2F2F2" stroke-miterlimit="10" points="159.546,187.832 118.676,164.435 59.179,164.435 "/>
<polyline fill="none" stroke="#F2F2F2" stroke-miterlimit="10" points="183.454,207.593 118.856,244.659 52.53,244.659 "/>
<path fill="#32F99E" d="M22.479,244.678c0-7.45,6.031-13.518,13.481-13.518c7.451,0,13.481,6.067,13.481,13.518
	c0,7.449-6.03,13.48-13.481,13.48C28.51,258.158,22.479,252.127,22.479,244.678z M32.468,245.138h1.994v6.067h2.499v-6.067h2.495
	v-2.495h-2.495v-1.27c0-0.42,0.264-0.769,0.496-0.769h1.999v-2.459h-1.999c-1.65,0-2.995,1.463-2.995,3.268v1.229h-1.994V245.138z"
	/>
<g>
	<path fill="#32F99E" d="M332.679,157.43c0-7.444,6.027-13.469,13.471-13.469c7.444,0,13.506,6.024,13.506,13.469
		c0,7.444-6.062,13.508-13.506,13.508C338.707,170.938,332.679,164.874,332.679,157.43z M340.892,151.292
		c0,0.805,0.654,1.457,1.456,1.457c0.809,0,1.463-0.651,1.463-1.457c0-0.808-0.654-1.497-1.463-1.497
		C341.546,149.795,340.892,150.484,340.892,151.292z M343.542,153.631h-2.378v8.25h2.378V153.631z M344.693,161.88h2.379v-5.293
		c0,0,0.995-0.961,1.918-0.424c0.194,0.077,0.422,0.461,0.422,0.691v5.026h2.344v-5.026c0-1.072-0.654-2.225-1.615-2.763
		c-0.883-0.461-2.146-0.538-3.068-0.077v-0.384h-2.379V161.88z"/>
</g>
<g>
	<path fill="#32F99E" d="M54.159,164.435c0,3.958-3.204,7.161-7.162,7.161c-3.959,0-7.182-3.203-7.182-7.161
		c0-3.958,3.223-7.163,7.182-7.163C50.955,157.272,54.159,160.477,54.159,164.435z M50.037,162.597
		c0.308-0.183,0.511-0.469,0.652-0.796c-0.284,0.144-0.61,0.288-0.958,0.348c-0.243-0.286-0.613-0.47-1.042-0.47
		c-0.792,0-1.445,0.654-1.445,1.469c0,0.103,0.019,0.225,0.04,0.326c-1.224-0.061-2.266-0.631-3-1.53
		c-0.124,0.225-0.184,0.47-0.184,0.734c0,0.511,0.224,0.96,0.632,1.205c-0.245,0-0.469-0.062-0.653-0.163c0,0.02,0,0.02,0,0.02
		c0,0.695,0.487,1.287,1.14,1.429c-0.098,0.021-0.221,0.041-0.384,0.041c-0.082,0-0.163-0.02-0.245-0.041
		c0.163,0.572,0.695,1,1.347,1.021c-0.489,0.388-1.124,0.613-1.797,0.613c-0.142,0-0.245,0-0.347,0
		c0.634,0.408,1.408,0.652,2.226,0.652c2.671,0,4.12-2.205,4.12-4.144c0-0.061,0-0.142,0-0.183c0.287-0.204,0.55-0.49,0.734-0.753
		C50.608,162.475,50.344,162.557,50.037,162.597z"/>
</g>
<path fill="#32F99E" d="M340.509,254.699c0-3.953,3.197-7.152,7.149-7.152c3.953,0,7.153,3.199,7.153,7.152
	c0,3.974-3.2,7.172-7.153,7.172C343.707,261.871,340.509,258.673,340.509,254.699z M346.559,255.573
	c-0.45,0.266-0.734,0.674-0.734,1.142c0,0.797,0.815,1.427,1.834,1.427s1.835-0.63,1.835-1.427c0-0.795-0.816-1.426-1.835-1.426
	c-0.039,0-0.103,0-0.142,0c-0.042-0.079-0.061-0.182-0.061-0.305c0-0.104,0.019-0.307,0.061-0.307c0,0,0.021,0,0.039,0
	c0.837,0,1.529-0.67,1.529-1.528c0-0.205-0.101-0.447-0.203-0.568l0.529-0.286v-1.02l-1.1,0.611
	c-0.245-0.164-0.49-0.264-0.795-0.264c-0.835,0-1.508,0.692-1.508,1.526c0,0.489,0.224,0.897,0.57,1.185
	c-0.103,0.202-0.142,0.426-0.142,0.65C346.438,255.187,346.477,255.392,346.559,255.573z M346.843,253.149
	c0-0.387,0.326-0.713,0.713-0.713c0.39,0,0.713,0.326,0.713,0.713c0,0.41-0.323,0.714-0.713,0.714
	C347.169,253.863,346.843,253.56,346.843,253.149z M346.843,256.715c0-0.305,0.366-0.549,0.815-0.549
	c0.448,0,0.815,0.244,0.815,0.549c0,0.306-0.367,0.551-0.815,0.551C347.209,257.266,346.843,257.021,346.843,256.715z"/>
<rect x="-83.777" y="81.167" fill="#FFFFFF" stroke="#000000" stroke-miterlimit="10" width="0" height="0"/>
<text transform="matrix(1 0 0 1 154.3608 304.7324)" fill="#32F99E" font-family="'OpenSans-Extrabold'" font-size="20.5698">MASSIVE</text>
</svg>
