<?xml version="1.0" encoding="utf-8"?>
<!-- Generator: Adobe Illustrator 15.1.0, SVG Export Plug-In . SVG Version: 6.00 Build 0)  -->
<!DOCTYPE svg PUBLIC "-//W3C//DTD SVG 1.1//EN" "http://www.w3.org/Graphics/SVG/1.1/DTD/svg11.dtd">
<svg version="1.1" id="Layer_1" xmlns="http://www.w3.org/2000/svg" xmlns:xlink="http://www.w3.org/1999/xlink" x="0px" y="0px"
	 width="392px" height="391.999px" viewBox="0 0 392 391.999" enable-background="new 0 0 392 391.999" xml:space="preserve">
<g>
	<path fill="none" stroke="#57ADDD" stroke-miterlimit="10" stroke-dasharray="1.147,9.1758" d="M196,0.5
		C88.026,0.5,0.5,88.026,0.5,196.001c0,107.971,87.526,195.498,195.5,195.498s195.5-87.527,195.5-195.498
		C391.5,88.026,303.974,0.5,196,0.5z"/>
</g>
<line fill="none" stroke="#57ADDD" stroke-width="1.8035" stroke-miterlimit="10" x1="151.271" y1="172.709" x2="222.943" y2="172.709"/>
<line fill="none" stroke="#428EC1" stroke-width="1.8035" stroke-miterlimit="10" x1="162.387" y1="177.084" x2="211.826" y2="177.084"/>
<text transform="matrix(1 0 0 1 140.0239 167.6958)" fill="#6DA4C0" font-family="'OpenSans-Extrabold'" font-size="20.5698">MASSIVE</text>
<path fill="#6DA4C0" d="M140.688,248.736c0,4.971-4.029,9-9,9H77.022c-4.971,0-9-4.029-9-9v-16.682c0-4.971,4.029-9.001,9-9.001
	h54.666c4.971,0,9,4.03,9,9.001V248.736z"/>
<path fill="#6DA4C0" d="M223.354,248.736c0,4.971-4.029,9-9,9h-54.666c-4.971,0-9-4.029-9-9v-16.682c0-4.971,4.029-9.001,9-9.001
	h54.666c4.971,0,9,4.03,9,9.001V248.736z"/>
<path fill="#6DA4C0" d="M306.191,248.77c0,4.971-4.029,9-9,9h-54.666c-4.971,0-9-4.029-9-9v-16.682c0-4.971,4.029-9.001,9-9.001
	h54.666c4.971,0,9,4.03,9,9.001V248.77z"/>
<text transform="matrix(1 0 0 1 161.2173 243.2988)" fill="#FFFFFF" font-family="'OpenSans-Extrabold'" font-size="7.4314">ENGAGEMENT</text>
<text transform="matrix(1 0 0 1 83.0918 243.2988)" fill="#FFFFFF" font-family="'OpenSans-Extrabold'" font-size="7.4314">AUDIENCES</text>
<text transform="matrix(1 0 0 1 253.8457 243.332)" fill="#FFFFFF" font-family="'OpenSans-Extrabold'" font-size="7.4314">RESULTS</text>
</svg>
