<?xml version="1.0" encoding="utf-8"?>
<!-- Generator: Adobe Illustrator 15.1.0, SVG Export Plug-In . SVG Version: 6.00 Build 0)  -->
<!DOCTYPE svg PUBLIC "-//W3C//DTD SVG 1.1//EN" "http://www.w3.org/Graphics/SVG/1.1/DTD/svg11.dtd">
<svg version="1.1" id="Layer_1" xmlns="http://www.w3.org/2000/svg" xmlns:xlink="http://www.w3.org/1999/xlink" x="0px" y="0px"
	 width="418.304px" height="131.742px" viewBox="0 0 418.304 131.742" enable-background="new 0 0 418.304 131.742"
	 xml:space="preserve">
<path fill="#FFFFFF" d="M53.297,61.798c-5.462-1.27-7.132-4.575-7.063-15.519V19.421V10.64V0.003L37.44,0l0.004,46.256
	c0,13.425,2.295,22.787,15.853,24.311C53.354,67.803,53.177,63.933,53.297,61.798z"/>
<g>
	<path fill="#FFFFFF" d="M158.306,51.097c-2.459,6.542-8.752,11.221-16.141,11.221c-9.52,0-17.266-7.741-17.266-17.252
		c0-9.515,7.746-17.256,17.266-17.256c6.834,0,12.738,4.003,15.525,9.785c8.783-0.178,0,0,8.783-0.178
		c-3.254-10.333-12.92-17.85-24.309-17.85c-14.066,0-25.506,11.437-25.506,25.492c0,14.064,11.439,25.505,25.506,25.505
		c11.826,0,21.799-8.114,24.656-19.065C162.946,51.283,160.487,51.298,158.306,51.097z"/>
</g>
<g enable-background="new    ">
	<path fill="#FFFFFF" d="M18.479,114.072c0,2.317-0.841,4.124-2.521,5.421c-1.681,1.297-3.962,1.945-6.844,1.945
		c-3.122,0-5.523-0.402-7.204-1.207v-2.953c1.081,0.456,2.257,0.816,3.53,1.08c1.272,0.265,2.533,0.396,3.782,0.396
		c2.041,0,3.578-0.388,4.611-1.162c1.032-0.774,1.549-1.852,1.549-3.232c0-0.912-0.183-1.659-0.549-2.242
		c-0.367-0.582-0.979-1.119-1.837-1.611c-0.859-0.492-2.165-1.051-3.917-1.675c-2.449-0.877-4.199-1.915-5.25-3.116
		c-1.051-1.2-1.576-2.768-1.576-4.7c0-2.029,0.763-3.645,2.288-4.845c1.524-1.2,3.542-1.801,6.051-1.801
		c2.617,0,5.024,0.48,7.222,1.44l-0.955,2.665c-2.173-0.912-4.286-1.368-6.339-1.368c-1.621,0-2.888,0.349-3.8,1.045
		c-0.913,0.696-1.369,1.662-1.369,2.899c0,0.912,0.168,1.659,0.504,2.242c0.336,0.582,0.903,1.116,1.702,1.603
		c0.798,0.486,2.02,1.023,3.665,1.612c2.761,0.984,4.661,2.041,5.7,3.169C17.959,110.807,18.479,112.271,18.479,114.072z"/>
	<path fill="#FFFFFF" d="M40.451,111.19c0,3.218-0.811,5.73-2.432,7.537c-1.621,1.808-3.86,2.711-6.717,2.711
		c-1.765,0-3.332-0.414-4.701-1.243c-1.369-0.828-2.425-2.017-3.17-3.565c-0.744-1.549-1.116-3.361-1.116-5.439
		c0-3.217,0.804-5.724,2.413-7.519s3.842-2.692,6.7-2.692c2.761,0,4.956,0.918,6.583,2.755
		C39.637,105.572,40.451,108.058,40.451,111.19z M25.413,111.19c0,2.521,0.504,4.443,1.513,5.764c1.008,1.32,2.491,1.98,4.448,1.98
		s3.443-0.657,4.458-1.972c1.014-1.314,1.522-3.238,1.522-5.772c0-2.509-0.508-4.415-1.522-5.718
		c-1.015-1.303-2.512-1.954-4.494-1.954c-1.957,0-3.434,0.643-4.43,1.927C25.911,106.73,25.413,108.646,25.413,111.19z"/>
	<path fill="#FFFFFF" d="M53.58,121.438c-2.858,0-5.07-0.88-6.637-2.639s-2.35-4.247-2.35-7.465c0-3.302,0.795-5.854,2.386-7.654
		c1.591-1.801,3.857-2.701,6.798-2.701c0.948,0,1.897,0.102,2.846,0.306c0.948,0.205,1.693,0.444,2.233,0.721l-0.919,2.539
		c-0.66-0.264-1.38-0.482-2.161-0.657c-0.78-0.174-1.471-0.261-2.071-0.261c-4.01,0-6.015,2.558-6.015,7.672
		c0,2.426,0.489,4.286,1.468,5.583c0.978,1.297,2.428,1.945,4.349,1.945c1.645,0,3.332-0.354,5.061-1.062v2.647
		C57.247,121.096,55.584,121.438,53.58,121.438z"/>
	<path fill="#FFFFFF" d="M62.999,95.99c0-0.684,0.168-1.186,0.504-1.503c0.336-0.318,0.756-0.478,1.261-0.478
		c0.48,0,0.894,0.162,1.243,0.486c0.348,0.324,0.522,0.822,0.522,1.494c0,0.673-0.174,1.174-0.522,1.504
		c-0.349,0.331-0.763,0.496-1.243,0.496c-0.504,0-0.925-0.165-1.261-0.496C63.167,97.164,62.999,96.663,62.999,95.99z
		 M66.24,121.078h-2.989V101.34h2.989V121.078z"/>
	<path fill="#FFFFFF" d="M84.718,121.078l-0.594-2.81H83.98c-0.985,1.237-1.966,2.074-2.945,2.513
		c-0.979,0.438-2.2,0.657-3.665,0.657c-1.958,0-3.491-0.505-4.602-1.513c-1.111-1.009-1.666-2.443-1.666-4.305
		c0-3.986,3.188-6.075,9.563-6.268l3.35-0.107v-1.225c0-1.549-0.333-2.692-1-3.432c-0.667-0.738-1.732-1.107-3.197-1.107
		c-1.645,0-3.506,0.505-5.583,1.513l-0.918-2.287c0.972-0.528,2.038-0.942,3.197-1.242c1.158-0.3,2.32-0.45,3.485-0.45
		c2.353,0,4.097,0.522,5.231,1.566c1.135,1.045,1.702,2.72,1.702,5.024v13.472H84.718z M77.965,118.971
		c1.861,0,3.323-0.51,4.385-1.53s1.594-2.449,1.594-4.286v-1.783l-2.99,0.126c-2.377,0.084-4.091,0.453-5.142,1.107
		s-1.576,1.672-1.576,3.053c0,1.081,0.327,1.903,0.981,2.468S76.788,118.971,77.965,118.971z"/>
	<path fill="#FFFFFF" d="M96.082,121.078h-2.989V93.055h2.989V121.078z"/>
	<path fill="#FFFFFF" d="M129.004,121.078l-3.278-8.374h-10.554l-3.242,8.374h-3.098l10.41-26.438h2.575l10.355,26.438H129.004z
		 M124.771,109.948l-3.062-8.158c-0.396-1.032-0.805-2.299-1.225-3.8c-0.264,1.152-0.643,2.419-1.135,3.8l-3.098,8.158H124.771z"/>
	<path fill="#FFFFFF" d="M138.153,101.34v12.805c0,1.609,0.366,2.81,1.099,3.602c0.732,0.793,1.879,1.188,3.44,1.188
		c2.065,0,3.575-0.563,4.529-1.692c0.955-1.129,1.432-2.972,1.432-5.529V101.34h2.989v19.738h-2.467l-0.432-2.647h-0.162
		c-0.612,0.973-1.462,1.717-2.548,2.233c-1.087,0.516-2.326,0.774-3.719,0.774c-2.402,0-4.2-0.57-5.394-1.711
		c-1.195-1.141-1.792-2.966-1.792-5.475V101.34H138.153z"/>
	<path fill="#FFFFFF" d="M171.417,118.431h-0.162c-1.381,2.005-3.446,3.008-6.195,3.008c-2.582,0-4.59-0.883-6.024-2.647
		s-2.152-4.274-2.152-7.528c0-3.253,0.72-5.781,2.161-7.582c1.44-1.801,3.446-2.701,6.015-2.701c2.677,0,4.73,0.973,6.159,2.917
		h0.234l-0.126-1.422l-0.072-1.387v-8.033h2.99v28.023h-2.432L171.417,118.431z M165.437,118.935c2.041,0,3.521-0.555,4.439-1.665
		c0.918-1.111,1.378-2.902,1.378-5.376v-0.631c0-2.797-0.465-4.793-1.396-5.988c-0.93-1.194-2.416-1.792-4.457-1.792
		c-1.753,0-3.095,0.682-4.025,2.044c-0.931,1.363-1.396,3.287-1.396,5.772c0,2.521,0.462,4.425,1.387,5.709
		C162.292,118.293,163.648,118.935,165.437,118.935z"/>
	<path fill="#FFFFFF" d="M180.331,95.99c0-0.684,0.168-1.186,0.504-1.503c0.336-0.318,0.756-0.478,1.261-0.478
		c0.48,0,0.894,0.162,1.243,0.486c0.348,0.324,0.522,0.822,0.522,1.494c0,0.673-0.174,1.174-0.522,1.504
		c-0.349,0.331-0.763,0.496-1.243,0.496c-0.504,0-0.925-0.165-1.261-0.496C180.499,97.164,180.331,96.663,180.331,95.99z
		 M183.573,121.078h-2.989V101.34h2.989V121.078z"/>
	<path fill="#FFFFFF" d="M198.251,121.438c-2.917,0-5.22-0.889-6.907-2.666c-1.687-1.776-2.53-4.243-2.53-7.401
		c0-3.182,0.783-5.709,2.35-7.582s3.671-2.81,6.312-2.81c2.473,0,4.43,0.813,5.871,2.44s2.161,3.772,2.161,6.438v1.891h-13.597
		c0.06,2.317,0.645,4.076,1.756,5.277c1.11,1.2,2.674,1.801,4.691,1.801c2.125,0,4.226-0.444,6.303-1.333v2.665
		c-1.057,0.457-2.056,0.784-2.999,0.982C200.721,121.339,199.583,121.438,198.251,121.438z M197.44,103.482
		c-1.585,0-2.849,0.517-3.791,1.549c-0.943,1.033-1.498,2.462-1.666,4.286h10.32c0-1.885-0.42-3.328-1.261-4.331
		C200.202,103.984,199.001,103.482,197.44,103.482z"/>
	<path fill="#FFFFFF" d="M224.113,121.078V108.31c0-1.609-0.366-2.81-1.099-3.603c-0.732-0.792-1.879-1.188-3.439-1.188
		c-2.065,0-3.578,0.559-4.539,1.675c-0.96,1.117-1.44,2.96-1.44,5.529v10.355h-2.989V101.34h2.431l0.486,2.701h0.145
		c0.612-0.973,1.471-1.726,2.575-2.26s2.335-0.802,3.692-0.802c2.377,0,4.166,0.573,5.366,1.72c1.201,1.146,1.802,2.98,1.802,5.502
		v12.877H224.113z"/>
	<path fill="#FFFFFF" d="M241.131,121.438c-2.857,0-5.069-0.88-6.637-2.639c-1.566-1.759-2.35-4.247-2.35-7.465
		c0-3.302,0.795-5.854,2.386-7.654s3.857-2.701,6.799-2.701c0.948,0,1.897,0.102,2.846,0.306c0.948,0.205,1.693,0.444,2.233,0.721
		l-0.919,2.539c-0.66-0.264-1.381-0.482-2.161-0.657c-0.78-0.174-1.471-0.261-2.071-0.261c-4.01,0-6.015,2.558-6.015,7.672
		c0,2.426,0.489,4.286,1.468,5.583s2.428,1.945,4.35,1.945c1.645,0,3.331-0.354,5.061-1.062v2.647
		C244.799,121.096,243.136,121.438,241.131,121.438z"/>
	<path fill="#FFFFFF" d="M259.141,121.438c-2.917,0-5.22-0.889-6.906-2.666c-1.688-1.776-2.53-4.243-2.53-7.401
		c0-3.182,0.783-5.709,2.35-7.582c1.567-1.873,3.671-2.81,6.312-2.81c2.474,0,4.431,0.813,5.871,2.44
		c1.441,1.627,2.161,3.772,2.161,6.438v1.891h-13.597c0.06,2.317,0.646,4.076,1.756,5.277c1.11,1.2,2.675,1.801,4.691,1.801
		c2.125,0,4.227-0.444,6.304-1.333v2.665c-1.057,0.457-2.057,0.784-2.999,0.982C261.612,121.339,260.474,121.438,259.141,121.438z
		 M258.331,103.482c-1.584,0-2.849,0.517-3.791,1.549c-0.942,1.033-1.497,2.462-1.665,4.286h10.319c0-1.885-0.421-3.328-1.261-4.331
		C261.092,103.984,259.892,103.482,258.331,103.482z"/>
	<path fill="#FFFFFF" d="M281.528,94.748h7.438c3.494,0,6.021,0.522,7.582,1.566c1.561,1.045,2.342,2.696,2.342,4.953
		c0,1.561-0.436,2.849-1.306,3.863c-0.871,1.015-2.141,1.672-3.81,1.972v0.181c3.998,0.684,5.997,2.785,5.997,6.303
		c0,2.354-0.795,4.19-2.386,5.511c-1.591,1.321-3.815,1.981-6.673,1.981h-9.185V94.748z M284.589,106.022h5.043
		c2.161,0,3.716-0.34,4.664-1.018c0.948-0.679,1.423-1.822,1.423-3.432c0-1.477-0.528-2.542-1.585-3.196s-2.737-0.981-5.043-0.981
		h-4.502V106.022z M284.589,108.615v9.852h5.493c2.125,0,3.725-0.411,4.799-1.233c1.075-0.822,1.612-2.11,1.612-3.863
		c0-1.633-0.549-2.834-1.647-3.602c-1.099-0.769-2.771-1.153-5.016-1.153H284.589z"/>
	<path fill="#FFFFFF" d="M307.786,101.34v12.805c0,1.609,0.366,2.81,1.099,3.602c0.731,0.793,1.879,1.188,3.439,1.188
		c2.065,0,3.575-0.563,4.529-1.692c0.955-1.129,1.432-2.972,1.432-5.529V101.34h2.99v19.738h-2.468l-0.432-2.647h-0.162
		c-0.612,0.973-1.462,1.717-2.549,2.233c-1.087,0.516-2.326,0.774-3.719,0.774c-2.401,0-4.199-0.57-5.395-1.711
		c-1.194-1.141-1.792-2.966-1.792-5.475V101.34H307.786z"/>
	<path fill="#FFFFFF" d="M327.363,95.99c0-0.684,0.168-1.186,0.504-1.503c0.336-0.318,0.757-0.478,1.261-0.478
		c0.479,0,0.895,0.162,1.242,0.486c0.349,0.324,0.522,0.822,0.522,1.494c0,0.673-0.174,1.174-0.522,1.504
		c-0.348,0.331-0.763,0.496-1.242,0.496c-0.504,0-0.925-0.165-1.261-0.496C327.531,97.164,327.363,96.663,327.363,95.99z
		 M330.604,121.078h-2.989V101.34h2.989V121.078z"/>
	<path fill="#FFFFFF" d="M339.932,121.078h-2.989V93.055h2.989V121.078z"/>
	<path fill="#FFFFFF" d="M359.707,118.431h-0.162c-1.381,2.005-3.445,3.008-6.195,3.008c-2.581,0-4.589-0.883-6.023-2.647
		c-1.436-1.765-2.152-4.274-2.152-7.528c0-3.253,0.72-5.781,2.161-7.582c1.44-1.801,3.445-2.701,6.015-2.701
		c2.678,0,4.73,0.973,6.16,2.917h0.233l-0.126-1.422l-0.072-1.387v-8.033h2.99v28.023h-2.432L359.707,118.431z M353.728,118.935
		c2.041,0,3.521-0.555,4.439-1.665c0.918-1.111,1.377-2.902,1.377-5.376v-0.631c0-2.797-0.465-4.793-1.396-5.988
		c-0.931-1.194-2.416-1.792-4.457-1.792c-1.753,0-3.095,0.682-4.025,2.044c-0.931,1.363-1.396,3.287-1.396,5.772
		c0,2.521,0.462,4.425,1.387,5.709C350.582,118.293,351.939,118.935,353.728,118.935z"/>
	<path fill="#FFFFFF" d="M377.212,121.438c-2.917,0-5.22-0.889-6.906-2.666c-1.688-1.776-2.53-4.243-2.53-7.401
		c0-3.182,0.783-5.709,2.35-7.582c1.567-1.873,3.671-2.81,6.312-2.81c2.474,0,4.431,0.813,5.871,2.44
		c1.441,1.627,2.161,3.772,2.161,6.438v1.891h-13.597c0.06,2.317,0.646,4.076,1.756,5.277c1.11,1.2,2.675,1.801,4.691,1.801
		c2.125,0,4.227-0.444,6.304-1.333v2.665c-1.057,0.457-2.057,0.784-2.999,0.982C379.683,121.339,378.545,121.438,377.212,121.438z
		 M376.402,103.482c-1.584,0-2.849,0.517-3.791,1.549c-0.942,1.033-1.497,2.462-1.665,4.286h10.319c0-1.885-0.421-3.328-1.261-4.331
		C379.164,103.984,377.963,103.482,376.402,103.482z"/>
	<path fill="#FFFFFF" d="M398.572,100.979c0.876,0,1.662,0.072,2.359,0.216l-0.415,2.773c-0.816-0.18-1.536-0.27-2.161-0.27
		c-1.597,0-2.962,0.648-4.097,1.944c-1.135,1.297-1.702,2.912-1.702,4.845v10.59h-2.989V101.34h2.467l0.343,3.655h0.144
		c0.732-1.284,1.615-2.274,2.647-2.971S397.334,100.979,398.572,100.979z"/>
	<path fill="#FFFFFF" d="M417.356,115.693c0,1.837-0.685,3.254-2.053,4.25c-1.369,0.997-3.29,1.495-5.764,1.495
		c-2.617,0-4.658-0.414-6.123-1.243v-2.773c0.948,0.48,1.966,0.858,3.053,1.135s2.134,0.414,3.143,0.414
		c1.561,0,2.762-0.249,3.603-0.747c0.84-0.498,1.26-1.258,1.26-2.278c0-0.769-0.333-1.426-0.999-1.972
		c-0.666-0.547-1.966-1.191-3.899-1.937c-1.837-0.685-3.143-1.281-3.917-1.792c-0.774-0.51-1.351-1.09-1.729-1.737
		c-0.379-0.648-0.567-1.423-0.567-2.323c0-1.609,0.654-2.879,1.963-3.81s3.104-1.396,5.385-1.396c2.125,0,4.202,0.432,6.231,1.297
		l-1.062,2.431c-1.981-0.816-3.776-1.225-5.385-1.225c-1.417,0-2.485,0.223-3.206,0.667s-1.08,1.057-1.08,1.837
		c0,0.528,0.135,0.979,0.405,1.351c0.27,0.372,0.705,0.727,1.306,1.062c0.6,0.336,1.753,0.822,3.457,1.459
		c2.342,0.853,3.924,1.711,4.746,2.575S417.356,114.385,417.356,115.693z"/>
</g>
<g>
	<path fill="#FFFFFF" d="M83.39,70.564c-14.057,0-25.513-11.437-25.513-25.495c0-14.064,11.456-25.503,25.513-25.503
		c14.059,0,25.475,11.438,25.475,25.503C108.864,59.129,97.448,70.564,83.39,70.564z M83.39,27.818
		c-9.53,0-17.263,7.744-17.263,17.271c0,9.491,7.732,17.243,17.263,17.243c9.521,0,17.242-7.752,17.242-17.243
		C100.632,35.562,92.91,27.818,83.39,27.818z"/>
</g>
<polygon fill="#FFFFFF" points="206.481,70.564 219.208,70.564 190.597,41.901 212.931,19.565 200.203,19.565 184.237,35.302 
	184.067,34.902 184.067,0.565 175.067,0.565 175.067,70.564 184.067,70.564 184.067,47.971 184.252,48.016 "/>
<path fill="#FFFFFF" d="M357.175,43.942c-6.604-4.793-19.406-3.343-26.113-5.232c-3.191-1.009-4.766-2.752-4.621-4.863
	c0.309-4.589,5.678-7.51,13.598-7.157c7.689,0.345,12.993,3.017,13.685,9.799c5.524,0,6.801,0.15,9.01-0.089
	c0-9.904-7.75-18.265-23.341-18.265c-13.229,0-21.688,6.385-21.688,15.022c0,3.924,1.027,7.7,4.687,10.447
	c4.948,3.33,8.603,3.483,23.376,4.91c4.275,1.082,8.104,2.593,7.956,6.794c-1.351,4.983-7.021,6.421-14.949,6.483
	c-7.024,0.057-12.935-4.35-13.683-11.388c-8.459-0.121-2.463-0.099-9.359-0.062c0,9.662,9.568,19.947,23.047,20.218
	c13.225,0.262,23.954-6.995,23.954-15.633C362.731,50.995,360.845,46.693,357.175,43.942z"/>
<path fill="#FFFFFF" d="M260.357,19.131v28.182c0,12.839,10.4,23.253,23.23,23.253c12.86,0,23.258-10.415,23.258-23.253V19.131
	h-8.408v28.203c0,8.194-6.633,14.849-14.85,14.849c-8.176,0-14.844-6.654-14.844-14.849V19.131H260.357z"/>
<path fill="#FFFFFF" d="M394.775,19.131c-5.564,0-10.708,1.961-14.708,5.229V0.565h-9v70h0.44h8.388h0.172V40.225
	c1.042-7.18,7.462-12.711,14.912-12.711c8.216,0,15.089,6.654,15.089,14.849v28.204h8V42.384
	C418.068,29.545,407.636,19.131,394.775,19.131z"/>
<path fill="#FFFFFF" d="M225.067,70.564V41.738c0-13.131,10.646-23.789,23.769-23.789c1.824,0,3.304,0.164,4.478,0.448
	c0.399,0.097-4.219,8.132-4.478,8.132c-8.367,0-15.19,6.804-15.19,15.188v28.85h-8.578V70.564z"/>
<path fill="#FFFFFF" d="M26.369,8.768c-8.571,0-15.514,6.944-15.514,15.519v26.857h16.768l-0.002,8.781H10.853v10.642H2.067V24.308
	C2.067,10.883,12.948,0.002,26.369,0c0.45,0,0.892,0.019,1.333,0.037v8.815C27.261,8.812,26.821,8.768,26.369,8.768z"/>
</svg>
