<?xml version="1.0" encoding="utf-8"?>
<!-- Generator: Adobe Illustrator 15.1.0, SVG Export Plug-In . SVG Version: 6.00 Build 0)  -->
<!DOCTYPE svg PUBLIC "-//W3C//DTD SVG 1.1//EN" "http://www.w3.org/Graphics/SVG/1.1/DTD/svg11.dtd">
<svg version="1.1" id="Layer_1" xmlns="http://www.w3.org/2000/svg" xmlns:xlink="http://www.w3.org/1999/xlink" x="0px" y="0px"
	 width="418.304px" height="131.742px" viewBox="0 0 418.304 131.742" enable-background="new 0 0 418.304 131.742"
	 xml:space="preserve">
<path fill="#FFFFFF" d="M53.297,61.798c-5.462-1.27-7.132-4.575-7.063-15.519V19.421V10.64V0.003L37.44,0l0.004,46.256
	c0,13.425,2.295,22.787,15.853,24.311C53.354,67.803,53.177,63.933,53.297,61.798z"/>
<g>
	<path fill="#FFFFFF" d="M158.306,51.097c-2.459,6.542-8.752,11.221-16.141,11.221c-9.52,0-17.266-7.741-17.266-17.252
		c0-9.515,7.746-17.256,17.266-17.256c6.834,0,12.738,4.003,15.525,9.785c8.783-0.178,0,0,8.783-0.178
		c-3.254-10.333-12.92-17.85-24.309-17.85c-14.066,0-25.506,11.437-25.506,25.492c0,14.064,11.439,25.505,25.506,25.505
		c11.826,0,21.799-8.114,24.656-19.065C162.946,51.283,160.487,51.298,158.306,51.097z"/>
</g>
<g enable-background="new    ">
	<path fill="#FFFFFF" d="M18.916,114.432c0,2.275-0.836,4.079-2.509,5.409c-1.672,1.331-3.896,1.996-6.669,1.996
		c-3.333,0-5.888-0.367-7.667-1.101v-1.902c1.965,0.833,4.47,1.249,7.518,1.249c2.238,0,4.014-0.513,5.326-1.538
		c1.312-1.026,1.968-2.372,1.968-4.039c0-1.032-0.218-1.887-0.653-2.565c-0.435-0.678-1.144-1.296-2.126-1.855
		s-2.425-1.163-4.328-1.81c-2.786-0.958-4.71-1.993-5.773-3.106c-1.063-1.112-1.595-2.596-1.595-4.448
		c0-2.04,0.799-3.703,2.397-4.99c1.598-1.287,3.653-1.931,6.165-1.931c2.562,0,4.968,0.484,7.219,1.455l-0.69,1.642
		c-2.263-0.945-4.427-1.418-6.492-1.418c-2.015,0-3.619,0.466-4.812,1.399C5,97.811,4.402,99.079,4.402,100.683
		c0,1.008,0.184,1.835,0.55,2.481s0.967,1.229,1.8,1.744c0.833,0.517,2.263,1.135,4.291,1.856c2.126,0.733,3.724,1.445,4.794,2.136
		c1.069,0.69,1.85,1.474,2.341,2.351C18.67,112.127,18.916,113.188,18.916,114.432z"/>
	<path fill="#FFFFFF" d="M40.984,111.297c0,3.309-0.802,5.893-2.407,7.751c-1.604,1.859-3.818,2.789-6.641,2.789
		c-1.779,0-3.346-0.429-4.701-1.287s-2.394-2.089-3.115-3.693s-1.082-3.457-1.082-5.56c0-3.308,0.802-5.885,2.407-7.731
		c1.604-1.847,3.805-2.771,6.604-2.771c2.786,0,4.971,0.936,6.557,2.808C40.191,105.475,40.984,108.039,40.984,111.297z
		 M24.978,111.297c0,2.786,0.613,4.96,1.838,6.521c1.225,1.561,2.957,2.341,5.195,2.341c2.239,0,3.97-0.78,5.195-2.341
		s1.837-3.734,1.837-6.521c0-2.798-0.619-4.968-1.856-6.51c-1.238-1.542-2.976-2.313-5.214-2.313s-3.964,0.769-5.177,2.304
		C25.584,106.313,24.978,108.487,24.978,111.297z"/>
	<path fill="#FFFFFF" d="M54.694,121.837c-2.898,0-5.167-0.914-6.809-2.742s-2.462-4.377-2.462-7.648
		c0-3.357,0.852-5.972,2.556-7.844s4.036-2.808,6.996-2.808c1.753,0,3.432,0.305,5.037,0.914l-0.504,1.642
		c-1.753-0.584-3.277-0.877-4.57-0.877c-2.487,0-4.372,0.769-5.652,2.304c-1.281,1.536-1.922,3.747-1.922,6.632
		c0,2.736,0.641,4.878,1.922,6.427c1.28,1.548,3.071,2.322,5.372,2.322c1.84,0,3.551-0.329,5.13-0.989v1.717
		C58.493,121.52,56.796,121.837,54.694,121.837z"/>
	<path fill="#FFFFFF" d="M64.488,95.553c0-1.193,0.392-1.79,1.175-1.79c0.385,0,0.687,0.155,0.905,0.466
		c0.217,0.312,0.327,0.753,0.327,1.324c0,0.56-0.109,1.002-0.327,1.325c-0.218,0.323-0.52,0.484-0.905,0.484
		C64.88,97.362,64.488,96.76,64.488,95.553z M66.596,121.464h-1.847v-20.277h1.847V121.464z"/>
	<path fill="#FFFFFF" d="M85.698,121.464l-0.466-3.209h-0.149c-1.02,1.307-2.068,2.229-3.143,2.771
		c-1.076,0.541-2.348,0.812-3.815,0.812c-1.99,0-3.538-0.51-4.645-1.529s-1.66-2.432-1.66-4.234c0-1.978,0.824-3.514,2.472-4.608
		c1.648-1.094,4.032-1.672,7.154-1.734l3.861-0.112v-1.343c0-1.928-0.392-3.383-1.175-4.365c-0.784-0.982-2.046-1.474-3.787-1.474
		c-1.878,0-3.824,0.522-5.839,1.567l-0.69-1.604c2.226-1.045,4.427-1.567,6.604-1.567c2.226,0,3.89,0.578,4.99,1.735
		c1.101,1.156,1.651,2.96,1.651,5.409v13.487H85.698z M78.236,120.158c2.164,0,3.871-0.618,5.121-1.856
		c1.25-1.237,1.875-2.956,1.875-5.157v-1.996l-3.544,0.148c-2.848,0.138-4.878,0.582-6.091,1.334
		c-1.212,0.753-1.819,1.925-1.819,3.517c0,1.269,0.389,2.254,1.166,2.957C75.721,119.807,76.818,120.158,78.236,120.158z"/>
	<path fill="#FFFFFF" d="M95.473,121.464h-1.847V92.438h1.847V121.464z"/>
	<path fill="#FFFFFF" d="M125.786,111.838h-11.081l-3.806,9.626h-2.108l10.969-27.385h1.212l10.745,27.385h-2.146L125.786,111.838z
		 M115.396,110.122h9.756l-3.712-9.831c-0.311-0.771-0.684-1.84-1.119-3.208c-0.336,1.193-0.703,2.275-1.101,3.245L115.396,110.122z
		"/>
	<path fill="#FFFFFF" d="M136.717,101.187v13.133c0,2.04,0.429,3.522,1.287,4.449c0.858,0.927,2.188,1.39,3.992,1.39
		c2.413,0,4.188-0.609,5.326-1.828c1.138-1.219,1.707-3.202,1.707-5.951v-11.192h1.828v20.277h-1.567l-0.336-2.798h-0.112
		c-1.318,2.114-3.663,3.171-7.033,3.171c-4.614,0-6.92-2.469-6.92-7.405v-13.245H136.717z"/>
	<path fill="#FFFFFF" d="M165.072,100.795c1.467,0,2.736,0.268,3.805,0.802c1.07,0.535,2.027,1.449,2.873,2.742h0.111
		c-0.074-1.566-0.111-3.103-0.111-4.607v-7.294h1.828v29.026h-1.213l-0.467-3.097h-0.148c-1.543,2.313-3.756,3.47-6.641,3.47
		c-2.799,0-4.938-0.87-6.417-2.611c-1.48-1.741-2.22-4.278-2.22-7.611c0-3.507,0.734-6.187,2.201-8.04
		C160.141,101.722,162.273,100.795,165.072,100.795z M165.072,102.474c-2.215,0-3.877,0.777-4.99,2.332s-1.67,3.812-1.67,6.771
		c0,5.745,2.232,8.618,6.697,8.618c2.287,0,3.967-0.665,5.037-1.996c1.068-1.33,1.604-3.525,1.604-6.585v-0.317
		c0-3.134-0.525-5.388-1.576-6.762S167.422,102.474,165.072,102.474z"/>
	<path fill="#FFFFFF" d="M180.126,95.553c0-1.193,0.392-1.79,1.176-1.79c0.385,0,0.687,0.155,0.904,0.466
		c0.218,0.312,0.326,0.753,0.326,1.324c0,0.56-0.108,1.002-0.326,1.325s-0.52,0.484-0.904,0.484
		C180.518,97.362,180.126,96.76,180.126,95.553z M182.234,121.464h-1.847v-20.277h1.847V121.464z"/>
	<path fill="#FFFFFF" d="M197.213,121.837c-2.947,0-5.245-0.907-6.893-2.724c-1.647-1.815-2.472-4.358-2.472-7.63
		c0-3.232,0.796-5.822,2.388-7.77c1.592-1.945,3.737-2.919,6.436-2.919c2.388,0,4.272,0.833,5.652,2.5
		c1.381,1.666,2.071,3.93,2.071,6.79v1.492h-14.606c0.024,2.786,0.674,4.912,1.949,6.38c1.274,1.468,3.1,2.201,5.475,2.201
		c1.157,0,2.174-0.081,3.051-0.242c0.876-0.162,1.986-0.51,3.329-1.045v1.679c-1.145,0.497-2.201,0.837-3.171,1.017
		C199.452,121.747,198.382,121.837,197.213,121.837z M196.672,102.437c-1.952,0-3.52,0.644-4.7,1.931
		c-1.182,1.287-1.872,3.144-2.071,5.568h12.536c0-2.351-0.51-4.188-1.529-5.513C199.887,103.099,198.476,102.437,196.672,102.437z"
		/>
	<path fill="#FFFFFF" d="M224.132,121.464v-13.151c0-2.039-0.43-3.522-1.287-4.449c-0.859-0.926-2.189-1.39-3.992-1.39
		c-2.426,0-4.201,0.613-5.326,1.838s-1.688,3.212-1.688,5.96v11.192h-1.848v-20.277h1.566l0.355,2.779h0.111
		c1.318-2.113,3.662-3.171,7.033-3.171c4.602,0,6.902,2.469,6.902,7.405v13.264H224.132z"/>
	<path fill="#FFFFFF" d="M240.623,121.837c-2.898,0-5.168-0.914-6.809-2.742c-1.643-1.828-2.463-4.377-2.463-7.648
		c0-3.357,0.852-5.972,2.555-7.844c1.705-1.872,4.035-2.808,6.996-2.808c1.754,0,3.432,0.305,5.037,0.914l-0.504,1.642
		c-1.754-0.584-3.277-0.877-4.57-0.877c-2.488,0-4.371,0.769-5.652,2.304c-1.281,1.536-1.922,3.747-1.922,6.632
		c0,2.736,0.641,4.878,1.922,6.427c1.281,1.548,3.072,2.322,5.373,2.322c1.84,0,3.549-0.329,5.129-0.989v1.717
		C244.421,121.52,242.724,121.837,240.623,121.837z"/>
	<path fill="#FFFFFF" d="M258.865,121.837c-2.947,0-5.244-0.907-6.893-2.724c-1.646-1.815-2.471-4.358-2.471-7.63
		c0-3.232,0.795-5.822,2.387-7.77c1.592-1.945,3.738-2.919,6.436-2.919c2.389,0,4.273,0.833,5.652,2.5
		c1.381,1.666,2.072,3.93,2.072,6.79v1.492h-14.607c0.025,2.786,0.674,4.912,1.949,6.38s3.1,2.201,5.475,2.201
		c1.158,0,2.174-0.081,3.051-0.242c0.877-0.162,1.986-0.51,3.33-1.045v1.679c-1.145,0.497-2.201,0.837-3.172,1.017
		C261.105,121.747,260.035,121.837,258.865,121.837z M258.324,102.437c-1.951,0-3.52,0.644-4.699,1.931
		c-1.182,1.287-1.873,3.144-2.072,5.568h12.537c0-2.351-0.51-4.188-1.529-5.513C261.539,103.099,260.128,102.437,258.324,102.437z"
		/>
	<path fill="#FFFFFF" d="M282.035,94.191h7.48c3.369,0,5.844,0.572,7.424,1.716c1.58,1.145,2.369,2.873,2.369,5.187
		c0,1.579-0.482,2.895-1.445,3.945c-0.965,1.051-2.373,1.726-4.225,2.023v0.112c2.176,0.323,3.777,1.011,4.803,2.062
		s1.539,2.515,1.539,4.393c0,2.513-0.834,4.446-2.5,5.802s-4.029,2.033-7.088,2.033h-8.357V94.191z M283.937,106.335h6.006
		c2.562,0,4.426-0.426,5.588-1.277s1.744-2.186,1.744-4.002c0-1.815-0.656-3.134-1.969-3.954c-1.312-0.821-3.268-1.231-5.865-1.231
		h-5.504V106.335z M283.937,108.014v11.771h6.418c5.049,0,7.572-2.052,7.572-6.156c0-3.743-2.66-5.615-7.984-5.615H283.937z"/>
	<path fill="#FFFFFF" d="M307.125,101.187v13.133c0,2.04,0.43,3.522,1.287,4.449s2.189,1.39,3.992,1.39
		c2.412,0,4.188-0.609,5.326-1.828c1.137-1.219,1.707-3.202,1.707-5.951v-11.192h1.828v20.277h-1.568l-0.336-2.798h-0.111
		c-1.318,2.114-3.662,3.171-7.033,3.171c-4.613,0-6.92-2.469-6.92-7.405v-13.245H307.125z"/>
	<path fill="#FFFFFF" d="M327.792,95.553c0-1.193,0.393-1.79,1.176-1.79c0.385,0,0.688,0.155,0.904,0.466
		c0.219,0.312,0.326,0.753,0.326,1.324c0,0.56-0.107,1.002-0.326,1.325c-0.217,0.323-0.52,0.484-0.904,0.484
		C328.185,97.362,327.792,96.76,327.792,95.553z M329.902,121.464h-1.848v-20.277h1.848V121.464z"/>
	<path fill="#FFFFFF" d="M338.539,121.464h-1.848V92.438h1.848V121.464z"/>
	<path fill="#FFFFFF" d="M352.751,100.795c1.469,0,2.736,0.268,3.807,0.802c1.068,0.535,2.027,1.449,2.873,2.742h0.111
		c-0.074-1.566-0.111-3.103-0.111-4.607v-7.294h1.828v29.026h-1.213l-0.467-3.097h-0.148c-1.543,2.313-3.756,3.47-6.643,3.47
		c-2.797,0-4.936-0.87-6.416-2.611s-2.221-4.278-2.221-7.611c0-3.507,0.734-6.187,2.201-8.04
		C347.822,101.722,349.955,100.795,352.751,100.795z M352.751,102.474c-2.213,0-3.877,0.777-4.99,2.332
		c-1.111,1.555-1.668,3.812-1.668,6.771c0,5.745,2.23,8.618,6.695,8.618c2.289,0,3.969-0.665,5.037-1.996
		c1.07-1.33,1.605-3.525,1.605-6.585v-0.317c0-3.134-0.525-5.388-1.576-6.762C356.802,103.161,355.103,102.474,352.751,102.474z"/>
	<path fill="#FFFFFF" d="M376.257,121.837c-2.947,0-5.246-0.907-6.893-2.724c-1.648-1.815-2.473-4.358-2.473-7.63
		c0-3.232,0.797-5.822,2.389-7.77c1.592-1.945,3.736-2.919,6.436-2.919c2.387,0,4.271,0.833,5.652,2.5
		c1.381,1.666,2.07,3.93,2.07,6.79v1.492h-14.605c0.023,2.786,0.674,4.912,1.949,6.38c1.273,1.468,3.1,2.201,5.475,2.201
		c1.156,0,2.174-0.081,3.051-0.242c0.875-0.162,1.986-0.51,3.328-1.045v1.679c-1.145,0.497-2.201,0.837-3.17,1.017
		C378.496,121.747,377.425,121.837,376.257,121.837z M375.716,102.437c-1.953,0-3.52,0.644-4.701,1.931s-1.871,3.144-2.07,5.568
		h12.535c0-2.351-0.51-4.188-1.529-5.513C378.931,103.099,377.519,102.437,375.716,102.437z"/>
	<path fill="#FFFFFF" d="M397.019,100.795c0.857,0,1.777,0.087,2.76,0.261l-0.354,1.772c-0.846-0.211-1.723-0.317-2.631-0.317
		c-1.729,0-3.146,0.734-4.252,2.201c-1.107,1.468-1.66,3.321-1.66,5.56v11.192h-1.848v-20.277h1.566l0.188,3.656h0.131
		c0.832-1.492,1.723-2.54,2.666-3.144C394.531,101.097,395.675,100.795,397.019,100.795z"/>
	<path fill="#FFFFFF" d="M416.476,116.185c0,1.816-0.689,3.212-2.07,4.188c-1.381,0.976-3.34,1.464-5.877,1.464
		c-2.711,0-4.861-0.416-6.453-1.25v-1.996c2.039,1.021,4.189,1.53,6.453,1.53c2.002,0,3.523-0.333,4.561-0.998
		c1.039-0.665,1.559-1.552,1.559-2.658c0-1.02-0.414-1.878-1.24-2.574c-0.828-0.696-2.186-1.381-4.076-2.053
		c-2.027-0.733-3.451-1.364-4.271-1.893c-0.822-0.529-1.439-1.126-1.857-1.791c-0.416-0.665-0.625-1.477-0.625-2.435
		c0-1.518,0.639-2.717,1.912-3.601c1.275-0.883,3.057-1.324,5.346-1.324c2.188,0,4.266,0.41,6.23,1.231l-0.691,1.679
		c-1.988-0.821-3.836-1.231-5.539-1.231c-1.654,0-2.967,0.273-3.938,0.821c-0.969,0.547-1.453,1.306-1.453,2.275
		c0,1.058,0.375,1.903,1.127,2.537c0.754,0.634,2.223,1.343,4.412,2.127c1.828,0.659,3.158,1.253,3.992,1.781s1.459,1.129,1.875,1.8
		C416.267,114.487,416.476,115.277,416.476,116.185z"/>
</g>
<g>
	<path fill="#FFFFFF" d="M83.39,70.564c-14.057,0-25.513-11.437-25.513-25.495c0-14.064,11.456-25.503,25.513-25.503
		c14.059,0,25.475,11.438,25.475,25.503C108.864,59.129,97.448,70.564,83.39,70.564z M83.39,27.818
		c-9.53,0-17.263,7.744-17.263,17.271c0,9.491,7.732,17.243,17.263,17.243c9.521,0,17.242-7.752,17.242-17.243
		C100.632,35.562,92.91,27.818,83.39,27.818z"/>
</g>
<polygon fill="#FFFFFF" points="206.481,70.564 219.208,70.564 190.597,41.901 212.931,19.565 200.203,19.565 184.237,35.302 
	184.067,34.902 184.067,0.565 175.067,0.565 175.067,70.564 184.067,70.564 184.067,47.971 184.252,48.016 "/>
<path fill="#FFFFFF" d="M357.175,43.942c-6.604-4.793-19.406-3.343-26.113-5.232c-3.191-1.009-4.766-2.752-4.621-4.863
	c0.309-4.589,5.678-7.51,13.598-7.157c7.689,0.345,12.993,3.017,13.685,9.799c5.524,0,6.801,0.15,9.01-0.089
	c0-9.904-7.75-18.265-23.341-18.265c-13.229,0-21.688,6.385-21.688,15.022c0,3.924,1.027,7.7,4.687,10.447
	c4.948,3.33,8.603,3.483,23.376,4.91c4.275,1.082,8.104,2.593,7.956,6.794c-1.351,4.983-7.021,6.421-14.949,6.483
	c-7.024,0.057-12.935-4.35-13.683-11.388c-8.459-0.121-2.463-0.099-9.359-0.062c0,9.662,9.568,19.947,23.047,20.218
	c13.225,0.262,23.954-6.995,23.954-15.633C362.731,50.995,360.845,46.693,357.175,43.942z"/>
<path fill="#FFFFFF" d="M260.357,19.131v28.182c0,12.839,10.4,23.253,23.23,23.253c12.86,0,23.258-10.415,23.258-23.253V19.131
	h-8.408v28.203c0,8.194-6.633,14.849-14.85,14.849c-8.176,0-14.844-6.654-14.844-14.849V19.131H260.357z"/>
<path fill="#FFFFFF" d="M394.775,19.131c-5.564,0-10.708,1.961-14.708,5.229V0.565h-9v70h0.44h8.388h0.172V40.225
	c1.042-7.18,7.462-12.711,14.912-12.711c8.216,0,15.089,6.654,15.089,14.849v28.204h8V42.384
	C418.068,29.545,407.636,19.131,394.775,19.131z"/>
<path fill="#FFFFFF" d="M225.067,70.564V41.738c0-13.131,10.646-23.789,23.769-23.789c1.824,0,3.304,0.164,4.478,0.448
	c0.399,0.097-4.219,8.132-4.478,8.132c-8.367,0-15.19,6.804-15.19,15.188v28.85h-8.578V70.564z"/>
<path fill="#FFFFFF" d="M26.369,8.768c-8.571,0-15.514,6.944-15.514,15.519v26.857h16.768l-0.002,8.781H10.853v10.642H2.067V24.308
	C2.067,10.883,12.948,0.002,26.369,0c0.45,0,0.892,0.019,1.333,0.037v8.815C27.261,8.812,26.821,8.768,26.369,8.768z"/>
</svg>
