<?xml version="1.0" encoding="utf-8"?>
<!-- Generator: Adobe Illustrator 15.1.0, SVG Export Plug-In . SVG Version: 6.00 Build 0)  -->
<!DOCTYPE svg PUBLIC "-//W3C//DTD SVG 1.1//EN" "http://www.w3.org/Graphics/SVG/1.1/DTD/svg11.dtd">
<svg version="1.1" id="Layer_1" xmlns="http://www.w3.org/2000/svg" xmlns:xlink="http://www.w3.org/1999/xlink" x="0px" y="0px"
	 width="418.304px" height="131.742px" viewBox="0 0 418.304 131.742" enable-background="new 0 0 418.304 131.742"
	 xml:space="preserve">
<path fill="#FFFFFF" d="M53.297,61.798c-5.462-1.27-7.132-4.575-7.063-15.519V19.421V10.64V0.003L37.44,0l0.004,46.256
	c0,13.425,2.295,22.787,15.853,24.31C53.354,67.803,53.177,63.933,53.297,61.798z"/>
<g>
	<path fill="#FFFFFF" d="M158.306,51.097c-2.459,6.542-8.752,11.221-16.141,11.221c-9.52,0-17.266-7.741-17.266-17.252
		c0-9.515,7.746-17.256,17.266-17.256c6.834,0,12.738,4.003,15.525,9.785c8.783-0.178,0,0,8.783-0.178
		c-3.254-10.333-12.92-17.85-24.309-17.85c-14.066,0-25.506,11.437-25.506,25.492c0,14.064,11.439,25.506,25.506,25.506
		c11.826,0,21.799-8.115,24.656-19.066C162.946,51.283,160.487,51.298,158.306,51.097z"/>
</g>
<text transform="matrix(1 0 0 1 0 121.4639)" fill="#FFFFFF" font-family="'OpenSans-Light'" font-size="38.204">Social Audience Builders</text>
<g>
	<path fill="#FFFFFF" d="M83.39,70.565c-14.057,0-25.513-11.437-25.513-25.495c0-14.064,11.456-25.503,25.513-25.503
		c14.059,0,25.475,11.438,25.475,25.503C108.864,59.129,97.448,70.565,83.39,70.565z M83.39,27.818
		c-9.53,0-17.263,7.744-17.263,17.271c0,9.491,7.732,17.243,17.263,17.243c9.521,0,17.242-7.752,17.242-17.243
		C100.632,35.562,92.91,27.818,83.39,27.818z"/>
</g>
<polygon fill="#FFFFFF" points="206.481,70.565 219.208,70.565 190.597,41.901 212.931,19.565 200.203,19.565 184.237,35.302 
	184.067,34.902 184.067,0.565 175.067,0.565 175.067,70.565 184.067,70.565 184.067,47.971 184.252,48.016 "/>
<path fill="#FFFFFF" d="M357.175,43.942c-6.604-4.793-19.406-3.343-26.113-5.232c-3.192-1.009-4.766-2.752-4.621-4.863
	c0.309-4.589,5.678-7.51,13.597-7.157c7.69,0.345,12.994,3.017,13.685,9.799c5.524,0,6.801,0.15,9.01-0.089
	c0-9.904-7.75-18.265-23.341-18.265c-13.228,0-21.687,6.385-21.687,15.022c0,3.924,1.027,7.7,4.686,10.447
	c4.949,3.33,8.602,3.483,23.376,4.91c4.276,1.082,8.104,2.593,7.956,6.794c-1.35,4.983-7.021,6.421-14.949,6.483
	c-7.024,0.057-12.934-4.35-13.682-11.388c-8.459-0.121-2.463-0.099-9.36-0.062c0,9.662,9.568,19.947,23.047,20.218
	c13.225,0.261,23.954-6.995,23.954-15.633C362.731,50.995,360.845,46.693,357.175,43.942z"/>
<path fill="#FFFFFF" d="M260.357,19.131v28.182c0,12.839,10.4,23.253,23.231,23.253c12.86,0,23.257-10.414,23.257-23.253V19.131
	h-8.408v28.203c0,8.194-6.633,14.849-14.849,14.849c-8.177,0-14.845-6.654-14.845-14.849V19.131H260.357z"/>
<path fill="#FFFFFF" d="M394.775,19.131c-5.565,0-10.708,1.961-14.708,5.229V0.565h-9v70h0.441h8.387h0.172V40.225
	c1.042-7.18,7.462-12.711,14.912-12.711c8.216,0,15.088,6.654,15.088,14.849v28.203h8V42.384
	C418.067,29.545,407.636,19.131,394.775,19.131z"/>
<path fill="#FFFFFF" d="M225.067,70.565V41.738c0-13.131,10.645-23.789,23.768-23.789c1.824,0,3.304,0.164,4.478,0.448
	c0.4,0.097-4.219,8.132-4.478,8.132c-8.367,0-15.19,6.804-15.19,15.188v28.849H225.067z"/>
<path fill="#FFFFFF" d="M26.369,8.768c-8.571,0-15.514,6.944-15.514,15.519v26.857h16.768l-0.002,8.781H10.853v10.641H2.067V24.308
	C2.067,10.883,12.948,0.002,26.369,0c0.45,0,0.892,0.019,1.333,0.037v8.815C27.261,8.812,26.821,8.768,26.369,8.768z"/>
</svg>
