<svg xmlns="http://www.w3.org/2000/svg" width="300" height="300"><path fill="#0C6897" d="M0 0h300v300H0z"/><path fill="#fff" d="M60.2 126.72c-2.74 26.9-8.2 39.94-10.6 36.72-.7-.98-1.2-3.57-1.34-7.15 0-4.58.23-10.66.63-15.2 1.66-10.3 1.66-10.55 3.3-15.9 3.1-9.75 3.3-10.1 5.74-15.48l1.3-2.67c1.06-1.97 1.38-2.4 1.9-3.22l.37-.35h.4c.5 1.5-1.7 22.94-1.73 23.2zm173.53 30.02c3.04 23.68-17.06 48.47-39.9 31.22-17.32-13.08-18.97-41.4 3.05-53.55 19.92-8.2 34.62 5.2 36.85 22.36zM91.6 214.94c9.24 10 14.38 21.45 7 21.1-10.94-.46-36.04-25.2-31.18-34.05 4.02-3.87 15.64 3.73 24.17 12.92zm119.3 5.18c.85 5.18-.67 12.24-3.93 14.2-3.3 1.8-10.63-.44-14.96-3.65-6.94-5.2-8.86-14.4.2-20.1 9.8-4.82 17.34 1.25 18.7 9.55zM87 163.8c5.22 12.5-.32 24.65-9.8 21.17-9.96-3.57-15.5-22.42-6.43-30.38 7.1-4.76 13.76 3.1 16.22 9.2zm168.26-22.7c.94 8.4-2.64 14.48-6.66 11.53-5.04-3.57-8.35-20.64-1.56-23.4 4.2-.8 7.6 5.62 8.22 11.87zM183.7 52.84c9.83 3.04 14.8 7.23 10.76 9.3-9.3 4.73-43.1-8.05-41.76-11.26.13-.36.72-.54 1.2-.72 5.68-1.43 19-.72 29.8 2.68zm42.83 39.22c9.34 13.94 3.13 26.7-11.6 23.94-20.24-3.75-34.23-29.48-20.3-37.26.46-.26 1-.44 1.44-.62 12.02-3.84 24.97 5.8 30.47 13.94zM140.37 242.1c4.15 1.7 9.2 4.65 5.85 6.08-6.34 2.6-23.67-3.22-21.26-7.24l.22-.27c3.13-2.5 11.3-.08 15.2 1.43zm32.2-162.46c26.58 30.1-9.4 80.77-54.22 76.3-48.47-4.74-47.84-60.3-18.32-83.7 1.48-1.18 3.44-2.43 4.92-3.4 21.4-10.82 53.02-5.8 67.63 10.8zm-.62 113.33c12.24 21.97 3 47.88-34.44 37.25-27.84-7.77-42.9-36.27-19.53-53.56 21.08-11.8 44.4-.72 54 16.3z"/></svg>