<svg xmlns="http://www.w3.org/2000/svg" width="413.547" height="121.12"><path fill="#fff" d="M146.1 111.72c0 2.73-.57 4.7-1.7 5.9-1.13 1.23-2.9 1.83-5.3 1.83-1.8 0-3.1-.46-3.96-1.38-.86-.93-1.3-2.4-1.3-4.43V100.6h-1.8v13.16c0 4.9 2.3 7.36 6.88 7.36 3.35 0 5.68-1.05 7-3.16h.1l.33 2.8h1.56V100.6h-1.8v11.1zm-55.08 9.03h1.83V91.9h-1.83v28.85zM117 93.53l-10.9 27.22h2.1l3.77-9.57H123l3.76 9.57h2.13l-10.7-27.22H117zm5.36 15.94h-9.7l3.8-9.73c.4-.97.76-2.04 1.1-3.23.43 1.4.8 2.46 1.1 3.2l3.7 9.8zm249.1-9.27c-2.7 0-4.83.97-6.4 2.9s-2.38 4.5-2.38 7.73c0 3.25.8 5.78 2.45 7.58 1.64 1.84 3.92 2.74 6.85 2.74 1.16 0 2.23-.1 3.2-.27.96-.18 2-.52 3.15-1v-1.68c-1.34.52-2.44.87-3.3 1.03-.9.17-1.9.25-3.05.25-2.36 0-4.17-.73-5.44-2.2-1.27-1.45-1.9-3.56-1.94-6.33h14.52v-1.48c0-2.85-.68-5.1-2.06-6.75-1.37-1.66-3.24-2.5-5.6-2.5zm-6.75 9.1c.2-2.42.9-4.27 2.1-5.55 1.17-1.27 2.72-1.92 4.67-1.92 1.8 0 3.2.66 4.2 1.98 1.02 1.35 1.52 3.17 1.52 5.5h-12.5zm-286.8-9.06c-2.15 0-4.34.52-6.55 1.56l.68 1.6c2-1.05 3.95-1.57 5.82-1.57 1.73 0 2.98.5 3.76 1.47.8.98 1.18 2.42 1.18 4.34v1.33l-3.84.1c-3.1.08-5.46.65-7.1 1.74-1.64 1.1-2.46 2.64-2.46 4.6 0 1.8.55 3.2 1.65 4.2 1.1 1 2.63 1.54 4.6 1.54 1.47 0 2.73-.27 3.8-.8 1.07-.55 2.1-1.46 3.13-2.76h.14l.46 3.2h1.35v-13.42c0-2.44-.54-4.23-1.63-5.38-1.1-1.15-2.75-1.72-4.96-1.72zm4.8 12.24c0 2.18-.63 3.9-1.87 5.12-1.23 1.24-2.93 1.85-5.08 1.85-1.4 0-2.5-.35-3.27-1.05-.78-.7-1.16-1.68-1.16-2.94 0-1.58.6-2.74 1.8-3.5 1.2-.74 3.23-1.18 6.06-1.32l3.52-.15v1.96zm306.5-11.38c-.93.6-1.8 1.64-2.64 3.13h-.13l-.2-3.64h-1.55v20.13h1.84V109.6c0-2.22.55-4.06 1.65-5.5 1.1-1.47 2.5-2.2 4.23-2.2.9 0 1.77.1 2.6.3l.37-1.75c-.98-.17-1.9-.26-2.75-.26-1.33 0-2.47.3-3.4.9zm-359.4-.9c-2.78 0-4.97.92-6.56 2.76-1.6 1.83-2.4 4.4-2.4 7.68 0 2.1.36 3.93 1.08 5.53.72 1.6 1.75 2.82 3.1 3.67 1.35.85 2.9 1.28 4.67 1.28 2.8 0 5-.92 6.6-2.77 1.6-1.85 2.4-4.42 2.4-7.7 0-3.25-.8-5.8-2.4-7.66-1.57-1.9-3.75-2.8-6.5-2.8zm5.13 16.92c-1.22 1.55-2.94 2.33-5.16 2.33-2.23 0-3.95-.78-5.17-2.33-1.22-1.55-1.83-3.7-1.83-6.48 0-2.8.6-4.95 1.8-6.48 1.22-1.52 2.93-2.3 5.16-2.3s3.95.78 5.18 2.3c1.26 1.54 1.88 3.7 1.88 6.48 0 2.77-.6 4.93-1.83 6.48zm376.4-3.98c-.4-.66-1.02-1.26-1.85-1.8-.83-.5-2.15-1.1-3.97-1.76-2.15-.78-3.6-1.48-4.35-2.1-.75-.64-1.13-1.48-1.13-2.53 0-.97.5-1.72 1.46-2.26.96-.58 2.27-.85 3.9-.85 1.7 0 3.54.4 5.52 1.23l.7-1.68c-1.97-.82-4.03-1.23-6.2-1.23-2.28 0-4.05.43-5.32 1.3-1.27.9-1.9 2.08-1.9 3.6 0 .94.2 1.75.62 2.4.4.67 1.03 1.26 1.84 1.78.83.52 2.25 1.15 4.26 1.88 1.88.67 3.23 1.35 4.06 2.04.82.7 1.23 1.54 1.23 2.56 0 1.1-.53 1.98-1.56 2.64-1.03.66-2.55 1-4.53 1-2.26 0-4.4-.5-6.42-1.53v1.98c1.58.83 3.72 1.24 6.42 1.24 2.5 0 4.46-.5 5.83-1.47 1.38-.98 2.07-2.36 2.07-4.17 0-.9-.2-1.7-.63-2.36zM13.7 108.27c-1.07-.7-2.66-1.4-4.78-2.13-2-.7-3.43-1.33-4.26-1.84-.83-.53-1.43-1.1-1.8-1.74-.36-.65-.54-1.47-.54-2.47 0-1.6.6-2.9 1.78-3.8 1.2-.94 2.78-1.4 4.8-1.4 2.04 0 4.2.47 6.44 1.4l.7-1.63c-2.25-.97-4.64-1.46-7.2-1.46-2.5 0-4.53.66-6.12 1.94C1.12 96.4.34 98.07.34 100.1c0 1.84.53 3.3 1.58 4.42 1.06 1.1 2.97 2.14 5.74 3.1 1.9.63 3.33 1.23 4.3 1.8.98.54 1.7 1.16 2.12 1.83.43.67.65 1.52.65 2.55 0 1.67-.65 3-1.96 4.03-1.3 1.02-3.07 1.53-5.3 1.53-3.02 0-5.5-.42-7.47-1.25v1.9c1.77.74 4.3 1.1 7.63 1.1 2.75 0 4.96-.65 6.62-2 1.67-1.3 2.5-3.1 2.5-5.35 0-1.23-.25-2.3-.73-3.16-.5-.9-1.27-1.67-2.33-2.35zm38.86-6.4c1.28 0 2.8.3 4.54.88l.5-1.63c-1.6-.6-3.26-.9-5-.9-2.95 0-5.27.93-6.96 2.8-1.7 1.85-2.54 4.45-2.54 7.8 0 3.24.8 5.78 2.45 7.6 1.63 1.8 3.88 2.72 6.76 2.72 2.1 0 3.8-.3 5.1-.95v-1.7c-1.57.63-3.27.96-5.1.96-2.3 0-4.07-.77-5.35-2.3-1.27-1.55-1.9-3.68-1.9-6.4 0-2.86.63-5.06 1.9-6.6 1.28-1.52 3.15-2.28 5.63-2.28zm272.4-8.65c-.76 0-1.16.6-1.16 1.8 0 1.2.4 1.8 1.17 1.8.4 0 .7-.17.9-.5.22-.3.33-.75.33-1.3 0-.58-.1-1-.33-1.32-.2-.3-.5-.47-.9-.47zm-261.74 0c-.78 0-1.17.6-1.17 1.8 0 1.2.4 1.8 1.17 1.8.38 0 .68-.17.9-.5.22-.3.32-.75.32-1.3 0-.58-.1-1-.32-1.32-.22-.3-.52-.47-.9-.47zm-.9 27.55h1.83V100.6H62.3v20.15zm227.53-14.2v-.12c1.84-.3 3.24-.96 4.2-2 .96-1.06 1.44-2.36 1.44-3.93 0-2.3-.8-4.02-2.4-5.16-1.56-1.13-4.02-1.7-7.37-1.7h-7.43v27.1h8.3c3.06 0 5.4-.67 7.06-2s2.5-3.28 2.5-5.78c0-1.87-.53-3.32-1.54-4.37-1.02-1.03-2.6-1.72-4.78-2.04zM280.2 95.3h5.48c2.58 0 4.53.4 5.83 1.23 1.34.82 2 2.13 2 3.93 0 1.8-.6 3.13-1.75 3.98-1.15.85-3 1.27-5.55 1.27h-5.98V95.3zm6.4 23.78h-6.4v-11.7h5.98c5.3 0 7.94 1.86 7.94 5.58 0 4.08-2.5 6.12-7.53 6.12zm46.05 1.67h1.84V91.9h-1.87v28.85zm-77.9-20.55c-2.7 0-4.82.97-6.4 2.9s-2.37 4.5-2.37 7.73c0 3.25.8 5.78 2.45 7.58 1.64 1.84 3.93 2.74 6.85 2.74 1.17 0 2.23-.1 3.2-.27.96-.18 2-.52 3.15-1v-1.68c-1.34.52-2.44.87-3.3 1.03-.88.17-1.9.25-3.05.25-2.36 0-4.17-.73-5.44-2.2-1.27-1.45-1.9-3.56-1.94-6.33h14.52v-1.48c0-2.85-.68-5.1-2.05-6.75-1.38-1.66-3.25-2.5-5.62-2.5zm-6.74 9.1c.2-2.42.9-4.27 2.1-5.55 1.17-1.27 2.72-1.92 4.67-1.92 1.8 0 3.2.66 4.2 1.98 1.02 1.35 1.53 3.17 1.53 5.5H248zm76.1 11.45h1.82V100.6h-1.82v20.15zm-155.4-21.6c0 1.5.04 3.02.1 4.57h-.1c-.85-1.28-1.8-2.2-2.86-2.72-1.07-.53-2.33-.8-3.8-.8-2.77 0-4.9.92-6.35 2.76-1.47 1.85-2.2 4.5-2.2 8 0 3.3.74 5.83 2.2 7.56 1.48 1.73 3.6 2.6 6.4 2.6 2.86 0 5.06-1.15 6.6-3.45h.14l.46 3.08h1.2V91.9h-1.83v7.24zm0 11.8c0 3.05-.53 5.23-1.6 6.55-1.07 1.33-2.74 2-5 2-4.45 0-6.67-2.87-6.67-8.58 0-2.94.55-5.2 1.66-6.73 1.1-1.58 2.75-2.35 4.95-2.35 2.34 0 4.03.7 5.07 2.05 1.07 1.38 1.6 3.6 1.6 6.73v.32zm146.82.77c0 2.73-.56 4.7-1.7 5.9-1.12 1.23-2.9 1.83-5.3 1.83-1.8 0-3.1-.46-3.95-1.38s-1.28-2.4-1.28-4.43V100.6h-1.83v13.16c0 4.9 2.3 7.36 6.88 7.36 3.35 0 5.7-1.05 7-3.16h.1l.34 2.8h1.55V100.6h-1.82v11.1zm39.77-12.58c0 1.5.02 3.03.1 4.58h-.1c-.85-1.28-1.8-2.2-2.87-2.72-1.05-.53-2.32-.8-3.77-.8-2.78 0-4.9.92-6.36 2.76-1.46 1.85-2.2 4.5-2.2 8 0 3.3.74 5.83 2.22 7.56s3.6 2.6 6.37 2.6c2.85 0 5.06-1.15 6.6-3.45h.14l.47 3.08h1.2V91.9h-1.8v7.24zm0 11.82c0 3.04-.54 5.22-1.6 6.54s-2.74 2-5 2c-4.45 0-6.67-2.87-6.67-8.58 0-2.94.56-5.2 1.66-6.73 1.1-1.58 2.76-2.35 4.96-2.35 2.33 0 4.02.7 5.07 2.05 1.03 1.38 1.56 3.6 1.56 6.73v.32zm-178 9.8h1.84V100.6h-1.83v20.14zm.9-27.55c-.8 0-1.17.6-1.17 1.8 0 1.2.4 1.8 1.18 1.8.4 0 .7-.15.9-.5.2-.3.33-.73.33-1.3 0-.56-.1-1-.32-1.3-.2-.3-.5-.47-.9-.47zm15.28 7c-2.7 0-4.82 1-6.4 2.9s-2.37 4.5-2.37 7.75.8 5.78 2.45 7.58c1.64 1.82 3.93 2.72 6.86 2.72 1.17 0 2.23-.1 3.2-.27.96-.18 2-.52 3.15-1v-1.68c-1.34.52-2.44.87-3.3 1.03-.9.17-1.9.25-3.05.25-2.38 0-4.2-.73-5.46-2.2-1.27-1.45-1.9-3.56-1.94-6.33h14.53v-1.48c0-2.85-.68-5.1-2.05-6.75-1.38-1.67-3.25-2.5-5.62-2.5zm-6.73 9.1c.2-2.4.88-4.25 2.06-5.53 1.17-1.27 2.73-1.92 4.67-1.92 1.8 0 3.2.66 4.2 1.98 1.02 1.33 1.53 3.15 1.53 5.5h-12.5zm50.66-7.4c1.28 0 2.8.3 4.54.86l.5-1.63c-1.6-.6-3.26-.9-5-.9-2.95 0-5.26.93-6.96 2.8-1.7 1.85-2.54 4.45-2.54 7.8 0 3.24.82 5.78 2.45 7.6 1.62 1.8 3.9 2.72 6.76 2.72 2.1 0 3.78-.3 5.06-.95v-1.7c-1.55.64-3.25.97-5.1.97-2.27 0-4.05-.77-5.32-2.3s-1.9-3.68-1.9-6.4c0-2.86.62-5.06 1.9-6.6 1.27-1.52 3.15-2.28 5.62-2.28zm-21.7-1.68c-3.33 0-5.66 1.06-6.97 3.16h-.1l-.37-2.76h-1.55v20.15h1.84v-11.13c0-2.73.56-4.7 1.68-5.92 1.14-1.22 2.9-1.83 5.3-1.83 1.8 0 3.13.45 3.98 1.37.86.92 1.28 2.4 1.28 4.42v13.07h1.82v-13.2c0-4.9-2.3-7.35-6.86-7.35zM50.94 61.44C45.5 60.17 43.83 56.9 43.9 46V0h-8.74v45.98c0 13.35 2.3 22.66 15.77 24.17.05-2.75-.12-6.6 0-8.72zm88.34.52c-9.46 0-17.16-7.7-17.16-17.15s7.7-17.14 17.2-17.14c6.8 0 12.65 3.97 15.43 9.72 8.74-.17 0 0 8.74-.17-3.24-10.26-12.85-17.74-24.17-17.74-14 0-25.36 11.37-25.36 25.34s11.37 25.34 25.35 25.34c11.74 0 21.65-8.07 24.5-18.95-3.86-.24-6.3-.2-8.47-.4-2.45 6.5-8.7 11.13-16.05 11.13zm-58.43-42.5c-13.97 0-25.36 11.37-25.36 25.36 0 14 11.4 25.36 25.36 25.36 13.98 0 25.33-11.37 25.33-25.34 0-13.98-11.35-25.35-25.33-25.35zm0 42.52c-9.47 0-17.16-7.7-17.16-17.15 0-9.47 7.7-17.17 17.16-17.17 9.47 0 17.14 7.7 17.14 17.17 0 9.44-7.67 17.15-17.14 17.15zm128.78-42.52h-12.65L181.1 35.1l-.17-.4V.56h-8.95v69.6h8.95V47.68l.18.03 22.1 22.44h12.68l-28.44-28.5 22.2-22.2zm126.36 7.08c7.64.35 12.9 3 13.6 9.74 5.5 0 6.76.15 8.96-.08 0-9.87-7.7-18.18-23.2-18.18-13.15 0-21.56 6.35-21.56 14.93 0 3.9 1.02 7.66 4.65 10.4 4.92 3.3 8.55 3.45 23.24 4.87 4.25 1.07 8.06 2.58 7.9 6.75-1.33 4.96-6.97 6.4-14.85 6.45-6.98.06-12.86-4.33-13.6-11.32-8.4-.1-2.45-.1-9.3-.05 0 9.6 9.5 19.83 22.9 20.1 13.15.25 23.82-6.96 23.82-15.55 0-3.9-1.88-8.18-5.53-10.92-6.53-4.76-19.26-3.32-25.92-5.2-3.18-1-4.74-2.73-4.6-4.83.3-4.56 5.65-7.47 13.52-7.12zm-41.36 20.53c0 8.14-6.6 14.76-14.76 14.76-8.13 0-14.76-6.62-14.76-14.76V19.02h-8.33v28c0 12.78 10.34 23.13 23.1 23.13 12.78 0 23.1-10.35 23.1-23.12v-28h-8.35v28.03zm95.77-28.04c-5.56 0-10.67 1.95-14.65 5.2V.55h-8.94v69.6h8.95V39.98c1.04-7.15 7.42-12.65 14.83-12.65 8.15 0 15 6.62 15 14.76v28.03h7.94v-28c0-12.77-10.37-23.1-23.16-23.1zm-145.1-1.18c-13.05 0-23.64 10.6-23.64 23.65v28.64h8.53V41.47c0-8.33 6.8-15.1 15.1-15.1.26 0 4.85-7.98 4.45-8.08-1.16-.3-2.63-.48-4.45-.48zM0 24.15v46h8.73v-10.6H25.4v-8.7H8.74v-26.7c0-8.53 6.9-15.43 15.42-15.43.45 0 .88.04 1.32.08V.04C25.04.02 24.6 0 24.16 0 10.82 0 0 10.82 0 24.16z"/></svg>