<?xml version="1.0" encoding="utf-8"?>
<!-- Generator: Adobe Illustrator 15.1.0, SVG Export Plug-In . SVG Version: 6.00 Build 0)  -->
<!DOCTYPE svg PUBLIC "-//W3C//DTD SVG 1.1//EN" "http://www.w3.org/Graphics/SVG/1.1/DTD/svg11.dtd">
<svg version="1.1" id="Layer_1" xmlns="http://www.w3.org/2000/svg" xmlns:xlink="http://www.w3.org/1999/xlink" x="0px" y="0px"
	 width="207.15px" height="199.359px" viewBox="0 0 207.15 199.359" enable-background="new 0 0 207.15 199.359"
	 xml:space="preserve">
<g>
	<g>
		<g>
			<path fill="#0C6897" d="M11.928,77.264c-2.724,26.886-8.175,39.931-10.587,36.712c-0.713-0.982-1.208-3.568-1.341-7.146
				c0-4.551,0.227-10.629,0.628-15.188C2.322,81.37,2.322,81.105,3.932,75.744c3.129-9.741,3.305-10.1,5.764-15.462l1.293-2.672
				c1.075-1.973,1.387-2.416,1.921-3.219l0.358-0.358h0.401C14.16,55.553,11.971,76.991,11.928,77.264z"/>
			<path fill="#0C6897" d="M185.468,107.283c3.039,23.674-17.062,48.463-39.888,31.217c-17.332-13.084-18.984-41.403,3.035-53.552
				C168.537,76.726,183.234,90.122,185.468,107.283z"/>
			<path fill="#0C6897" d="M43.329,165.48c9.25,10.006,14.386,21.445,7.014,21.088c-10.941-0.445-36.046-25.195-31.18-34.041
				C23.185,148.685,34.8,156.285,43.329,165.48z"/>
			<path fill="#0C6897" d="M162.643,170.662c0.85,5.182-0.671,12.242-3.932,14.207c-3.305,1.783-10.63-0.445-14.963-3.664
				c-6.971-5.182-8.892-14.385,0.18-20.098C153.707,156.285,161.259,162.355,162.643,170.662z"/>
			<path fill="#0C6897" d="M38.731,114.335c5.225,12.506-0.315,24.656-9.784,21.172c-9.963-3.568-15.5-22.42-6.434-30.377
				C29.617,100.4,36.272,108.263,38.731,114.335z"/>
			<path fill="#0C6897" d="M206.999,91.642c0.939,8.4-2.638,14.479-6.659,11.526c-5.045-3.569-8.35-20.636-1.562-23.403
				C202.979,78.954,206.372,85.392,206.999,91.642z"/>
			<path fill="#0C6897" d="M135.438,3.379c9.83,3.039,14.787,7.231,10.766,9.289c-9.289,4.738-43.106-8.042-41.766-11.253
				c0.136-0.358,0.717-0.537,1.207-0.717C111.318-0.735,124.629-0.019,135.438,3.379z"/>
			<path fill="#0C6897" d="M178.274,42.601c9.336,13.934,3.129,26.707-11.611,23.939c-20.234-3.756-34.219-29.48-20.28-37.258
				c0.447-0.265,0.981-0.443,1.43-0.623C159.829,24.817,172.781,34.465,178.274,42.601z"/>
			<path fill="#0C6897" d="M92.108,192.638c4.153,1.699,9.204,4.652,5.853,6.078c-6.344,2.588-23.675-3.219-21.263-7.24l0.222-0.264
				C80.049,188.71,88.224,191.126,92.108,192.638z"/>
			<path fill="#0C6897" d="M124.316,30.179c26.578,30.104-9.383,80.766-54.23,76.293c-48.464-4.73-47.841-60.302-18.313-83.705
				c1.473-1.169,3.44-2.415,4.913-3.397C78.085,8.562,109.709,13.564,124.316,30.179z"/>
			<path fill="#0C6897" d="M123.689,143.503c12.242,21.977,2.992,47.887-34.438,37.258c-27.875-7.777-42.931-36.275-19.567-53.561
				C90.769,115.41,114.088,126.484,123.689,143.503z"/>
		</g>
	</g>
</g>
</svg>
