<?xml version="1.0" encoding="utf-8"?>
<!-- Generator: Adobe Illustrator 15.1.0, SVG Export Plug-In . SVG Version: 6.00 Build 0)  -->
<!DOCTYPE svg PUBLIC "-//W3C//DTD SVG 1.1//EN" "http://www.w3.org/Graphics/SVG/1.1/DTD/svg11.dtd">
<svg version="1.1" id="Layer_1" xmlns="http://www.w3.org/2000/svg" xmlns:xlink="http://www.w3.org/1999/xlink" x="0px" y="0px"
	 width="300px" height="300px" viewBox="0 0 300 300" enable-background="new 0 0 300 300" xml:space="preserve">
<rect fill="#0C6897" width="300" height="300"/>
<g>
	<g>
		<g>
			<path fill="#FFFFFF" d="M58.134,127.875c-2.724,26.886-8.175,39.931-10.587,36.712c-0.713-0.982-1.208-3.568-1.341-7.146
				c0-4.551,0.227-10.629,0.628-15.188c1.694-10.271,1.694-10.536,3.304-15.897c3.129-9.741,3.305-10.1,5.764-15.462l1.293-2.672
				c1.075-1.973,1.387-2.416,1.921-3.219l0.358-0.358h0.401C60.366,106.164,58.177,127.602,58.134,127.875z"/>
			<path fill="#FFFFFF" d="M231.674,157.894c3.039,23.674-17.062,48.463-39.888,31.217c-17.332-13.084-18.984-41.403,3.035-53.552
				C214.743,127.336,229.44,140.733,231.674,157.894z"/>
			<path fill="#FFFFFF" d="M89.535,216.091c9.25,10.006,14.386,21.445,7.014,21.088c-10.941-0.445-36.046-25.195-31.18-34.041
				C69.391,199.296,81.006,206.896,89.535,216.091z"/>
			<path fill="#FFFFFF" d="M208.849,221.272c0.85,5.182-0.671,12.242-3.932,14.207c-3.305,1.783-10.63-0.445-14.963-3.664
				c-6.971-5.182-8.892-14.385,0.18-20.098C199.913,206.896,207.465,212.966,208.849,221.272z"/>
			<path fill="#FFFFFF" d="M84.938,164.946c5.225,12.506-0.315,24.656-9.784,21.172c-9.963-3.568-15.5-22.42-6.434-30.377
				C75.823,151.011,82.479,158.874,84.938,164.946z"/>
			<path fill="#FFFFFF" d="M253.205,142.252c0.939,8.4-2.638,14.479-6.659,11.526c-5.045-3.569-8.35-20.636-1.562-23.403
				C249.185,129.565,252.578,136.002,253.205,142.252z"/>
			<path fill="#FFFFFF" d="M181.644,53.99c9.83,3.039,14.787,7.231,10.766,9.289c-9.289,4.738-43.106-8.042-41.766-11.253
				c0.136-0.358,0.717-0.537,1.207-0.717C157.524,49.875,170.835,50.592,181.644,53.99z"/>
			<path fill="#FFFFFF" d="M224.48,93.211c9.336,13.934,3.129,26.707-11.611,23.939c-20.234-3.756-34.219-29.48-20.28-37.258
				c0.447-0.265,0.981-0.443,1.43-0.623C206.035,75.428,218.987,85.076,224.48,93.211z"/>
			<path fill="#FFFFFF" d="M138.314,243.249c4.153,1.699,9.204,4.652,5.853,6.078c-6.344,2.588-23.675-3.219-21.263-7.24
				l0.222-0.264C126.255,239.321,134.43,241.737,138.314,243.249z"/>
			<path fill="#FFFFFF" d="M170.522,80.79c26.578,30.104-9.383,80.766-54.23,76.293c-48.464-4.73-47.841-60.302-18.313-83.705
				c1.473-1.169,3.44-2.415,4.913-3.397C124.291,59.172,155.915,64.175,170.522,80.79z"/>
			<path fill="#FFFFFF" d="M169.896,194.114c12.242,21.977,2.992,47.887-34.438,37.258c-27.875-7.777-42.931-36.275-19.567-53.561
				C136.975,166.021,160.294,177.095,169.896,194.114z"/>
		</g>
	</g>
</g>
</svg>
